<svg width="185" height="37" viewBox="0 0 185 37" fill="none" xmlns="http://www.w3.org/2000/svg">
<path d="M0 6.15964V12.3192H0.91567H1.83134V7.07531V1.8314H7.07525H12.3192V0.915727V5.62668e-05H6.15958H0V6.15964Z" fill="#657788"/>
<path d="M36.9988 30.8393V24.6797H36.0831H35.1675V29.9236V35.1675H29.9236H24.6797V36.0832V36.9988H30.8392H36.9988V30.8393Z" fill="#657788"/>
<path d="M30.9237 18.5665C30.9237 25.4182 25.3594 30.9727 18.4954 30.9727C11.6314 30.9727 6.06699 25.4182 6.06699 18.5665C6.06699 11.7148 11.6314 6.16034 18.4954 6.16034C25.3594 6.16034 30.9237 11.7148 30.9237 18.5665Z" fill="#80D2C8"/>
<path fill-rule="evenodd" clip-rule="evenodd" d="M17.4293 6.20572C11.1661 6.73685 6.22712 11.9045 6.07085 18.2565C6.0705 18.3304 6.07031 18.4134 6.07031 18.5051C6.07066 18.6837 6.07112 18.8184 6.07194 18.919C6.07446 19.009 6.07793 19.0988 6.08236 19.1884C6.08359 19.1906 6.08496 19.1904 6.08647 19.1883C6.09455 19.178 6.10609 19.1687 6.11186 19.1687C6.11763 19.1687 6.15687 19.1918 6.19957 19.2195C6.24227 19.2472 6.29766 19.2737 6.32074 19.2784C6.38306 19.2887 6.65772 19.3695 6.78005 19.4111C7.28437 19.5865 7.5625 19.7527 7.65136 19.9339C7.70329 20.0412 7.7206 20.1231 7.73214 20.3274C7.75176 20.6551 7.75984 20.7071 7.80831 20.7855C7.86024 20.8686 7.91448 20.8906 8.11875 20.9113C8.30224 20.9298 8.40611 20.9656 8.71655 21.1202C9.07892 21.3002 9.17124 21.3291 9.42282 21.3429C9.81289 21.3649 10.0356 21.3995 10.3391 21.4837C10.7881 21.6095 11.0916 21.7815 11.2058 21.9731C11.2185 21.9938 11.222 22.0354 11.222 22.1231C11.2208 22.2269 11.2151 22.2593 11.1839 22.3516C11.1124 22.5616 11.0073 22.7555 10.7327 23.186C10.4892 23.5656 10.4545 23.666 10.3576 24.2465C10.293 24.6366 10.2376 24.8455 10.1349 25.089C9.99408 25.4214 9.78981 25.6776 9.66517 25.6776C9.48168 25.6776 9.11931 25.9303 8.9589 26.1703C8.87927 26.2892 8.85965 26.3354 8.87581 26.3665C8.88388 26.3815 8.89427 26.3931 8.90004 26.3931C8.90466 26.3931 8.90927 26.3988 8.90927 26.4046C8.90927 26.4115 8.92081 26.43 8.93582 26.445C8.94966 26.46 8.97505 26.4888 8.99236 26.5108C9.00968 26.5315 9.03506 26.5616 9.04776 26.5766C9.06045 26.5927 9.06853 26.6123 9.06507 26.6204C9.06276 26.6296 9.06507 26.6331 9.07084 26.6296C9.08584 26.6204 9.19894 26.7404 9.19201 26.7589C9.18971 26.7681 9.19432 26.7704 9.20586 26.7658C9.22087 26.7601 9.22317 26.7635 9.2174 26.7785C9.21279 26.7901 9.21394 26.7958 9.22087 26.7912C9.22779 26.7866 9.24048 26.7924 9.25087 26.8016C9.2601 26.812 9.26587 26.8201 9.26241 26.8201C9.25895 26.8201 9.28895 26.8547 9.3305 26.8974C9.37205 26.9412 9.40321 26.9828 9.39974 26.9909C9.39628 27.0001 9.39974 27.0024 9.40667 26.9978C9.41359 26.9932 9.46899 27.0428 9.53361 27.1097C9.59709 27.1755 9.65363 27.2344 9.6594 27.2413C9.67546 27.2562 9.74964 27.3304 9.76076 27.3415L9.76096 27.3417C9.76337 27.3441 9.78027 27.3604 9.80523 27.3844C9.82806 27.4064 9.85764 27.4349 9.88906 27.4652C9.956 27.5298 10.0056 27.5852 10.001 27.5921C9.99639 27.599 9.9987 27.6025 10.0079 27.599C10.016 27.5956 10.0576 27.6267 10.1014 27.6683C10.1441 27.7098 10.1787 27.7398 10.1787 27.7364C10.1787 27.7329 10.1868 27.7387 10.1972 27.7479C10.2064 27.7583 10.2122 27.771 10.2076 27.7779C10.203 27.7848 10.2087 27.786 10.2203 27.7814C10.2353 27.7756 10.2387 27.7779 10.233 27.7929C10.2284 27.8045 10.2307 27.8091 10.2399 27.8068C10.2584 27.7999 10.3784 27.9129 10.3691 27.9279C10.3657 27.9337 10.3691 27.936 10.3784 27.9337C10.3865 27.9303 10.4061 27.9383 10.4222 27.951L10.4229 27.9516C10.4381 27.9644 10.4675 27.9894 10.488 28.0064C10.5099 28.0237 10.5388 28.0491 10.5538 28.063C10.5688 28.078 10.585 28.0895 10.5884 28.0895C10.5919 28.0895 10.6069 28.0999 10.6207 28.1138C10.6346 28.1276 10.6646 28.1518 10.6865 28.168C10.7084 28.1853 10.7454 28.2165 10.7673 28.2361C10.7892 28.2569 10.8111 28.2742 10.8169 28.2742C10.8215 28.2742 10.8412 28.2903 10.8619 28.3088C10.8815 28.3284 10.9023 28.3434 10.9069 28.3434C10.9115 28.3434 10.9289 28.3561 10.945 28.3723C10.9612 28.3884 10.9796 28.4011 10.9866 28.4011C10.9923 28.4011 10.9981 28.4046 10.9981 28.4092C10.9981 28.415 11.0177 28.4311 11.0408 28.4473C11.0639 28.4634 11.095 28.4877 11.1089 28.5015C11.1239 28.5165 11.1412 28.5281 11.1481 28.5281C11.1539 28.5281 11.1597 28.5338 11.1597 28.5407C11.1597 28.5465 11.1643 28.55 11.1701 28.5465C11.1747 28.5431 11.1885 28.55 11.2001 28.5627C11.2116 28.5754 11.2278 28.5858 11.237 28.5858C11.2462 28.5858 11.2497 28.5904 11.2462 28.5973C11.2428 28.6042 11.2474 28.6088 11.2566 28.6088C11.267 28.6088 11.2751 28.6135 11.2751 28.6204C11.2751 28.6261 11.2832 28.6319 11.2924 28.6319C11.3016 28.6319 11.3212 28.6446 11.3374 28.6608C11.3535 28.6769 11.372 28.6896 11.3789 28.6896C11.3847 28.6896 11.3905 28.6942 11.3905 28.7012C11.3905 28.7069 11.3986 28.7127 11.4078 28.7127C11.417 28.7127 11.4251 28.7162 11.4251 28.7208C11.4251 28.7266 11.4516 28.745 11.4828 28.7646C11.5151 28.7831 11.5405 28.8027 11.5405 28.8073C11.5405 28.812 11.5486 28.8166 11.5578 28.8166C11.567 28.8166 11.5751 28.8212 11.5751 28.8258C11.5751 28.8316 11.5959 28.8454 11.6213 28.8581C11.6467 28.8697 11.6674 28.8835 11.6674 28.8881C11.6674 28.8939 11.6732 28.8974 11.679 28.8974C11.6859 28.8974 11.7009 28.9066 11.7136 28.917C11.7252 28.9285 11.7552 28.9481 11.7794 28.9608C11.8036 28.9735 11.8313 28.992 11.8406 29.0012C11.8498 29.0104 11.8798 29.0289 11.9063 29.0416C11.934 29.0543 11.956 29.0681 11.956 29.0728C11.956 29.0785 11.964 29.082 11.9733 29.082C11.9825 29.082 11.9906 29.0866 11.9906 29.0935C11.9906 29.0993 11.9987 29.1051 12.009 29.1051C12.0183 29.1051 12.0229 29.1097 12.0194 29.1166C12.016 29.1224 12.0206 29.1282 12.031 29.1282C12.0402 29.1282 12.0691 29.1409 12.0944 29.157C12.1198 29.1732 12.1452 29.1859 12.1522 29.1859C12.1579 29.1859 12.1637 29.1905 12.1637 29.1974C12.1637 29.2032 12.1718 29.2089 12.181 29.2089C12.1902 29.2089 12.1983 29.2124 12.1983 29.217C12.1983 29.2228 12.2214 29.2366 12.2502 29.2493C12.2791 29.262 12.3022 29.2759 12.3022 29.2805C12.3022 29.2863 12.3103 29.2897 12.3195 29.2897C12.3287 29.2897 12.3368 29.2943 12.3368 29.3013C12.3368 29.307 12.3449 29.3128 12.3541 29.3128C12.3633 29.3128 12.3714 29.3174 12.3714 29.3243C12.3714 29.3301 12.3795 29.3359 12.3899 29.3359C12.4107 29.3359 12.4787 29.3717 12.4845 29.3844C12.4868 29.3901 12.4961 29.3936 12.5053 29.3936C12.5145 29.3936 12.5214 29.3971 12.5214 29.4028C12.5214 29.4121 12.6057 29.4513 12.6253 29.4513C12.6322 29.4513 12.6369 29.4559 12.6369 29.4628C12.6369 29.4686 12.6449 29.4744 12.6542 29.4744C12.6634 29.4744 12.6715 29.479 12.6715 29.4859C12.6715 29.4917 12.6819 29.4975 12.6946 29.4975C12.7072 29.4975 12.7176 29.5021 12.7176 29.509C12.7176 29.5148 12.7257 29.5205 12.7349 29.5205C12.7442 29.5205 12.7523 29.5252 12.7523 29.5321C12.7523 29.5378 12.7603 29.5436 12.7696 29.5436C12.7892 29.5436 12.9057 29.6025 12.9115 29.6152C12.9138 29.6209 12.9254 29.6244 12.9381 29.6244C12.9496 29.6244 12.96 29.6302 12.96 29.6371C12.96 29.6429 12.9646 29.6463 12.9692 29.6429C12.975 29.6394 12.9958 29.6475 13.0154 29.6602C13.0362 29.6717 13.0604 29.6821 13.0696 29.6821C13.0789 29.6821 13.0869 29.6867 13.0869 29.6936C13.0869 29.6994 13.0985 29.7052 13.1123 29.7052C13.1262 29.7052 13.1331 29.7086 13.1296 29.7133C13.1216 29.7202 13.1804 29.7467 13.2346 29.7594C13.2485 29.7629 13.26 29.7698 13.26 29.7756C13.26 29.7814 13.2704 29.786 13.2831 29.786C13.2958 29.786 13.3062 29.7906 13.3062 29.7975C13.3062 29.8033 13.3166 29.809 13.3293 29.809C13.342 29.809 13.3524 29.8137 13.3524 29.8206C13.3524 29.8264 13.3604 29.8321 13.3697 29.8321C13.3789 29.8321 13.4135 29.8448 13.447 29.861C13.4793 29.8771 13.5139 29.8898 13.522 29.8898C13.5312 29.8898 13.5347 29.8944 13.5312 29.9014C13.5266 29.9083 13.537 29.9129 13.5532 29.9129C13.5693 29.9129 13.5832 29.9175 13.5832 29.9245C13.5832 29.9302 13.5912 29.936 13.6016 29.936C13.6189 29.936 13.6778 29.9591 13.724 29.9833C13.7355 29.9891 13.7528 29.9937 13.762 29.9937C13.7713 29.9937 13.7794 29.9983 13.7794 30.0052C13.7794 30.011 13.7932 30.0168 13.8094 30.0168C13.8255 30.0168 13.8359 30.0214 13.8313 30.0283C13.8278 30.0352 13.8359 30.0399 13.8509 30.0399C13.8659 30.0399 13.8925 30.0479 13.9109 30.0572C13.9282 30.0664 13.9536 30.0745 13.9652 30.0745C13.9779 30.0745 13.9871 30.0791 13.9871 30.086C13.9871 30.0918 14.0009 30.0976 14.0171 30.0976C14.0333 30.0976 14.0436 30.1022 14.039 30.1091C14.0344 30.116 14.0448 30.1206 14.0609 30.1206C14.0771 30.1206 14.091 30.1253 14.091 30.131C14.091 30.1368 14.1117 30.1437 14.1371 30.1483C14.1637 30.1518 14.1948 30.161 14.2064 30.1668C14.2127 30.1703 14.2211 30.1743 14.2295 30.1784C14.2378 30.1824 14.2462 30.1864 14.2525 30.1899C14.2652 30.1957 14.286 30.2014 14.2987 30.2014C14.3125 30.2014 14.3195 30.206 14.316 30.213C14.3114 30.2199 14.3241 30.2245 14.3437 30.2245C14.3633 30.2245 14.3795 30.2291 14.3795 30.2349C14.3795 30.2407 14.4025 30.2487 14.4314 30.2522C14.4591 30.2568 14.4856 30.2649 14.4891 30.2718C14.4937 30.2776 14.5087 30.2822 14.5249 30.2822C14.5399 30.2822 14.5526 30.2868 14.5526 30.2937C14.5526 30.2995 14.5687 30.3053 14.5872 30.3053C14.6068 30.3053 14.6218 30.3099 14.6218 30.3168C14.6218 30.3226 14.638 30.3284 14.6564 30.3284C14.6761 30.3284 14.6911 30.333 14.6911 30.3388C14.6911 30.3445 14.7176 30.3526 14.7488 30.3572C14.7811 30.3618 14.8065 30.3699 14.8065 30.3757C14.8065 30.3815 14.8226 30.3861 14.8411 30.3861C14.8607 30.3861 14.8757 30.3907 14.8757 30.3976C14.8757 30.4034 14.8942 30.4092 14.9173 30.4092C14.9415 30.4092 14.9553 30.4138 14.9507 30.4207C14.9461 30.4276 14.9588 30.4322 14.9819 30.4322C15.0027 30.4334 15.0407 30.4403 15.0661 30.4495C15.0915 30.4588 15.1238 30.4669 15.1388 30.4669C15.1527 30.4669 15.1642 30.4715 15.1642 30.4784C15.1642 30.4842 15.1827 30.4899 15.2046 30.4899C15.2265 30.4899 15.245 30.4946 15.245 30.5015C15.245 30.5072 15.2635 30.513 15.2865 30.513C15.3085 30.513 15.3246 30.5176 15.3212 30.5234C15.3177 30.5292 15.3477 30.5373 15.3893 30.5419C15.4308 30.5453 15.4666 30.5546 15.47 30.5603C15.4747 30.5661 15.4943 30.5707 15.5162 30.5707C15.5381 30.5707 15.5589 30.5753 15.5624 30.5823C15.5658 30.588 15.5878 30.5938 15.6097 30.5938C15.6316 30.5938 15.6489 30.5984 15.6489 30.6053C15.6489 30.6111 15.6697 30.6169 15.6951 30.6169C15.7205 30.6169 15.7412 30.6215 15.7412 30.6273C15.7412 30.633 15.7828 30.6411 15.8336 30.6457C15.8843 30.6504 15.9259 30.6584 15.9259 30.6642C15.9259 30.67 15.949 30.6746 15.9778 30.6746C16.0067 30.6746 16.0298 30.6792 16.0298 30.6861C16.0298 30.6919 16.0528 30.6977 16.0817 30.6977C16.1105 30.6977 16.1336 30.7023 16.1336 30.7092C16.1336 30.715 16.1602 30.7207 16.1925 30.7207C16.2236 30.7207 16.2479 30.7254 16.2444 30.7311C16.2409 30.7369 16.2917 30.745 16.3587 30.7496C16.4256 30.7542 16.4833 30.7623 16.4868 30.7681C16.4902 30.7738 16.5179 30.7785 16.5502 30.7785C16.5814 30.7785 16.6068 30.7831 16.6068 30.79C16.6068 30.7969 16.6391 30.8015 16.6818 30.8015C16.7245 30.8015 16.7568 30.8061 16.7568 30.8131C16.7568 30.82 16.7891 30.8246 16.8318 30.8246C16.8734 30.8246 16.9068 30.8292 16.9068 30.835C16.9068 30.8408 16.9876 30.8488 17.0857 30.8535C17.1838 30.8581 17.268 30.8662 17.2715 30.8719C17.275 30.8777 17.3292 30.8823 17.3927 30.8823C17.4608 30.8823 17.5069 30.8869 17.5069 30.8939C17.5069 30.9008 17.5693 30.9054 17.672 30.9054C17.7816 30.9054 17.8301 30.9089 17.8185 30.9169C17.807 30.9239 18.0447 30.9285 18.4994 30.9285C18.9541 30.9285 19.1918 30.9239 19.1803 30.9169C19.1688 30.9089 19.2172 30.9054 19.328 30.9054C19.4296 30.9054 19.4919 30.9008 19.4919 30.8939C19.4919 30.8869 19.5381 30.8823 19.6062 30.8823C19.6696 30.8823 19.7239 30.8777 19.7273 30.8719C19.7308 30.8662 19.815 30.8581 19.9131 30.8535C20.0112 30.8488 20.092 30.8408 20.092 30.835C20.092 30.8292 20.1255 30.8246 20.167 30.8246C20.2097 30.8246 20.242 30.82 20.242 30.8131C20.242 30.8061 20.2743 30.8015 20.317 30.8015C20.3597 30.8015 20.3921 30.7969 20.3921 30.79C20.3921 30.7831 20.4174 30.7785 20.4486 30.7785C20.4809 30.7785 20.5086 30.7738 20.5121 30.7681C20.5155 30.7623 20.5732 30.7542 20.6402 30.7496C20.7071 30.745 20.7579 30.7369 20.7544 30.7311C20.751 30.7254 20.7752 30.7207 20.8064 30.7207C20.8387 30.7207 20.8652 30.715 20.8652 30.7092C20.8652 30.7023 20.8883 30.6977 20.9172 30.6977C20.946 30.6977 20.9691 30.6919 20.9691 30.6861C20.9691 30.6792 20.9922 30.6746 21.021 30.6746C21.0499 30.6746 21.0729 30.67 21.0729 30.6642C21.0729 30.6584 21.1145 30.6504 21.1653 30.6457C21.2161 30.6411 21.2576 30.633 21.2576 30.6273C21.2576 30.6215 21.2818 30.6169 21.3107 30.6169C21.3418 30.6169 21.3603 30.6123 21.3557 30.6053C21.3511 30.5984 21.3649 30.5938 21.3892 30.5938C21.4111 30.5938 21.433 30.588 21.4365 30.5823C21.4399 30.5753 21.4607 30.5707 21.4826 30.5707C21.5046 30.5707 21.5242 30.5661 21.5288 30.5603C21.5323 30.5546 21.568 30.5453 21.6096 30.5419C21.6511 30.5373 21.6811 30.5292 21.6777 30.5234C21.6742 30.5176 21.6904 30.513 21.7123 30.513C21.7354 30.513 21.7538 30.5072 21.7538 30.5015C21.7538 30.4946 21.7723 30.4899 21.7942 30.4899C21.8162 30.4899 21.8346 30.4842 21.8346 30.4784C21.8346 30.4715 21.8462 30.4669 21.8612 30.4669C21.875 30.4669 21.9073 30.4588 21.9327 30.4495C21.9581 30.4403 21.9962 30.4334 22.017 30.4322C22.04 30.4322 22.0527 30.4276 22.0481 30.4207C22.0435 30.4138 22.0574 30.4092 22.0816 30.4092C22.1047 30.4092 22.1231 30.4034 22.1231 30.3976C22.1231 30.3907 22.1393 30.3861 22.1578 30.3861C22.1774 30.3861 22.1924 30.3815 22.1924 30.3757C22.1924 30.3676 22.2362 30.3561 22.2985 30.3468C22.302 30.3457 22.3101 30.3422 22.3147 30.3376C22.3193 30.3318 22.3355 30.3284 22.3505 30.3284C22.3655 30.3284 22.377 30.3226 22.377 30.3168C22.377 30.3099 22.3932 30.3053 22.4116 30.3053C22.4313 30.3053 22.4463 30.2995 22.4463 30.2937C22.4463 30.2868 22.459 30.2822 22.474 30.2822C22.4901 30.2822 22.5051 30.2776 22.5097 30.2718C22.5132 30.2649 22.5397 30.2568 22.5674 30.2522C22.5963 30.2487 22.6194 30.2407 22.6194 30.2349C22.6194 30.2291 22.6355 30.2245 22.6552 30.2245C22.6748 30.2245 22.6875 30.2199 22.6828 30.213C22.6782 30.206 22.6909 30.2014 22.7105 30.2014C22.7302 30.2014 22.7463 30.1957 22.7463 30.1899C22.7463 30.183 22.7567 30.1783 22.7682 30.1783C22.7809 30.1783 22.7936 30.1737 22.7983 30.168C22.8017 30.161 22.8283 30.153 22.856 30.1483C22.8848 30.1449 22.9079 30.1368 22.9079 30.131C22.9079 30.1253 22.9217 30.1206 22.9379 30.1206C22.9541 30.1206 22.9644 30.116 22.9598 30.1091C22.9552 30.1022 22.9656 30.0976 22.9817 30.0976C22.9979 30.0976 23.0118 30.0918 23.0118 30.086C23.0118 30.0791 23.021 30.0745 23.0337 30.0745C23.0452 30.0745 23.0706 30.0664 23.0879 30.0572C23.1064 30.0479 23.1329 30.0399 23.1479 30.0399C23.1629 30.0399 23.171 30.0352 23.1675 30.0283C23.1629 30.0214 23.1733 30.0168 23.1895 30.0168C23.2056 30.0168 23.2195 30.011 23.2195 30.0052C23.2195 29.9983 23.2276 29.9937 23.2368 29.9937C23.246 29.9937 23.2633 29.9891 23.2749 29.9833C23.321 29.9591 23.3799 29.936 23.3972 29.936C23.4076 29.936 23.4157 29.9302 23.4157 29.9245C23.4157 29.9175 23.4284 29.9129 23.4434 29.9129C23.4584 29.9129 23.4734 29.9083 23.4757 29.9037C23.4814 29.8898 23.6095 29.8321 23.6349 29.8321C23.6476 29.8321 23.658 29.8264 23.658 29.8206C23.658 29.8137 23.6684 29.809 23.6823 29.809C23.6949 29.809 23.7019 29.8044 23.6984 29.7975C23.6949 29.7906 23.7019 29.786 23.7146 29.786C23.7284 29.786 23.7388 29.7814 23.7388 29.7756C23.7388 29.7698 23.7503 29.7629 23.7653 29.7594C23.8184 29.7467 23.8773 29.7202 23.8692 29.7133C23.8657 29.7086 23.8727 29.7052 23.8865 29.7052C23.9004 29.7052 23.9119 29.6994 23.9119 29.6936C23.9119 29.6867 23.92 29.6821 23.9292 29.6821C23.9385 29.6821 23.9627 29.6717 23.9835 29.6602C24.0031 29.6475 24.0239 29.6394 24.0296 29.6429C24.0342 29.6463 24.0389 29.6429 24.0389 29.6371C24.0389 29.6302 24.0492 29.6244 24.0608 29.6244C24.0735 29.6244 24.085 29.6209 24.0873 29.6152C24.0931 29.6025 24.2097 29.5436 24.2293 29.5436C24.2385 29.5436 24.2466 29.5378 24.2466 29.5321C24.2466 29.5252 24.2547 29.5205 24.2639 29.5205C24.2731 29.5205 24.2812 29.5148 24.2812 29.509C24.2812 29.5021 24.2916 29.4975 24.3043 29.4975C24.317 29.4975 24.3274 29.4917 24.3274 29.4859C24.3274 29.479 24.3354 29.4744 24.3447 29.4744C24.3539 29.4744 24.362 29.4698 24.362 29.464C24.362 29.4582 24.377 29.4501 24.3966 29.4455C24.4151 29.4409 24.4335 29.4328 24.437 29.4271C24.4416 29.4213 24.4543 29.4167 24.467 29.4167C24.4797 29.4167 24.4866 29.4121 24.4832 29.4051C24.4797 29.3994 24.4843 29.3936 24.4935 29.3936C24.5039 29.3936 24.512 29.389 24.512 29.3844C24.512 29.3797 24.5386 29.3659 24.5697 29.3532C24.602 29.3405 24.6274 29.3267 24.6274 29.322C24.6274 29.3174 24.6378 29.3128 24.6517 29.3128C24.6643 29.3128 24.6713 29.307 24.6678 29.3013C24.6644 29.2943 24.669 29.2897 24.6782 29.2897C24.6886 29.2897 24.6967 29.2863 24.6967 29.2805C24.6967 29.2759 24.7197 29.262 24.7486 29.2493C24.7774 29.2366 24.8005 29.2228 24.8005 29.217C24.8005 29.2124 24.8086 29.2089 24.8178 29.2089C24.8271 29.2089 24.8351 29.2032 24.8351 29.1974C24.8351 29.1905 24.8455 29.1859 24.8582 29.1859C24.8709 29.1859 24.8813 29.1824 24.8813 29.1766C24.8813 29.1662 24.9471 29.1282 24.9667 29.1282C24.9736 29.1282 24.9875 29.1178 24.9967 29.1051C25.0059 29.0924 25.0198 29.082 25.0279 29.082C25.036 29.082 25.0429 29.0774 25.0429 29.0716C25.0429 29.0624 25.0856 29.0439 25.104 29.0462C25.1087 29.0474 25.1121 29.0416 25.1121 29.0358C25.1121 29.0289 25.1179 29.0243 25.1248 29.0243C25.1329 29.0243 25.1467 29.0151 25.1571 29.0035C25.1675 28.9931 25.1964 28.9735 25.2218 28.9608C25.2471 28.9481 25.276 28.9285 25.2864 28.917C25.2968 28.9066 25.3106 28.8974 25.3187 28.8974C25.3256 28.8974 25.3314 28.8939 25.3314 28.8881C25.3314 28.8835 25.3522 28.8697 25.3776 28.8581C25.4029 28.8454 25.4237 28.8316 25.4237 28.8258C25.4237 28.8212 25.4295 28.8166 25.4353 28.8166C25.4422 28.8166 25.4583 28.8073 25.471 28.7946C25.4837 28.7831 25.5137 28.7635 25.5368 28.7519C25.5599 28.7392 25.5876 28.7208 25.598 28.7092C25.6084 28.6989 25.6211 28.6896 25.6268 28.6896C25.6326 28.6896 25.6453 28.6792 25.6545 28.6677C25.6626 28.655 25.6741 28.6469 25.6799 28.6504C25.6845 28.6538 25.6891 28.6504 25.6891 28.6446C25.6891 28.6377 25.6972 28.6319 25.7065 28.6319C25.7157 28.6319 25.7238 28.6261 25.7238 28.6204C25.7238 28.6135 25.7318 28.6088 25.7422 28.6088C25.7515 28.6088 25.7561 28.6031 25.7526 28.5973C25.7492 28.5904 25.7526 28.5858 25.7618 28.5858C25.7699 28.5858 25.7884 28.5754 25.8011 28.5638C25.8149 28.5511 25.8288 28.5442 25.8322 28.5477C25.8357 28.5523 25.8392 28.5488 25.8392 28.5419C25.8392 28.5338 25.8449 28.5281 25.8507 28.5281C25.8576 28.5281 25.8784 28.5131 25.8992 28.4934C25.9188 28.475 25.9396 28.4588 25.9442 28.4588C25.9488 28.4588 25.9661 28.4461 25.9823 28.43C25.9984 28.4138 26.0146 28.4011 26.018 28.4011C26.0215 28.4011 26.0377 28.3884 26.0538 28.3723C26.07 28.3561 26.0873 28.3434 26.0919 28.3434C26.0965 28.3434 26.1173 28.3272 26.1369 28.3088C26.1577 28.2892 26.1773 28.2742 26.1819 28.2742C26.1877 28.2742 26.2142 28.2534 26.2408 28.228C26.2685 28.2026 26.295 28.1818 26.2985 28.1818C26.3031 28.1818 26.3285 28.1611 26.3562 28.1357C26.3827 28.1103 26.407 28.0895 26.4104 28.0895C26.4139 28.0895 26.43 28.078 26.445 28.063C26.4601 28.0491 26.4889 28.0237 26.5108 28.0064C26.5316 27.9892 26.5615 27.9638 26.5765 27.9511L26.5766 27.951C26.5928 27.9383 26.6124 27.9303 26.6205 27.9337C26.6297 27.936 26.6332 27.9337 26.6297 27.9279C26.6216 27.9141 26.737 27.8056 26.7578 27.8079C26.7659 27.8091 26.7693 27.8022 26.7647 27.7918C26.7601 27.7791 26.7636 27.7756 26.7786 27.7814C26.7901 27.786 26.7959 27.7848 26.7913 27.7779C26.7832 27.7641 26.8143 27.7295 26.8247 27.7398C26.8282 27.7445 26.8317 27.741 26.8317 27.7341C26.8317 27.726 26.8374 27.7202 26.8443 27.7202C26.8513 27.7202 26.8778 27.6971 26.9044 27.6683C26.9297 27.6394 26.9574 27.6175 26.9655 27.621C26.9759 27.6244 26.9782 27.621 26.9736 27.6083C26.9678 27.5944 26.9713 27.591 26.9851 27.5967C26.999 27.6014 27.0013 27.599 26.9967 27.5852C26.9909 27.5702 26.9944 27.5679 27.0094 27.5737C27.0221 27.5783 27.0267 27.5771 27.0209 27.569C27.0151 27.5598 27.1467 27.4225 27.2379 27.344C27.246 27.3371 27.261 27.3198 27.2702 27.3071C27.2817 27.2886 27.2887 27.2863 27.2956 27.2967C27.3013 27.3059 27.3048 27.3013 27.3048 27.284C27.3048 27.269 27.3094 27.2598 27.314 27.2632C27.3198 27.2667 27.3314 27.2586 27.3406 27.2448C27.3717 27.1997 27.4168 27.1559 27.4248 27.1628C27.4283 27.1663 27.4318 27.164 27.4318 27.1559C27.4318 27.134 27.5552 27.0128 27.5691 27.0209C27.5772 27.0266 27.5783 27.022 27.5737 27.0093C27.5679 26.9943 27.5702 26.9909 27.5852 26.9966C27.5991 27.0012 27.6014 26.9989 27.5968 26.9851C27.591 26.9712 27.5945 26.9678 27.6083 26.9736C27.621 26.9782 27.6245 26.9759 27.621 26.9655C27.6176 26.9562 27.6279 26.9389 27.6441 26.9262C27.6603 26.9135 27.6741 26.8974 27.6741 26.8893C27.6741 26.8824 27.6799 26.8801 27.6856 26.8835C27.6926 26.887 27.6972 26.8847 27.6972 26.8766C27.6972 26.8697 27.7087 26.8535 27.7226 26.842C27.7353 26.8293 27.7434 26.8201 27.7387 26.8201C27.7341 26.8201 27.7387 26.812 27.748 26.8016C27.7584 26.7924 27.771 26.7866 27.778 26.7912C27.7849 26.7958 27.7861 26.7901 27.7814 26.7785C27.7757 26.7624 27.778 26.7601 27.7941 26.7658C27.8068 26.7704 27.8114 26.7693 27.8068 26.7612C27.8022 26.7554 27.8126 26.737 27.8288 26.722C27.8449 26.707 27.8588 26.6885 27.8588 26.6816C27.8588 26.6747 27.8645 26.6723 27.8703 26.6758C27.8772 26.6793 27.8818 26.677 27.8818 26.67C27.8818 26.6504 27.9142 26.6216 27.928 26.6296C27.9338 26.6331 27.9361 26.6296 27.9326 26.6204C27.9292 26.6112 27.9395 26.5904 27.9557 26.5742C27.9719 26.5569 27.9857 26.5408 27.9857 26.5373C27.9857 26.5339 27.9972 26.5189 28.0122 26.5039C28.0261 26.4888 28.0446 26.4658 28.0538 26.4531C28.063 26.4392 28.0746 26.4311 28.0803 26.4346C28.0849 26.4381 28.0896 26.4288 28.0896 26.4138C28.0896 26.3931 28.0919 26.3908 28.1011 26.4046C28.1103 26.4196 28.1126 26.4185 28.1126 26.4C28.1126 26.3884 28.1253 26.3665 28.1415 26.3515C28.1577 26.3365 28.1703 26.3192 28.1703 26.3123C28.1703 26.3054 28.1761 26.303 28.1819 26.3065C28.1888 26.31 28.1934 26.303 28.1934 26.2892C28.1934 26.2754 28.1992 26.2684 28.205 26.2719C28.2119 26.2754 28.2165 26.2707 28.2165 26.2615C28.2165 26.2523 28.2292 26.235 28.2454 26.2223C28.2615 26.2096 28.2742 26.1911 28.2742 26.1796C28.2742 26.1692 28.28 26.1646 28.2858 26.168C28.2927 26.1715 28.2973 26.1669 28.2973 26.1553C28.2973 26.1403 28.3008 26.1392 28.3135 26.1496C28.3273 26.1611 28.3285 26.1588 28.3238 26.1403C28.3204 26.1242 28.3238 26.1138 28.3365 26.1092C28.3469 26.1057 28.355 26.0942 28.355 26.0849C28.355 26.0642 28.3838 26.0342 28.3942 26.0434C28.3977 26.048 28.4012 26.0388 28.4012 26.0249C28.4012 26.0111 28.4058 26.003 28.4127 26.0065C28.4196 26.0099 28.4242 26.0076 28.4242 26.0007C28.4242 25.9811 28.4658 25.9303 28.475 25.9395C28.4785 25.943 28.4819 25.9372 28.4819 25.9245C28.4819 25.9118 28.4923 25.8945 28.505 25.8853C28.5177 25.8761 28.5281 25.8622 28.5281 25.8541C28.5281 25.846 28.5339 25.8391 28.5408 25.8391C28.5466 25.8391 28.55 25.8345 28.5466 25.8299C28.5431 25.8241 28.5512 25.8126 28.5639 25.8045C28.5754 25.7953 28.5858 25.778 28.5858 25.7664C28.5858 25.7549 28.5916 25.7491 28.5973 25.7526C28.6043 25.756 28.6089 25.7514 28.6089 25.7399C28.6089 25.7249 28.6124 25.7237 28.625 25.7341C28.6377 25.7445 28.6389 25.7422 28.6354 25.7191C28.632 25.7006 28.6389 25.6833 28.6597 25.6626C28.6758 25.6464 28.6897 25.6268 28.6897 25.6199C28.6897 25.6141 28.6954 25.6083 28.7012 25.6083C28.7081 25.6083 28.7128 25.6002 28.7128 25.5898C28.7128 25.5806 28.7174 25.5748 28.7231 25.5783C28.7289 25.5818 28.737 25.5725 28.7404 25.5564C28.7451 25.5402 28.7531 25.5275 28.7589 25.5275C28.7658 25.5275 28.7705 25.5194 28.7705 25.5091C28.7705 25.4998 28.7762 25.4952 28.782 25.4987C28.7889 25.5021 28.7935 25.4952 28.7935 25.4825C28.7935 25.4687 28.7993 25.4583 28.8051 25.4583C28.812 25.4583 28.8166 25.4502 28.8166 25.4398C28.8166 25.4306 28.8212 25.4248 28.827 25.4283C28.8328 25.4317 28.8409 25.4225 28.8443 25.4064C28.8489 25.3902 28.857 25.3775 28.8628 25.3775C28.8697 25.3775 28.8743 25.3671 28.8743 25.3533C28.8743 25.3406 28.8801 25.3336 28.8859 25.3371C28.8928 25.3406 28.8974 25.3325 28.8974 25.3175C28.8974 25.2967 28.8997 25.2944 28.9089 25.3083C28.9182 25.3221 28.9205 25.321 28.9205 25.3013C28.9205 25.2875 28.9286 25.2702 28.9378 25.2621C28.947 25.254 28.9551 25.2402 28.9551 25.2309C28.9551 25.2206 28.962 25.2159 28.9701 25.2194C28.9816 25.224 28.9851 25.2171 28.9816 25.1952C28.977 25.1709 28.9793 25.1675 28.9886 25.1813C28.999 25.1952 29.0013 25.194 29.0013 25.1721C29.0013 25.1582 29.0059 25.1467 29.0117 25.1467C29.0174 25.1467 29.0255 25.134 29.029 25.1178C29.0336 25.1017 29.0417 25.089 29.0474 25.089C29.0544 25.089 29.059 25.0786 29.059 25.0659C29.059 25.0532 29.0647 25.0428 29.0705 25.0428C29.0774 25.0428 29.082 25.0347 29.082 25.0244C29.082 25.0151 29.0878 25.0105 29.0936 25.014C29.1005 25.0174 29.1051 25.0105 29.1051 24.9967C29.1051 24.9828 29.1109 24.9759 29.1167 24.9794C29.1236 24.9828 29.1282 24.9759 29.1282 24.962C29.1282 24.9494 29.1363 24.9355 29.1455 24.932C29.1548 24.9274 29.1628 24.9147 29.1628 24.9032C29.1628 24.8916 29.1686 24.8813 29.1744 24.8813C29.1813 24.8813 29.1859 24.8709 29.1859 24.857C29.1859 24.8443 29.1917 24.8374 29.1975 24.8409C29.2044 24.8443 29.209 24.8374 29.209 24.8236C29.209 24.8097 29.2148 24.8028 29.2205 24.8062C29.2275 24.8097 29.2321 24.8028 29.2321 24.7901C29.2321 24.7774 29.2402 24.7601 29.2494 24.7497C29.2586 24.7405 29.2667 24.7232 29.2667 24.7116C29.2667 24.6943 29.269 24.6931 29.2782 24.7082C29.2875 24.722 29.2898 24.7185 29.2898 24.6931C29.2898 24.6747 29.2944 24.6631 29.3013 24.6678C29.3082 24.6712 29.3129 24.6643 29.3129 24.6516C29.3129 24.6378 29.3186 24.6274 29.3244 24.6274C29.3313 24.6274 29.3359 24.617 29.3359 24.6054C29.3359 24.5927 29.344 24.5754 29.3532 24.5651C29.3625 24.5558 29.3706 24.5397 29.3706 24.5293C29.3706 24.5189 29.3763 24.5143 29.3821 24.5177C29.389 24.5212 29.3936 24.5143 29.3936 24.5004C29.3936 24.4866 29.3994 24.4797 29.4052 24.4831C29.4121 24.4866 29.4167 24.4797 29.4167 24.467C29.4167 24.4531 29.4213 24.4427 29.4271 24.4427C29.4329 24.4427 29.441 24.4243 29.4444 24.4023C29.449 24.3804 29.4571 24.3619 29.4629 24.3619C29.4698 24.3619 29.4744 24.3539 29.4744 24.3446C29.4744 24.3354 29.4802 24.3273 29.486 24.3273C29.4929 24.3273 29.4975 24.3169 29.4975 24.3031C29.4975 24.2904 29.5033 24.2835 29.509 24.2869C29.516 24.2904 29.5206 24.2858 29.5206 24.2754C29.5206 24.265 29.5287 24.2488 29.5379 24.2396C29.5471 24.2292 29.5552 24.2119 29.5552 24.1992C29.5552 24.1877 29.561 24.1773 29.5667 24.1773C29.5737 24.1773 29.5783 24.1669 29.5783 24.1542C29.5783 24.1415 29.5841 24.1311 29.5898 24.1311C29.5968 24.1311 29.6014 24.1207 29.6014 24.1069C29.6014 24.0942 29.6071 24.0873 29.6129 24.0907C29.6198 24.0954 29.6245 24.085 29.6245 24.0688C29.6245 24.0527 29.6302 24.0388 29.6371 24.0388C29.6429 24.0388 29.6452 24.0342 29.6418 24.0273C29.6383 24.0203 29.6406 24.0157 29.6464 24.0157C29.6533 24.0157 29.6591 24.0053 29.6591 23.9926C29.6591 23.9799 29.6648 23.9696 29.6706 23.9696C29.6775 23.9696 29.6822 23.9557 29.6822 23.9372C29.6822 23.913 29.6845 23.9095 29.6937 23.9234C29.7018 23.9361 29.7052 23.9303 29.7052 23.9003C29.7052 23.8703 29.7087 23.8645 29.7168 23.8772C29.726 23.8911 29.7283 23.8876 29.7283 23.8634C29.7283 23.8461 29.7364 23.8253 29.7456 23.8149C29.756 23.8057 29.7641 23.7941 29.7629 23.7907C29.7606 23.7549 29.7652 23.7388 29.7745 23.7445C29.7814 23.7491 29.786 23.7388 29.786 23.7214C29.786 23.7041 29.7906 23.6937 29.7976 23.6984C29.8045 23.703 29.8091 23.6926 29.8091 23.6753C29.8091 23.658 29.8137 23.6476 29.8206 23.6522C29.8276 23.6557 29.8322 23.6464 29.8322 23.6303C29.8322 23.6153 29.8403 23.5945 29.8495 23.5841C29.8587 23.5749 29.8668 23.5564 29.8668 23.5437C29.8668 23.5299 29.8726 23.5195 29.8783 23.5195C29.8853 23.5195 29.8899 23.5056 29.8899 23.4895C29.8899 23.4733 29.8945 23.4629 29.9014 23.4676C29.9083 23.4722 29.913 23.4618 29.913 23.4445C29.913 23.4283 29.9176 23.4168 29.9234 23.4202C29.9291 23.4237 29.936 23.4064 29.9407 23.381C29.9441 23.3556 29.9534 23.3348 29.9591 23.3348C29.966 23.3348 29.9707 23.321 29.9707 23.3048C29.9707 23.2887 29.9753 23.2783 29.9822 23.2829C29.9891 23.2875 29.9937 23.2748 29.9937 23.2541C29.9937 23.2333 29.9984 23.2206 30.0053 23.2252C30.0122 23.2298 30.0168 23.2171 30.0168 23.1963C30.0168 23.1767 30.0214 23.1629 30.0272 23.1663C30.033 23.1698 30.0399 23.1525 30.0445 23.1271C30.048 23.1017 30.0572 23.0809 30.063 23.0809C30.0699 23.0809 30.0745 23.0648 30.0745 23.0452C30.0745 23.0255 30.0791 23.0129 30.0861 23.0175C30.093 23.0221 30.0976 23.0094 30.0976 22.9863C30.0976 22.9575 30.1011 22.9528 30.1092 22.9655C30.1133 22.972 30.1162 22.974 30.118 22.9706M29.2445 12.3353C29.2391 12.3411 29.233 12.3478 29.2263 12.3552C29.1905 12.3956 29.1397 12.4383 29.1086 12.4533C29.0578 12.4775 29.0382 12.481 28.8916 12.4799C28.7197 12.4799 28.6827 12.4741 28.3446 12.3875C28.0492 12.3114 27.913 12.2894 27.7434 12.2894C27.606 12.2894 27.5772 12.2929 27.5022 12.3183C27.3694 12.3633 27.2863 12.4429 27.2344 12.5756C27.2113 12.6356 27.2079 12.6633 27.2079 12.8272C27.2067 12.9634 27.2125 13.0396 27.2286 13.1157C27.2552 13.2484 27.3198 13.477 27.3429 13.5208C27.3729 13.5797 27.456 13.6512 27.5241 13.6766C27.6049 13.7078 27.7826 13.7101 27.8934 13.6824C28.0619 13.6397 28.2684 13.5381 28.3619 13.4539C28.4323 13.3892 28.4808 13.3719 28.5685 13.3823C28.8212 13.4135 29.1051 13.5704 29.3544 13.8197C29.4917 13.957 29.5621 14.0447 29.6498 14.1878C29.7352 14.3298 29.7537 14.3886 29.7491 14.5121C29.7456 14.6033 29.741 14.6252 29.7075 14.6899C29.6175 14.863 29.4825 14.9911 29.0832 15.2796C28.4208 15.7585 28.1519 16.0159 27.9384 16.3736C27.8322 16.5525 27.778 16.6263 27.6949 16.706C27.6106 16.7868 27.5575 16.8214 27.4606 16.8618C27.4006 16.886 27.3729 16.8895 27.2529 16.8895C27.0728 16.8895 26.9932 16.8652 26.7509 16.7394C26.6632 16.6933 26.4393 16.5375 26.3193 16.4394C26.2627 16.3932 25.9511 16.1301 25.8969 16.0839C25.8807 16.0701 25.8426 16.0378 25.8103 16.0124C25.5749 15.8266 25.3199 15.5589 25.111 15.2796C24.9032 15.0003 24.8721 14.9553 24.6043 14.5525C24.4255 14.2848 24.3181 14.1278 24.1831 13.9409C24.171 13.9244 24.1348 13.8712 24.0995 13.8193L24.0942 13.8116C23.9465 13.5889 23.8577 13.5035 23.7757 13.5023C23.6984 13.5023 23.5853 13.5889 23.5645 13.6674C23.5415 13.7551 23.5888 13.964 23.6926 14.2225C23.7965 14.4833 23.8657 14.6322 24.1173 15.1295C24.2339 15.3615 24.3343 15.5554 24.3389 15.5623C24.3435 15.5681 24.3828 15.6408 24.4255 15.7239C24.4456 15.7625 24.4686 15.8061 24.4896 15.846C24.5132 15.8907 24.5344 15.9309 24.5466 15.9547C24.6782 16.2005 24.8328 16.504 24.8755 16.601C24.9875 16.8549 25.0383 16.9114 25.2645 17.0383C25.4526 17.1434 25.8207 17.2403 26.1912 17.2818C26.4577 17.3119 26.5916 17.3488 26.7589 17.44C27.0163 17.5807 27.1432 17.7735 27.1456 18.0262C27.1456 18.1289 27.1259 18.1982 27.0648 18.3136C27.0255 18.3886 26.8997 18.5755 26.8582 18.6205C26.8467 18.6332 26.812 18.6748 26.7809 18.7129C26.7497 18.751 26.6147 18.8929 26.4808 19.0279C26.2789 19.2322 26.16 19.3464 25.8322 19.6476C25.8294 19.65 25.8195 19.659 25.8052 19.6721C25.7847 19.6908 25.755 19.7179 25.7238 19.7457C25.6925 19.7736 25.6629 19.8006 25.6424 19.8194C25.628 19.8324 25.6181 19.8415 25.6153 19.8438C25.6126 19.8466 25.5959 19.8618 25.5698 19.8857C25.5294 19.9227 25.4664 19.9803 25.3983 20.0435C25.1006 20.317 25.0267 20.4047 24.9898 20.5305C24.9679 20.6055 24.9644 20.9656 24.9852 21.1225C24.9921 21.1745 25.0025 21.2587 25.0083 21.3095C25.0198 21.4064 25.0602 21.6903 25.0775 21.8C25.1514 22.2604 25.1814 22.4901 25.1814 22.6055C25.1814 22.7451 25.1641 22.7913 25.0567 22.9332C24.9679 23.0498 24.8952 23.1236 24.662 23.3383C24.4047 23.5737 24.1231 23.8553 24.0758 23.9257C24.0031 24.0319 23.9823 24.0873 23.9696 24.2073C23.9535 24.3504 23.9119 24.5143 23.8657 24.6216C23.86 24.6343 23.8392 24.6839 23.8196 24.7312C23.7827 24.8166 23.6592 25.0682 23.6153 25.1467C23.3949 25.5345 22.9483 26.1923 22.6713 26.5373C22.3886 26.8882 22.2051 27.0278 21.9143 27.112C21.6673 27.1836 21.5657 27.194 21.1191 27.1951H20.7325L20.6644 27.1605C20.5236 27.089 20.4336 26.932 20.369 26.6458C20.3344 26.49 20.3263 26.4531 20.3124 26.3815C20.3102 26.3713 20.3073 26.3575 20.3038 26.3413C20.2873 26.2648 20.2592 26.1337 20.242 26.0584C20.2393 26.0481 20.2346 26.0288 20.2288 26.0056C20.2224 25.9796 20.2147 25.9486 20.2074 25.9199C20.182 25.8195 20.1347 25.6245 20.092 25.441C19.9916 25.0151 19.9131 24.7462 19.815 24.5016C19.7192 24.2592 19.6246 24.0988 19.4861 23.9407C19.3176 23.7491 19.2726 23.6534 19.2126 23.3637C19.1942 23.2714 19.1942 22.7878 19.2126 22.6366L19.2139 22.6271C19.2278 22.5207 19.2321 22.4882 19.2669 22.2673C19.2721 22.2339 19.2759 22.2099 19.2799 22.186C19.2909 22.1208 19.3039 22.0558 19.3546 21.8C19.4169 21.4837 19.433 21.3672 19.4342 21.2218C19.4342 21.0464 19.3984 20.8109 19.3407 20.5997C19.298 20.4497 19.1838 20.1162 19.1388 20.0135C19.1284 19.9904 19.1157 19.9604 19.1111 19.9477C19.1018 19.9246 18.938 19.5311 18.9068 19.4572C18.8376 19.2945 18.7464 19.1306 18.6806 19.0533C18.5525 18.901 18.3609 18.7798 18.1694 18.7313C17.8866 18.6586 17.5831 18.669 17.0915 18.766C17.0626 18.7717 16.9876 18.781 16.9241 18.7879C16.8405 18.7953 16.7599 18.8042 16.5515 18.8273C16.501 18.8329 16.4432 18.8393 16.376 18.8467C15.6674 18.9252 15.0327 18.9552 14.6887 18.9275C14.346 18.8998 14.2871 18.8767 13.9871 18.6575C13.6351 18.399 13.4932 18.1589 13.4054 17.6742C13.3685 17.4711 13.3581 17.3015 13.3581 16.9126C13.3581 16.4844 13.3743 16.2501 13.4228 15.9662C13.4678 15.7043 13.5601 15.3615 13.6443 15.1353C13.6511 15.1188 13.6622 15.0877 13.6739 15.055C13.6802 15.0373 13.6867 15.0192 13.6928 15.0026C13.6984 14.9874 13.7039 14.972 13.7091 14.9577C13.72 14.9273 13.7293 14.9016 13.7332 14.893C13.7436 14.8687 13.8925 14.4752 13.9294 14.3736C13.9675 14.2721 14.0298 14.0886 14.0725 13.957C14.2398 13.4366 14.4833 13.1457 15.0257 12.8191C15.073 12.7903 15.2369 12.698 15.3893 12.6137C15.5416 12.5295 15.6882 12.4452 15.7147 12.4268C15.7412 12.4095 15.7655 12.3945 15.7701 12.3945C15.7828 12.3945 15.9028 12.3148 16.1278 12.1579C16.3794 11.9825 16.5006 11.9155 16.6668 11.8601C16.9738 11.7574 17.238 11.7459 17.6743 11.8163C17.7551 11.829 18.092 11.8936 18.159 11.9098C18.2063 11.9201 18.2871 11.9351 18.414 11.9559C18.4521 11.9628 18.5975 11.9755 18.7372 11.9848C18.8768 11.994 19.0211 12.009 19.0568 12.0182C19.1676 12.0471 19.2819 12.1152 19.3719 12.204C19.4757 12.3056 19.5208 12.376 19.6639 12.6576C19.8589 13.0384 19.9108 13.0846 20.2074 13.1388C20.4821 13.1896 20.5709 13.1827 20.8202 13.0961L20.9979 13.0349L21.1537 13.0361C21.2472 13.0373 21.3776 13.0476 21.4826 13.0626C21.9304 13.1296 22.0908 13.1446 22.3389 13.1446C22.9079 13.1446 23.343 12.9899 23.7226 12.6518C23.9361 12.4614 24.16 12.1775 24.2443 11.9905C24.3077 11.8497 24.3216 11.7886 24.3204 11.6386C24.3193 11.5174 24.3158 11.4897 24.2881 11.4147C24.2085 11.2035 24.1069 11.0673 23.7192 10.6634C23.4214 10.3529 23.366 10.2941 23.2945 10.2075C23.186 10.0771 23.1675 10.0575 23.0695 9.95825C22.9471 9.83477 22.894 9.80477 22.7925 9.80361C22.6932 9.80361 22.6632 9.81977 22.4901 9.96749C22.2443 10.1775 22.1428 10.2352 21.92 10.2929C21.8496 10.3114 21.5669 10.3091 21.4653 10.2883C21.2461 10.2445 21.0926 10.1937 20.8306 10.0783C20.4936 9.92825 20.4071 9.89363 20.1843 9.82092C19.8912 9.72514 19.7954 9.70552 19.6142 9.70552C19.3165 9.70552 19.1976 9.78745 18.8883 10.2018C18.5329 10.6795 18.3517 10.8515 18.047 11.005C17.6662 11.1965 17.2138 11.3039 16.6691 11.3327C16.346 11.35 15.9501 11.327 15.7528 11.2808C15.7413 11.2775 15.72 11.2725 15.6983 11.2674C15.6894 11.2653 15.6804 11.2632 15.672 11.2612C15.5797 11.2392 15.4481 11.1931 15.3812 11.1573C15.1157 11.0165 15.0846 10.7188 15.2912 10.2941C15.3616 10.1487 15.4631 10.0067 15.597 9.86939C15.8059 9.65243 16.0032 9.54395 16.1867 9.54395C16.2433 9.54395 16.3714 9.52203 16.4417 9.5001C16.5329 9.47125 16.6276 9.40893 16.7233 9.31314C16.8076 9.23005 16.8307 9.19774 16.8757 9.10541C16.9599 8.93115 16.9772 8.85383 16.9842 8.63225C16.9888 8.46838 16.9853 8.42337 16.9634 8.30912C16.9057 8.00907 16.9288 7.73325 17.0465 7.32241C17.0473 7.31954 17.0484 7.31575 17.0498 7.31121C17.0576 7.28468 17.0731 7.2322 17.0869 7.18392C17.1492 6.96696 17.2634 6.63806 17.3858 6.31838C17.4018 6.27725 17.4171 6.23759 17.4293 6.20572M29.2445 12.3353C30.3122 14.1665 30.9238 16.2954 30.9238 18.5669C30.9238 18.8819 30.912 19.1942 30.8889 19.5033C30.8851 19.5105 30.8831 19.5371 30.8825 19.5846C30.8779 19.6417 30.8729 19.6987 30.8675 19.7556C30.8645 19.7734 30.8612 19.8065 30.8583 19.8478C30.8493 19.9351 30.8395 20.0222 30.8287 20.109C30.828 20.1132 30.8274 20.1179 30.8269 20.123C30.8217 20.1646 30.8163 20.2061 30.8107 20.2476C30.8059 20.2505 30.8025 20.273 30.8018 20.312C30.7975 20.342 30.7932 20.3719 30.7888 20.4018C30.7816 20.3928 30.7785 20.4109 30.7785 20.4589C30.7785 20.4629 30.7785 20.4667 30.7784 20.4703C30.7756 20.4885 30.7727 20.5067 30.7698 20.5249C30.7689 20.5255 30.768 20.5254 30.767 20.5247C30.76 20.5201 30.7554 20.5351 30.7554 20.5617C30.7554 20.583 30.7545 20.6062 30.7529 20.6289C30.7459 20.6708 30.7386 20.7126 30.7312 20.7544C30.7255 20.751 30.7209 20.7768 30.7208 20.8118C30.7172 20.8316 30.7135 20.8515 30.7098 20.8712C30.7096 20.8712 30.7094 20.8711 30.7093 20.8709C30.7023 20.8663 30.6977 20.8894 30.6977 20.931C30.6977 20.9321 30.6977 20.9333 30.6977 20.9344C30.6946 20.9507 30.6914 20.967 30.6882 20.9832C30.6875 20.9826 30.6869 20.9817 30.6862 20.9806C30.6781 20.9679 30.6746 20.984 30.6746 21.0325C30.6746 21.0397 30.6745 21.0461 30.6744 21.0519C30.6719 21.064 30.6694 21.0761 30.6669 21.0883C30.6661 21.0879 30.6652 21.087 30.6643 21.0856C30.6573 21.0752 30.6516 21.1041 30.6458 21.1687C30.6446 21.1823 30.6433 21.1951 30.6418 21.2066C30.6379 21.2248 30.6339 21.2429 30.6299 21.261C30.629 21.2622 30.6281 21.2627 30.6273 21.2622C30.6215 21.2587 30.6169 21.2806 30.6169 21.3095C30.6169 21.313 30.6169 21.3163 30.6168 21.3195C30.614 21.3317 30.6112 21.344 30.6084 21.3562C30.6074 21.3565 30.6064 21.3563 30.6054 21.3556C30.5985 21.351 30.5939 21.3672 30.5939 21.3949C30.5939 21.4214 30.5892 21.4422 30.5823 21.4422C30.5765 21.4422 30.5708 21.463 30.5708 21.4884C30.5708 21.5137 30.5662 21.5345 30.5604 21.5345C30.5535 21.5345 30.5454 21.5714 30.5408 21.6165C30.5396 21.6294 30.5383 21.6407 30.5369 21.6501C30.5341 21.6611 30.5313 21.6721 30.5284 21.6831C30.5267 21.6853 30.525 21.6851 30.5235 21.6822C30.5165 21.673 30.5131 21.6892 30.5131 21.7249C30.5131 21.7317 30.513 21.7376 30.5128 21.7428C30.5104 21.7518 30.508 21.7609 30.5056 21.7699C30.5044 21.7692 30.503 21.7677 30.5015 21.7653C30.4934 21.7526 30.49 21.7619 30.49 21.7976C30.49 21.8276 30.4854 21.845 30.4784 21.8403C30.4715 21.8357 30.4669 21.8519 30.4669 21.8796C30.4669 21.9038 30.4611 21.9269 30.4554 21.9292C30.4484 21.9315 30.4392 21.9627 30.4357 21.9996C30.4311 22.0423 30.4254 22.0619 30.4196 22.0515C30.4127 22.0423 30.4092 22.055 30.4092 22.0862C30.4092 22.1162 30.4046 22.1335 30.3977 22.1289C30.3907 22.1242 30.3861 22.1369 30.3861 22.1566C30.3861 22.1762 30.3815 22.1923 30.3757 22.1923C30.3711 22.1923 30.363 22.2166 30.3596 22.2466C30.3561 22.2766 30.348 22.3031 30.3411 22.3054C30.3342 22.3077 30.3284 22.325 30.3284 22.3435C30.3284 22.362 30.3238 22.377 30.3169 22.377C30.3111 22.377 30.3053 22.3954 30.3053 22.4185C30.3053 22.4428 30.3007 22.4566 30.2938 22.452C30.2869 22.4474 30.2823 22.4612 30.2823 22.4866C30.2823 22.5097 30.2776 22.5258 30.2719 22.5224C30.2661 22.5189 30.2592 22.5374 30.2557 22.5639C30.2523 22.5916 30.243 22.6147 30.2373 22.617C30.2303 22.6193 30.2246 22.6366 30.2246 22.6551C30.2246 22.6759 30.2199 22.6874 30.213 22.6828C30.2061 22.6782 30.2015 22.6909 30.2015 22.7105C30.2015 22.7301 30.1969 22.7463 30.1899 22.7463C30.1842 22.7463 30.1784 22.7624 30.1784 22.782C30.1784 22.8005 30.1738 22.8144 30.168 22.8109C30.1622 22.8074 30.1542 22.8271 30.1507 22.8559C30.1461 22.8848 30.138 22.9078 30.1311 22.9078C30.1253 22.9078 30.1207 22.9251 30.1207 22.9448C30.1207 22.9562 30.1201 22.9638 30.119 22.9681" fill="#0069CA"/>
<path d="M55.149 15.443C53.5151 15.443 52.1654 16.106 51.384 17.2426V10.8255H49.3476V27.33H51.384V22.1916C51.384 18.9238 52.4969 17.2426 54.6044 17.2426C56.2619 17.2426 57.0196 18.2845 57.0196 20.5577V27.33H59.0561V20.0604C59.0561 17.0532 57.6827 15.443 55.149 15.443ZM66.9745 15.443C64.9381 15.443 63.3516 16.2244 62.0493 17.8819L63.5174 19.1133C64.4409 17.8819 65.5538 17.2426 66.9272 17.2426C68.7031 17.2426 69.6977 18.2371 69.6977 20.0368V20.5103H67.1166C65.1512 20.5103 63.991 20.6998 63.1148 21.1734C62.1677 21.6943 61.6467 22.6415 61.6467 23.8728C61.6467 26.1223 63.2332 27.5431 65.7432 27.5431C67.4955 27.5431 68.8926 26.8327 69.7213 25.5777L69.8634 27.33H71.7341V20.0368C71.7341 17.1479 69.9581 15.443 66.9745 15.443ZM66.2168 25.8382C64.654 25.8382 63.6831 25.1041 63.6831 23.9675C63.6831 23.3755 63.8962 22.9256 64.2751 22.6178C64.7724 22.2389 65.5775 22.0968 67.3534 22.0968H69.6977V22.2152C69.6977 24.3701 68.2769 25.8382 66.2168 25.8382ZM79.7904 27.5431C81.9689 27.5431 83.6975 26.3591 84.4789 24.228L82.6082 23.5176C82.2057 24.9147 81.1401 25.7434 79.7667 25.7434C77.4461 25.7434 76.4516 23.7307 76.4516 21.5285C76.4516 19.3264 77.4461 17.2426 79.7667 17.2426C81.1164 17.2426 82.182 18.0951 82.6556 19.5158L84.5973 18.7344C83.6738 16.5085 81.9215 15.443 79.7667 15.443C76.1438 15.443 74.3678 18.4502 74.3678 21.5285C74.3678 24.7252 76.2622 27.5431 79.7904 27.5431ZM87.2714 27.33H89.3078V23.8965L91.6994 21.3391L95.5591 27.33H97.9744L93.0964 20.0841L97.3587 15.6561H94.6356L89.3078 21.3628V10.8255H87.2714V27.33ZM108.722 21.4575V10.8255H106.875L98.5876 22.1442V23.4229H106.686V27.33H108.722V23.4229H111.374V21.4575H108.722ZM101.24 21.4575L106.686 13.8091V21.4575H101.24ZM113.653 13.3118H115.927V10.8255H113.653V13.3118ZM113.772 27.33H115.808V15.6561H113.772V27.33ZM132.168 15.443C130.487 15.443 129.161 16.1297 128.356 17.7162C127.717 16.0823 126.438 15.443 124.922 15.443C123.667 15.443 122.483 15.8929 121.749 17.1005V15.6561H119.76L119.784 27.33H121.82V22.0968C121.82 19.5632 122.223 17.2426 124.544 17.2426C126.509 17.2426 126.959 19.0422 126.959 20.6287V27.33H128.995V22.0968C128.995 19.5632 129.374 17.2426 131.766 17.2426C134.086 17.2426 134.134 19.6105 134.134 20.5814V27.33H136.17V19.9894C136.17 17.3847 134.962 15.443 132.168 15.443ZM145.586 15.443C144.071 15.443 142.745 15.9876 141.892 17.1005V15.6561H139.856V32.1605H141.892V25.8618C142.674 26.9037 144.023 27.5431 145.586 27.5431C148.83 27.5431 150.701 25.0804 150.701 21.4812C150.701 17.8819 148.807 15.443 145.586 15.443ZM145.207 25.7434C142.887 25.7434 141.727 23.9201 141.727 21.4812C141.727 18.9475 142.958 17.2189 145.207 17.2189C147.41 17.2189 148.665 18.8765 148.665 21.4812C148.665 24.0149 147.481 25.7434 145.207 25.7434ZM157.968 15.443C155.932 15.443 154.346 16.2244 153.043 17.8819L154.511 19.1133C155.435 17.8819 156.548 17.2426 157.921 17.2426C159.697 17.2426 160.692 18.2371 160.692 20.0368V20.5103H158.111C156.145 20.5103 154.985 20.6998 154.109 21.1734C153.162 21.6943 152.641 22.6415 152.641 23.8728C152.641 26.1223 154.227 27.5431 156.737 27.5431C158.489 27.5431 159.887 26.8327 160.715 25.5777L160.857 27.33H162.728V20.0368C162.728 17.1479 160.952 15.443 157.968 15.443ZM157.211 25.8382C155.648 25.8382 154.677 25.1041 154.677 23.9675C154.677 23.3755 154.89 22.9256 155.269 22.6178C155.766 22.2389 156.571 22.0968 158.347 22.0968H160.692V22.2152C160.692 24.3701 159.271 25.8382 157.211 25.8382ZM170.784 27.5431C172.963 27.5431 174.691 26.3591 175.473 24.228L173.602 23.5176C173.2 24.9147 172.134 25.7434 170.761 25.7434C168.44 25.7434 167.446 23.7307 167.446 21.5285C167.446 19.3264 168.44 17.2426 170.761 17.2426C172.11 17.2426 173.176 18.0951 173.65 19.5158L175.591 18.7344C174.668 16.5085 172.915 15.443 170.761 15.443C167.138 15.443 165.362 18.4502 165.362 21.5285C165.362 24.7252 167.256 27.5431 170.784 27.5431ZM183.569 17.3136V15.6561H180.704V11.3701L178.668 12.8856V15.6561H176.75V17.3136H178.668V24.4174C178.668 26.6196 179.994 27.5431 181.675 27.5431C182.291 27.5431 182.93 27.4247 183.569 27.2116V25.483C183.049 25.6487 182.575 25.7434 182.172 25.7434C181.249 25.7434 180.704 25.2699 180.704 24.2043V17.3136H183.569Z" fill="#657788"/>
</svg>
