<svg width="442" height="265" viewBox="0 0 442 265" fill="none" xmlns="http://www.w3.org/2000/svg">
<g clip-path="url(#clip0)">
<path d="M338.406 262.003C332.747 257.208 329.31 249.633 330.211 242.259C331.112 234.885 336.695 228.106 343.937 226.54C351.18 224.974 359.435 229.309 361.635 236.403C362.845 222.725 364.24 208.475 371.492 196.827C378.058 186.28 389.43 178.733 401.755 177.383C414.081 176.033 427.057 181.132 434.744 190.888C442.431 200.643 444.313 214.826 438.929 226.026C434.963 234.277 427.657 240.417 420.001 245.413C395.264 261.419 365.594 267.928 336.451 263.742L338.406 262.003Z" fill="#80D2C8"/>
<path d="M422.556 181.414C412.386 189.721 403.057 199.012 394.702 209.152C381.627 224.966 371.046 242.697 363.329 261.727C362.764 263.115 365.012 263.719 365.571 262.347C378.197 231.419 398.355 204.16 424.2 183.063C425.361 182.115 423.707 180.474 422.556 181.414Z" fill="white"/>
<path d="M142.287 260.7C150.059 254.114 154.78 243.71 153.542 233.581C152.304 223.453 144.636 214.142 134.689 211.991C124.742 209.84 113.403 215.794 110.382 225.538C108.719 206.752 106.803 187.178 96.8432 171.18C87.8247 156.694 72.2047 146.329 55.276 144.474C38.3473 142.62 20.5236 149.624 9.96586 163.023C-0.591922 176.422 -3.17695 195.902 4.21744 211.286C9.66464 222.618 19.7003 231.052 30.2151 237.913C63.7612 259.803 105.375 268.933 144.971 263.089" fill="#80D2C8"/>
<path d="M26.7062 150.012C40.6744 161.422 53.4888 174.182 64.964 188.109C76.441 202.022 86.5452 217.019 95.1348 232.888C99.936 241.79 104.249 250.948 108.055 260.321C108.831 262.228 105.743 263.058 104.976 261.173C98.2351 244.647 89.8956 228.824 80.0769 213.93C70.3059 199.09 59.1225 185.236 46.6837 172.561C39.6482 165.396 32.2253 158.624 24.4484 152.276C22.8544 150.975 25.1253 148.721 26.7061 150.012L26.7062 150.012Z" fill="white"/>
<path d="M317.275 264.42H131.838V73.6198C131.838 33.0256 164.771 0 205.251 0H243.862C284.342 0 317.275 33.0256 317.275 73.6198V264.42Z" fill="#F2F2F2"/>
<path d="M278.663 264.42H131.838V73.6197C131.797 58.0649 136.709 42.9033 145.858 30.3422C146.195 29.8813 146.531 29.4263 146.878 28.9762C151.303 23.156 156.57 18.0302 162.503 13.768C162.838 13.5234 163.174 13.2831 163.516 13.0428C168.481 9.59743 173.851 6.78088 179.505 4.6573C179.841 4.52968 180.183 4.40181 180.525 4.27916C185.638 2.44915 190.939 1.1956 196.329 0.541661C196.663 0.495884 197.006 0.460063 197.349 0.424242C202.602 -0.138973 207.9 -0.138973 213.152 0.424242C213.495 0.460063 213.838 0.49588 214.176 0.542151C219.564 1.19614 224.864 2.44953 229.976 4.27919C230.318 4.40183 230.66 4.5297 230.997 4.65757C236.581 6.75436 241.888 9.52888 246.8 12.9192C247.141 13.1543 247.483 13.3946 247.82 13.6349C251.145 16.0156 254.269 18.6678 257.159 21.5644C259.477 23.8879 261.637 26.3646 263.624 28.9778C263.97 29.4263 264.306 29.8813 264.643 30.3415C273.792 42.9027 278.704 58.0646 278.663 73.6197V264.42Z" fill="#CCCCCC"/>
<path d="M266.724 179.082C271.214 179.082 274.853 175.432 274.853 170.93C274.853 166.428 271.214 162.779 266.724 162.779C262.235 162.779 258.595 166.428 258.595 170.93C258.595 175.432 262.235 179.082 266.724 179.082Z" fill="#0069CA"/>
<path d="M302.084 258.705H295.855L292.892 234.613L302.085 234.613L302.084 258.705Z" fill="#FFB8B8"/>
<path d="M291.406 256.92H303.418V264.505H283.843C283.843 263.509 284.038 262.523 284.419 261.603C284.799 260.682 285.356 259.846 286.058 259.142C286.76 258.438 287.594 257.879 288.512 257.498C289.429 257.117 290.413 256.92 291.406 256.92Z" fill="#2F2E41"/>
<path d="M333.075 258.705H326.846L323.882 234.613L333.076 234.613L333.075 258.705Z" fill="#FFB8B8"/>
<path d="M322.397 256.92H334.409V264.505H314.834C314.834 263.509 315.029 262.523 315.409 261.603C315.789 260.682 316.347 259.846 317.049 259.142C317.751 258.438 318.585 257.879 319.503 257.498C320.42 257.117 321.404 256.92 322.397 256.92Z" fill="#2F2E41"/>
<path d="M270.838 172.545C270.39 171.883 270.092 171.131 269.965 170.341C269.839 169.551 269.886 168.742 270.105 167.973C270.323 167.203 270.707 166.491 271.23 165.887C271.752 165.282 272.401 164.8 273.13 164.474L294.303 105.951L304.721 111.653L280.546 167.579C281.011 168.843 280.998 170.234 280.509 171.488C280.019 172.743 279.088 173.774 277.892 174.386C276.695 174.998 275.316 175.149 274.016 174.81C272.716 174.471 271.585 173.665 270.838 172.545Z" fill="#FFB8B8"/>
<path d="M329.893 183.542C329.201 183.144 328.604 182.599 328.145 181.944C327.685 181.29 327.375 180.543 327.235 179.755C327.094 178.967 327.128 178.158 327.334 177.385C327.539 176.612 327.911 175.893 328.423 175.28L321.864 113.373L333.721 113.917L336.447 174.81C337.417 175.741 338.013 176.997 338.122 178.34C338.231 179.683 337.845 181.019 337.037 182.095C336.23 183.171 335.056 183.913 333.739 184.18C332.423 184.447 331.054 184.22 329.893 183.542Z" fill="#FFB8B8"/>
<path d="M310.978 95.1114C317.869 95.1114 323.456 89.509 323.456 82.5981C323.456 75.6871 317.869 70.0847 310.978 70.0847C304.086 70.0847 298.5 75.6871 298.5 82.5981C298.5 89.509 304.086 95.1114 310.978 95.1114Z" fill="#FFB8B8"/>
<path d="M329.813 169.463H292.194L292.239 169.169C292.307 168.73 298.944 125.13 294.049 110.866C293.557 109.465 293.601 107.93 294.17 106.559C294.739 105.187 295.794 104.075 297.132 103.436H297.132C304.129 100.132 317.559 96.0637 328.895 105.938C330.563 107.414 331.866 109.26 332.7 111.329C333.534 113.398 333.877 115.633 333.701 117.857L329.813 169.463Z" fill="#0069CA"/>
<path d="M299.419 131.573L282.483 128.127L290.421 109.262C290.897 107.434 292.075 105.871 293.698 104.913C295.321 103.956 297.257 103.684 299.08 104.156C300.903 104.628 302.466 105.806 303.424 107.431C304.382 109.057 304.659 110.997 304.192 112.827L299.419 131.573Z" fill="#0069CA"/>
<path d="M321.111 137.971L320.093 114.565C319.32 110.165 321.832 106.006 325.695 105.326C329.559 104.648 333.332 107.7 334.107 112.132L337.935 134.003L321.111 137.971Z" fill="#0069CA"/>
<path d="M328.562 166.66C334.615 189.779 335.275 219.172 333.642 251.234L325.513 250.215L310.78 189.077L302.651 251.234L293.506 250.724C290.774 217.083 288.114 188.203 292.49 169.208L328.562 166.66Z" fill="#2F2E41"/>
<path d="M319.2 92.2687C316.872 94.7554 312.549 93.4205 312.245 90.0234C312.221 89.7596 312.223 89.4942 312.25 89.2308C312.407 87.726 313.274 86.3598 313.066 84.771C313.019 84.3755 312.872 83.9987 312.639 83.6762C310.784 81.1851 306.43 84.7903 304.679 82.5353C303.606 81.1526 304.868 78.9755 304.044 77.43C302.957 75.3903 299.736 76.3965 297.717 75.2794C295.47 74.0366 295.604 70.5794 297.083 68.4765C298.887 65.912 302.05 64.5436 305.173 64.3464C308.296 64.1491 311.398 64.9958 314.314 66.1354C317.627 67.4301 320.912 69.2195 322.951 72.1409C325.43 75.6936 325.669 80.4698 324.429 84.624C323.675 87.1511 321.101 90.2381 319.2 92.2687Z" fill="#2F2E41"/>
<path d="M426.749 264.748H51.6619C51.5017 264.747 51.3483 264.683 51.2352 264.569C51.1222 264.456 51.0587 264.302 51.0587 264.141C51.0587 263.98 51.1222 263.826 51.2352 263.713C51.3483 263.599 51.5017 263.535 51.6619 263.534H426.749C426.909 263.535 427.063 263.599 427.176 263.713C427.289 263.826 427.352 263.98 427.352 264.141C427.352 264.302 427.289 264.456 427.176 264.569C427.063 264.683 426.909 264.747 426.749 264.748Z" fill="#3F3D56"/>
<path d="M238.274 209.141H172.228C171.358 209.146 170.522 208.804 169.903 208.192C169.283 207.579 168.932 206.745 168.925 205.873V58.0373C168.932 57.1651 169.283 56.3311 169.903 55.7184C170.522 55.1056 171.358 54.7642 172.228 54.7688H238.274C239.143 54.7642 239.98 55.1056 240.599 55.7184C241.218 56.3311 241.569 57.1651 241.576 58.0373V205.873C241.569 206.745 241.218 207.579 240.599 208.192C239.98 208.804 239.143 209.146 238.274 209.141Z" fill="white"/>
<path d="M241.576 102.604H168.925V103.623H241.576V102.604Z" fill="#CCCCCC"/>
<path d="M241.83 160.741H169.179V161.76H241.83V160.741Z" fill="#CCCCCC"/>
<path d="M192.803 54.7689H191.787V209.651H192.803V54.7689Z" fill="#CCCCCC"/>
<path d="M218.206 54.7689H217.19V209.651H218.206V54.7689Z" fill="#CCCCCC"/>
</g>
<defs>
<clipPath id="clip0">
<rect width="442" height="265" fill="white"/>
</clipPath>
</defs>
</svg>
