<svg width="220" height="159" viewBox="0 0 220 159" fill="none" xmlns="http://www.w3.org/2000/svg">
<g clip-path="url(#clip0)">
<path d="M182.959 123.256L109.754 89.8406L147.449 7.28125L220.654 40.6968L182.959 123.256Z" fill="#F2F2F2"/>
<path d="M194.111 75.2945L138.693 49.998C138.588 49.9504 138.507 49.8632 138.467 49.7557C138.427 49.6482 138.431 49.5292 138.479 49.4248C138.526 49.3205 138.614 49.2393 138.721 49.1992C138.829 49.1591 138.948 49.1633 139.052 49.2109L194.47 74.5075C194.575 74.5551 194.656 74.6423 194.696 74.7498C194.736 74.8572 194.732 74.9763 194.684 75.0806C194.637 75.185 194.55 75.2662 194.442 75.3063C194.335 75.3464 194.215 75.3422 194.111 75.2945Z" fill="white"/>
<path d="M197.193 68.5445L141.774 43.248C141.723 43.2244 141.676 43.1909 141.637 43.1493C141.599 43.1077 141.569 43.0589 141.549 43.0057C141.529 42.9525 141.52 42.8959 141.522 42.8391C141.524 42.7823 141.537 42.7265 141.56 42.6748C141.584 42.6231 141.618 42.5766 141.659 42.5379C141.701 42.4992 141.75 42.469 141.803 42.4492C141.856 42.4293 141.913 42.4201 141.969 42.4221C142.026 42.4242 142.082 42.4373 142.134 42.4609L197.552 67.7574C197.604 67.781 197.65 67.8146 197.689 67.8561C197.728 67.8977 197.758 67.9465 197.778 67.9997C197.798 68.0529 197.807 68.1096 197.805 68.1663C197.803 68.2231 197.79 68.2789 197.766 68.3306C197.742 68.3823 197.709 68.4288 197.667 68.4675C197.626 68.5062 197.577 68.5364 197.524 68.5563C197.47 68.5761 197.414 68.5853 197.357 68.5833C197.3 68.5813 197.244 68.5681 197.193 68.5445Z" fill="white"/>
<path d="M200.274 61.7945L144.856 36.498C144.804 36.4744 144.758 36.4409 144.719 36.3993C144.68 36.3577 144.65 36.3089 144.63 36.2557C144.61 36.2025 144.601 36.1459 144.603 36.0891C144.605 36.0323 144.619 35.9765 144.642 35.9248C144.666 35.8731 144.699 35.8266 144.741 35.7879C144.782 35.7492 144.831 35.719 144.884 35.6992C144.938 35.6793 144.994 35.6701 145.051 35.6721C145.108 35.6742 145.164 35.6873 145.215 35.7109L200.634 61.0075C200.738 61.0552 200.819 61.1424 200.859 61.2498C200.899 61.3572 200.895 61.476 200.847 61.5803C200.799 61.6845 200.712 61.7656 200.605 61.8058C200.498 61.846 200.379 61.8419 200.274 61.7945Z" fill="white"/>
<path d="M203.356 55.0465L147.938 29.75C147.886 29.7264 147.839 29.6928 147.801 29.6513C147.762 29.6097 147.732 29.5609 147.712 29.5077C147.692 29.4544 147.683 29.3978 147.685 29.341C147.687 29.2843 147.7 29.2285 147.724 29.1768C147.747 29.1251 147.781 29.0786 147.822 29.0399C147.864 29.0011 147.913 28.971 147.966 28.9511C148.019 28.9313 148.076 28.9221 148.133 28.9241C148.189 28.9261 148.245 28.9393 148.297 28.9629L203.715 54.2594C203.767 54.283 203.814 54.3165 203.852 54.3581C203.891 54.3997 203.921 54.4485 203.941 54.5017C203.961 54.5549 203.97 54.6115 203.968 54.6683C203.966 54.7251 203.953 54.7809 203.929 54.8326C203.906 54.8843 203.872 54.9308 203.831 54.9695C203.789 55.0082 203.74 55.0384 203.687 55.0582C203.634 55.0781 203.577 55.0873 203.52 55.0853C203.464 55.0832 203.408 55.07 203.356 55.0465Z" fill="white"/>
<path d="M191.326 81.3941L135.908 56.0976C135.856 56.074 135.81 56.0405 135.771 55.9989C135.732 55.9573 135.702 55.9085 135.682 55.8553C135.662 55.8021 135.653 55.7455 135.655 55.6887C135.657 55.6319 135.67 55.5761 135.694 55.5244C135.717 55.4728 135.751 55.4262 135.793 55.3875C135.834 55.3488 135.883 55.3186 135.936 55.2988C135.989 55.2789 136.046 55.2697 136.103 55.2718C136.16 55.2738 136.215 55.287 136.267 55.3106L191.686 80.6071C191.79 80.6547 191.871 80.7419 191.911 80.8494C191.951 80.9569 191.947 81.0759 191.899 81.1803C191.852 81.2846 191.765 81.3658 191.657 81.4059C191.55 81.446 191.431 81.4418 191.326 81.3941V81.3941Z" fill="white"/>
<path d="M200.58 45.1447L157.292 25.3849C157.048 25.28 156.851 25.0893 156.739 24.849C156.627 24.6086 156.607 24.3355 156.683 24.0814C156.73 23.9433 156.805 23.8166 156.903 23.7093C157.002 23.6021 157.122 23.5167 157.256 23.4588C157.39 23.4009 157.534 23.3717 157.68 23.3731C157.825 23.3745 157.969 23.4065 158.102 23.467L201.377 43.2208C201.626 43.3262 201.826 43.5197 201.94 43.764C202.054 44.0082 202.073 44.286 201.994 44.5437C201.946 44.68 201.87 44.8048 201.771 44.9102C201.673 45.0156 201.553 45.0992 201.42 45.1557C201.287 45.2123 201.143 45.2405 200.999 45.2386C200.854 45.2367 200.712 45.2047 200.58 45.1447Z" fill="white"/>
<path d="M34.0161 40.6968L107.221 7.28125L144.916 89.8406L71.7105 123.256L34.0161 40.6968Z" fill="#F2F2F2"/>
<path d="M60.5589 75.2945L115.977 49.998C116.029 49.9744 116.076 49.9409 116.114 49.8993C116.153 49.8577 116.183 49.8089 116.203 49.7557C116.223 49.7025 116.232 49.6459 116.23 49.5891C116.228 49.5323 116.215 49.4765 116.191 49.4248C116.168 49.3731 116.134 49.3266 116.093 49.2879C116.051 49.2492 116.002 49.219 115.949 49.1992C115.896 49.1793 115.839 49.1701 115.782 49.1721C115.726 49.1742 115.67 49.1874 115.618 49.2109L60.1996 74.5075C60.1479 74.531 60.1014 74.5646 60.0626 74.6062C60.0239 74.6477 59.9938 74.6965 59.9739 74.7497C59.954 74.803 59.9448 74.8596 59.9469 74.9164C59.9489 74.9731 59.9621 75.029 59.9857 75.0806C60.0093 75.1323 60.0428 75.1788 60.0844 75.2176C60.126 75.2563 60.1748 75.2864 60.228 75.3063C60.2812 75.3261 60.3378 75.3353 60.3946 75.3333C60.4514 75.3313 60.5072 75.3181 60.5589 75.2945Z" fill="white"/>
<path d="M57.4773 68.5445L112.896 43.248C113 43.2004 113.081 43.1132 113.121 43.0057C113.161 42.8982 113.157 42.7792 113.11 42.6748C113.062 42.5704 112.975 42.4893 112.867 42.4492C112.76 42.4091 112.641 42.4133 112.536 42.4609L57.1179 67.7574C57.0662 67.781 57.0197 67.8146 56.981 67.8561C56.9422 67.8977 56.9121 67.9465 56.8922 67.9997C56.8724 68.053 56.8632 68.1096 56.8652 68.1664C56.8672 68.2231 56.8804 68.2789 56.904 68.3306C56.9276 68.3823 56.9611 68.4288 57.0027 68.4676C57.0443 68.5063 57.0931 68.5364 57.1463 68.5563C57.1996 68.5761 57.2562 68.5853 57.313 68.5833C57.3697 68.5813 57.4256 68.5681 57.4773 68.5445H57.4773Z" fill="white"/>
<path d="M54.3957 61.7945L109.814 36.498C109.918 36.4504 110 36.3632 110.04 36.2557C110.08 36.1482 110.076 36.0292 110.028 35.9248C109.98 35.8204 109.893 35.7393 109.786 35.6992C109.678 35.6591 109.559 35.6633 109.455 35.7109L54.0363 61.0075C53.932 61.0552 53.851 61.1423 53.811 61.2498C53.7709 61.3572 53.7752 61.4762 53.8228 61.5805C53.8704 61.6847 53.9575 61.7659 54.0649 61.806C54.1723 61.8462 54.2913 61.842 54.3957 61.7945Z" fill="white"/>
<path d="M51.314 55.0465L106.732 29.75C106.784 29.7264 106.831 29.6928 106.869 29.6513C106.908 29.6097 106.938 29.5609 106.958 29.5077C106.978 29.4544 106.987 29.3978 106.985 29.341C106.983 29.2843 106.97 29.2285 106.946 29.1768C106.923 29.1251 106.889 29.0786 106.848 29.0399C106.806 29.0011 106.757 28.971 106.704 28.9511C106.651 28.9313 106.594 28.9221 106.537 28.9241C106.481 28.9261 106.425 28.9393 106.373 28.9629L50.9546 54.2594C50.8503 54.3071 50.7691 54.3942 50.729 54.5017C50.6888 54.6092 50.6931 54.7282 50.7407 54.8326C50.7884 54.937 50.8756 55.0181 50.9831 55.0582C51.0906 55.0983 51.2096 55.0941 51.314 55.0465H51.314Z" fill="white"/>
<path d="M63.3439 81.3941L118.762 56.0976C118.867 56.05 118.948 55.9628 118.988 55.8553C119.028 55.7478 119.024 55.6288 118.976 55.5244C118.929 55.4201 118.841 55.3389 118.734 55.2988C118.626 55.2587 118.507 55.2629 118.403 55.3106L62.9845 80.607C62.9329 80.6306 62.8863 80.6642 62.8476 80.7058C62.8089 80.7473 62.7787 80.7961 62.7589 80.8493C62.739 80.9026 62.7298 80.9592 62.7318 81.016C62.7339 81.0727 62.747 81.1286 62.7706 81.1802C62.7942 81.2319 62.8278 81.2784 62.8694 81.3172C62.9109 81.3559 62.9597 81.386 63.013 81.4059C63.0662 81.4257 63.1228 81.4349 63.1796 81.4329C63.2364 81.4309 63.2922 81.4177 63.3439 81.3941H63.3439Z" fill="white"/>
<path d="M54.0896 45.1447L97.3784 25.3849C97.622 25.28 97.8186 25.0893 97.9308 24.849C98.0429 24.6086 98.0628 24.3355 97.9867 24.0814C97.9402 23.9433 97.8651 23.8166 97.7665 23.7093C97.6678 23.6021 97.5478 23.5167 97.414 23.4588C97.2803 23.4009 97.1359 23.3717 96.9902 23.3731C96.8445 23.3745 96.7006 23.4065 96.5681 23.467L53.2924 43.2208C53.0444 43.3262 52.8441 43.5197 52.7303 43.764C52.6164 44.0082 52.5969 44.286 52.6756 44.5438C52.7237 44.6801 52.7996 44.8049 52.8985 44.9102C52.9974 45.0156 53.1172 45.0992 53.2502 45.1557C53.3832 45.2123 53.5266 45.2405 53.6711 45.2386C53.8156 45.2367 53.9581 45.2047 54.0896 45.1447Z" fill="white"/>
<path d="M7.31799 138.183C7.78018 131.024 11.7693 123.762 18.4101 121.047C16.171 128.52 16.6477 136.544 19.7558 143.699C20.9645 146.454 22.5957 149.393 21.7845 152.29C21.2797 154.092 19.8688 155.532 18.2521 156.476C16.6353 157.42 14.8092 157.933 13.0058 158.436L12.6639 158.755C9.37541 152.379 6.8558 145.342 7.31799 138.183Z" fill="#CCCCCC"/>
<path d="M18.4853 121.175C14.8005 125.832 12.6767 131.53 12.4156 137.462C12.3367 138.738 12.4595 140.019 12.7794 141.257C13.13 142.452 13.7944 143.532 14.7036 144.384C15.5354 145.196 16.4802 145.93 17.1002 146.929C17.41 147.446 17.6071 148.022 17.6786 148.62C17.7501 149.217 17.6945 149.824 17.5152 150.399C17.1058 151.842 16.202 153.053 15.2769 154.207C14.2499 155.487 13.1627 156.801 12.7911 158.44C12.7461 158.639 12.4405 158.557 12.4855 158.359C13.1321 155.507 15.7592 153.754 16.9073 151.152C17.443 149.938 17.616 148.555 16.9745 147.345C16.4135 146.287 15.4398 145.529 14.5905 144.715C13.6913 143.896 13.0062 142.87 12.5951 141.726C12.2132 140.509 12.0413 139.235 12.0867 137.96C12.1433 135.088 12.6512 132.242 13.5918 129.527C14.6482 126.423 16.2278 123.522 18.2624 120.951C18.3884 120.792 18.6105 121.017 18.4853 121.175V121.175Z" fill="white"/>
<path d="M12.3873 135.548C11.3978 135.369 10.5042 134.844 9.86604 134.067C9.22785 133.29 8.88662 132.312 8.90329 131.306C8.90434 131.266 8.92127 131.227 8.9505 131.198C8.97974 131.169 9.01899 131.153 9.06 131.152C9.10101 131.152 9.14057 131.168 9.17033 131.196C9.2001 131.224 9.21775 131.263 9.21956 131.304C9.20231 132.24 9.52026 133.151 10.116 133.873C10.7118 134.595 11.5461 135.081 12.4684 135.242C12.6688 135.277 12.5865 135.583 12.3873 135.548L12.3873 135.548Z" fill="white"/>
<path d="M14.2277 144.029C15.9269 142.873 17.1278 141.118 17.591 139.116C17.6368 138.918 17.9423 138.999 17.8966 139.197C17.4107 141.28 16.1572 143.103 14.3863 144.302C14.2175 144.416 14.0597 144.142 14.2277 144.029Z" fill="white"/>
<path d="M14.9588 126.706C15.3272 126.855 15.7268 126.91 16.1218 126.866C16.5168 126.823 16.8948 126.682 17.2218 126.456C17.3891 126.34 17.5467 126.614 17.3805 126.729C17.018 126.977 16.6004 127.132 16.1641 127.181C15.7278 127.231 15.2861 127.172 14.8776 127.011C14.8378 126.999 14.8041 126.973 14.7832 126.937C14.7624 126.901 14.756 126.858 14.7654 126.818C14.7763 126.778 14.8028 126.743 14.839 126.722C14.8752 126.701 14.9183 126.695 14.9588 126.706Z" fill="white"/>
<path d="M39.8235 132.512C39.7211 132.587 39.6186 132.663 39.5162 132.741C38.1445 133.765 36.8581 134.898 35.6698 136.129C35.5765 136.223 35.4832 136.319 35.3927 136.415C32.5616 139.413 30.3116 142.91 28.7572 146.729C28.14 148.249 27.6394 149.814 27.2598 151.41C26.7355 153.614 26.3425 156.046 25.1556 157.894C25.0339 158.088 24.9003 158.275 24.7556 158.452L13.0792 159.145C13.0519 159.133 13.0246 159.124 12.9971 159.112L12.5322 159.161C12.546 159.078 12.5621 158.991 12.576 158.908C12.5838 158.859 12.5942 158.81 12.602 158.762C12.6081 158.729 12.6142 158.697 12.6178 158.667C12.6198 158.656 12.6219 158.646 12.624 158.637C12.6276 158.608 12.6341 158.581 12.6379 158.554C12.7268 158.07 12.8192 157.586 12.9153 157.102C12.9151 157.099 12.9151 157.099 12.9176 157.096C13.6586 153.409 14.714 149.751 16.2912 146.37C16.3387 146.268 16.3858 146.164 16.4387 146.062C17.158 144.541 18.0004 143.082 18.9575 141.699C19.484 140.944 20.0484 140.215 20.6486 139.517C22.2028 137.715 24.0308 136.168 26.0656 134.935C30.1223 132.475 34.9205 131.341 39.4762 132.426C39.5928 132.453 39.7068 132.481 39.8235 132.512Z" fill="#CCCCCC"/>
<path d="M39.8061 132.663C34.0602 134.162 28.9329 137.434 25.1526 142.013C24.3213 142.984 23.6483 144.081 23.1584 145.262C22.7183 146.427 22.5985 147.69 22.8114 148.917C22.9868 150.066 23.2994 151.221 23.1925 152.392C23.1289 152.991 22.9395 153.569 22.6366 154.09C22.3337 154.61 21.9241 155.061 21.4349 155.412C20.2386 156.318 18.7878 156.741 17.3547 157.105C15.7636 157.509 14.1045 157.904 12.8209 158.989C12.6653 159.12 12.4705 158.871 12.6257 158.74C14.859 156.852 18.0126 157.034 20.496 155.647C21.6548 155 22.6256 154 22.8419 152.648C23.0311 151.466 22.7098 150.275 22.5221 149.113C22.2969 147.918 22.3677 146.687 22.7282 145.526C23.1564 144.324 23.7861 143.203 24.5902 142.213C26.365 139.953 28.484 137.987 30.8697 136.386C33.5823 134.543 36.5902 133.178 39.7632 132.349C39.9596 132.298 40.0012 132.612 39.8061 132.663Z" fill="white"/>
<path d="M26.2831 140.466C25.6008 139.728 25.2033 138.771 25.1615 137.766C25.1197 136.762 25.4364 135.775 26.055 134.983C26.1807 134.823 26.4352 135.011 26.3093 135.171C25.7319 135.908 25.437 136.827 25.4778 137.762C25.5186 138.697 25.8925 139.587 26.5319 140.271C26.6706 140.42 26.421 140.614 26.283 140.466H26.2831Z" fill="white"/>
<path d="M22.6456 148.347C24.6986 148.446 26.7137 147.769 28.2892 146.449C28.4452 146.318 28.6402 146.567 28.4844 146.698C26.8423 148.068 24.7438 148.769 22.6077 148.661C22.4041 148.65 22.4432 148.336 22.6456 148.347Z" fill="white"/>
<path d="M33.6607 134.955C33.8651 135.295 34.151 135.58 34.4926 135.783C34.8343 135.986 35.221 136.101 35.618 136.118C35.8216 136.125 35.7824 136.439 35.5801 136.431C35.1415 136.411 34.7145 136.284 34.3366 136.06C33.9586 135.837 33.6411 135.524 33.4119 135.15C33.3873 135.116 33.3764 135.075 33.3814 135.034C33.3864 134.992 33.4069 134.955 33.4387 134.928C33.4718 134.902 33.5136 134.891 33.5552 134.896C33.5968 134.901 33.6347 134.922 33.6607 134.955Z" fill="white"/>
<path d="M181.801 123.951H72.3367V0.5H181.801V123.951Z" fill="white"/>
<path d="M181.801 123.951H72.3367V0.5H181.801V123.951ZM72.9253 123.362H181.212V1.08846H72.9253L72.9253 123.362Z" fill="#CACACA"/>
<path d="M168.502 58.3019H85.6351C85.5578 58.3019 85.4813 58.2867 85.4099 58.2571C85.3385 58.2275 85.2736 58.1842 85.2189 58.1295C85.1643 58.0749 85.1209 58.01 85.0914 57.9386C85.0618 57.8672 85.0466 57.7907 85.0466 57.7134C85.0466 57.6362 85.0618 57.5596 85.0914 57.4883C85.1209 57.4169 85.1643 57.352 85.2189 57.2974C85.2736 57.2427 85.3385 57.1994 85.4099 57.1698C85.4813 57.1402 85.5578 57.125 85.6351 57.125H168.502C168.658 57.125 168.808 57.187 168.918 57.2974C169.029 57.4077 169.091 57.5574 169.091 57.7134C169.091 57.8695 169.029 58.0192 168.918 58.1295C168.808 58.2399 168.658 58.3019 168.502 58.3019Z" fill="#E4E4E4"/>
<path d="M168.502 48.2101H85.6351C85.479 48.2101 85.3293 48.1481 85.2189 48.0377C85.1086 47.9274 85.0466 47.7777 85.0466 47.6216C85.0466 47.4656 85.1086 47.3159 85.2189 47.2056C85.3293 47.0952 85.479 47.0332 85.6351 47.0332H168.502C168.658 47.0332 168.808 47.0952 168.918 47.2056C169.029 47.3159 169.091 47.4656 169.091 47.6216C169.091 47.7777 169.029 47.9274 168.918 48.0377C168.808 48.1481 168.658 48.2101 168.502 48.2101Z" fill="#E4E4E4"/>
<path d="M168.502 38.1163H85.6351C85.5578 38.1163 85.4813 38.1011 85.4099 38.0716C85.3385 38.042 85.2736 37.9986 85.2189 37.944C85.1643 37.8894 85.1209 37.8245 85.0914 37.7531C85.0618 37.6817 85.0466 37.6052 85.0466 37.5279C85.0466 37.4506 85.0618 37.3741 85.0914 37.3027C85.1209 37.2313 85.1643 37.1665 85.2189 37.1118C85.2736 37.0572 85.3385 37.0138 85.4099 36.9842C85.4813 36.9547 85.5578 36.9395 85.6351 36.9395H168.502C168.658 36.9395 168.808 37.0015 168.918 37.1118C169.029 37.2222 169.091 37.3718 169.091 37.5279C169.091 37.684 169.029 37.8336 168.918 37.944C168.808 38.0544 168.658 38.1163 168.502 38.1163Z" fill="#E4E4E4"/>
<path d="M168.502 28.0245H85.6351C85.479 28.0245 85.3293 27.9626 85.2189 27.8522C85.1086 27.7418 85.0466 27.5922 85.0466 27.4361C85.0466 27.28 85.1086 27.1304 85.2189 27.02C85.3293 26.9097 85.479 26.8477 85.6351 26.8477H168.502C168.658 26.8477 168.808 26.9097 168.918 27.02C169.029 27.1304 169.091 27.28 169.091 27.4361C169.091 27.5922 169.029 27.7418 168.918 27.8522C168.808 27.9626 168.658 28.0245 168.502 28.0245Z" fill="#E4E4E4"/>
<path d="M168.502 67.423H85.6351C85.479 67.423 85.3293 67.361 85.2189 67.2506C85.1086 67.1403 85.0466 66.9906 85.0466 66.8345C85.0466 66.6785 85.1086 66.5288 85.2189 66.4184C85.3293 66.3081 85.479 66.2461 85.6351 66.2461H168.502C168.658 66.2461 168.808 66.3081 168.918 66.4184C169.029 66.5288 169.091 66.6785 169.091 66.8345C169.091 66.9906 169.029 67.1403 168.918 67.2506C168.808 67.361 168.658 67.423 168.502 67.423Z" fill="#E4E4E4"/>
<path d="M168.502 112.702H85.6351C85.479 112.702 85.3293 112.64 85.2189 112.53C85.1086 112.42 85.0466 112.27 85.0466 112.114C85.0466 111.958 85.1086 111.808 85.2189 111.698C85.3293 111.587 85.479 111.525 85.6351 111.525H168.502C168.658 111.525 168.808 111.587 168.918 111.698C169.029 111.808 169.091 111.958 169.091 112.114C169.091 112.27 169.029 112.42 168.918 112.53C168.808 112.64 168.658 112.702 168.502 112.702Z" fill="#E4E4E4"/>
<path d="M148.652 103.258H105.486C105.197 103.258 104.921 103.143 104.717 102.939C104.513 102.735 104.398 102.459 104.397 102.17V76.7814C104.398 76.493 104.513 76.2164 104.717 76.0124C104.921 75.8084 105.197 75.6937 105.486 75.6934H148.652C148.94 75.6937 149.217 75.8084 149.421 76.0124C149.625 76.2164 149.739 76.493 149.74 76.7814V102.17C149.739 102.459 149.625 102.735 149.421 102.939C149.217 103.143 148.94 103.258 148.652 103.258Z" fill="white"/>
<path d="M134.236 88.7542C134.017 88.519 133.752 88.3304 133.458 88.1996C133.164 88.0687 132.846 87.9983 132.524 87.9926C132.203 87.9868 131.883 88.0458 131.584 88.1661C131.286 88.2863 131.015 88.4654 130.787 88.6926L118.639 100.839C118.318 101.159 117.883 101.339 117.43 101.34C116.976 101.341 116.541 101.162 116.219 100.843L114.42 99.0475C114.197 98.825 113.933 98.6485 113.643 98.5281C113.352 98.4077 113.041 98.3457 112.726 98.3457C112.411 98.3457 112.1 98.4077 111.809 98.5281C111.518 98.6485 111.254 98.825 111.032 99.0475L107.55 102.533H146.587V102.036L134.236 88.7542Z" fill="#0069CA"/>
<path d="M148.652 103.258H105.486C105.197 103.258 104.921 103.143 104.717 102.939C104.513 102.735 104.398 102.459 104.397 102.17V76.7814C104.398 76.493 104.513 76.2164 104.717 76.0124C104.921 75.8084 105.197 75.6937 105.486 75.6934H148.652C148.94 75.6937 149.217 75.8084 149.421 76.0124C149.625 76.2164 149.739 76.493 149.74 76.7814V102.17C149.739 102.459 149.625 102.735 149.421 102.939C149.217 103.143 148.94 103.258 148.652 103.258ZM105.486 76.4188C105.39 76.4189 105.297 76.4571 105.229 76.5251C105.161 76.5931 105.123 76.6853 105.123 76.7815V102.17C105.123 102.266 105.161 102.358 105.229 102.426C105.297 102.494 105.39 102.533 105.486 102.533H148.652C148.748 102.533 148.84 102.494 148.908 102.426C148.976 102.358 149.014 102.266 149.014 102.17V76.7814C149.014 76.6853 148.976 76.5931 148.908 76.5251C148.84 76.4571 148.748 76.4189 148.652 76.4187L105.486 76.4188Z" fill="#3F3D56"/>
<path d="M44.5863 99.0139C44.6957 98.6281 44.7192 98.223 44.6552 97.8272C44.5911 97.4313 44.441 97.0543 44.2155 96.7227C43.9899 96.3912 43.6944 96.1131 43.3497 95.9081C43.0051 95.703 42.6197 95.5761 42.2206 95.5361L39.9588 86.0547L36.4922 89.7482L39.1715 98.1857C39.1488 98.8604 39.3744 99.52 39.8055 100.04C40.2367 100.559 40.8435 100.902 41.511 101.005C42.1784 101.107 42.8601 100.96 43.4269 100.593C43.9937 100.227 44.4062 99.6645 44.5863 99.0139Z" fill="#FFB6B6"/>
<path d="M38.5405 95.5744C38.3768 95.52 38.2265 95.4317 38.0993 95.3153C37.972 95.199 37.8707 95.0571 37.8018 94.899L33.0062 83.1706C31.7833 80.3587 31.6235 77.1984 32.5566 74.2776L35.6294 64.6535C35.6762 64.1359 35.8245 63.6326 36.0659 63.1723C36.3073 62.7121 36.637 62.304 37.0363 61.9713C37.4356 61.6386 37.8965 61.3878 38.3928 61.2334C38.8891 61.0789 39.4109 61.0238 39.9285 61.0711C40.4461 61.1185 40.9493 61.2674 41.4093 61.5093C41.8693 61.7513 42.277 62.0815 42.6093 62.4812C42.9415 62.8808 43.1917 63.342 43.3456 63.8384C43.4994 64.3348 43.5539 64.8567 43.5059 65.3741L39.4308 80.8718L42.1602 93.0432C42.2029 93.2918 42.1683 93.5476 42.0609 93.7758C41.9535 94.0041 41.7787 94.1939 41.5599 94.3196L39.5368 95.4754C39.3198 95.5993 39.0701 95.654 38.8212 95.6324C38.7256 95.6242 38.6314 95.6048 38.5405 95.5744Z" fill="#0069CA"/>
<path d="M55.5969 155.666H58.9412L60.5325 142.768H55.5961L55.5969 155.666Z" fill="#FFB6B6"/>
<path d="M54.7437 154.576L61.3302 154.576H61.3305C62.4437 154.576 63.5113 155.018 64.2984 155.805C65.0856 156.593 65.5279 157.66 65.528 158.773V158.909L54.7439 158.91L54.7437 154.576Z" fill="#2F2E41"/>
<path d="M36.7735 155.666H40.1178L41.7091 142.768H36.7727L36.7735 155.666Z" fill="#FFB6B6"/>
<path d="M35.9203 154.576L42.5068 154.576H42.5071C43.6203 154.576 44.6879 155.018 45.4751 155.805C46.2623 156.593 46.7045 157.66 46.7046 158.773V158.909L35.9205 158.91L35.9203 154.576Z" fill="#2F2E41"/>
<path d="M57.6108 90.6083L37.9971 88.8828C37.9971 88.8828 36.0593 101.246 36.3321 106.156C36.6049 111.066 36.8777 118.704 36.8777 118.704L34.6953 151.982L43.1522 150.89L44.2434 123.341L47.7899 108.338L51.8819 127.432L54.6099 151.982L61.9756 151.163L59.5204 121.431C59.5204 121.431 61.7028 94.6998 57.6108 90.6083Z" fill="#2F2E41"/>
<path d="M49.6995 54.3288C52.7128 54.3288 55.1555 51.8863 55.1555 48.8734C55.1555 45.8604 52.7128 43.418 49.6995 43.418C46.6862 43.418 44.2434 45.8604 44.2434 48.8734C44.2434 51.8863 46.6862 54.3288 49.6995 54.3288Z" fill="#FFB8B8"/>
<path d="M55.6743 61.054L51.7775 57.9523C51.7775 57.9523 47.5575 54.6965 45.082 57.1036L43.9706 58.6925C43.9706 58.6925 37.6693 61.054 37.6693 64.0544L37.9689 80.514C37.9689 80.514 35.7865 88.9699 39.0601 89.5154L58.1295 91.0586L57.8835 75.3314L55.6743 61.054Z" fill="#0069CA"/>
<path d="M45.471 53.6462C45.471 53.6462 39.7422 49.5546 42.743 44.6448C44.8248 41.2386 49.1386 41.5082 51.5856 41.9928C52.2449 42.1145 52.8646 42.3947 53.3915 42.8091C53.9184 43.2236 54.3365 43.76 54.6099 44.372C55.0191 45.3267 55.0191 46.2814 53.3823 46.2814C50.1087 46.2814 51.7455 48.7363 51.7455 48.7363C51.7455 48.7363 49.5631 49.2819 50.1087 51.1913C50.6543 53.1006 45.471 53.6462 45.471 53.6462Z" fill="#2F2E41"/>
<path d="M75.3587 89.8013C75.2571 89.4134 75.0717 89.0525 74.8154 88.744C74.5592 88.4355 74.2385 88.1869 73.8758 88.0158C73.5131 87.8446 73.1173 87.7551 72.7163 87.7534C72.3152 87.7518 71.9187 87.8381 71.5546 88.0062L64.7913 80.9863L63.6804 85.9283L70.2733 91.8369C70.5964 92.4297 71.1257 92.8834 71.761 93.1121C72.3963 93.3408 73.0935 93.3285 73.7203 93.0776C74.3472 92.8267 74.8602 92.3546 75.1621 91.7507C75.4641 91.1469 75.5341 90.4532 75.3587 89.8013H75.3587Z" fill="#FFB6B6"/>
<path d="M68.404 89.9081C68.2354 89.9442 68.061 89.9445 67.8923 89.9088C67.7236 89.8732 67.5642 89.8024 67.4246 89.7012L57.3373 82.0319C54.8558 80.2303 53.1133 77.5889 52.4339 74.5988L50.1938 64.7476C49.9708 64.2779 49.8427 63.7689 49.8167 63.2497C49.7906 62.7304 49.8673 62.2111 50.0422 61.7215C50.2172 61.2319 50.4869 60.7817 50.8361 60.3964C51.1853 60.0112 51.607 59.6986 52.0772 59.4765C52.5473 59.2545 53.0567 59.1273 53.576 59.1022C54.0954 59.0772 54.6146 59.1548 55.1039 59.3307C55.5932 59.5065 56.0431 59.7771 56.4277 60.127C56.8123 60.4768 57.1241 60.8991 57.3453 61.3696L61.7046 76.7897L70.2369 85.8897C70.4 86.0822 70.5 86.3201 70.5234 86.5713C70.5469 86.8224 70.4926 87.0747 70.368 87.294L69.212 89.3169C69.0879 89.5338 68.9007 89.7077 68.6752 89.8155C68.5888 89.8569 68.4977 89.888 68.404 89.9081Z" fill="#0069CA"/>
<path d="M104.211 158.979H0.272803C0.200451 158.979 0.131062 158.95 0.0799019 158.899C0.0287414 158.848 0 158.779 0 158.706C0 158.634 0.0287414 158.565 0.0799019 158.513C0.131062 158.462 0.200451 158.434 0.272803 158.434H104.211C104.283 158.434 104.352 158.462 104.404 158.513C104.455 158.565 104.483 158.634 104.483 158.706C104.483 158.779 104.455 158.848 104.404 158.899C104.352 158.95 104.283 158.979 104.211 158.979Z" fill="#CACACA"/>
<path d="M159.474 17.3413H94.7441C94.3834 17.3491 94.0324 17.2241 93.7579 16.99C93.4833 16.756 93.3043 16.4292 93.255 16.0719C93.2346 15.8747 93.2558 15.6755 93.3173 15.487C93.3787 15.2986 93.4791 15.1252 93.6119 14.978C93.7446 14.8308 93.9068 14.7131 94.0879 14.6325C94.2691 14.5519 94.4651 14.5103 94.6633 14.5103H159.373C159.74 14.5007 160.097 14.627 160.376 14.8649C160.655 15.1028 160.836 15.4355 160.884 15.7989C160.902 15.9947 160.878 16.192 160.815 16.3783C160.752 16.5646 160.651 16.7357 160.519 16.8808C160.386 17.0259 160.225 17.1417 160.045 17.221C159.865 17.3003 159.67 17.3413 159.474 17.3413Z" fill="#0069CA"/>
</g>
<defs>
<clipPath id="clip0">
<rect width="220" height="159" fill="white"/>
</clipPath>
</defs>
</svg>
