<svg width="278" height="187" viewBox="0 0 278 187" fill="none" xmlns="http://www.w3.org/2000/svg">
<g clip-path="url(#clip0)">
<path opacity="0.1" d="M277.752 99.3568C277.752 136.979 253.906 169.035 220.506 181.232C215.425 183.092 210.18 184.468 204.841 185.344C190.153 187.753 175.093 186.385 161.079 181.37C127.468 169.273 103.448 137.109 103.464 99.3383C103.464 51.2297 142.481 12.213 190.608 12.213C208.797 12.1865 226.534 17.8769 241.312 28.4798C263.376 44.2872 277.752 70.1425 277.752 99.3568Z" fill="#0069CA"/>
<path d="M220.506 181.231C215.425 183.09 210.18 184.467 204.841 185.342C190.153 187.751 175.093 186.384 161.079 181.368L165.104 165.22L165.347 164.251L173.559 164.283L214.818 164.431L215.346 165.991L220.506 181.231Z" fill="#2F2E41"/>
<path d="M75.9448 0.5H0.248291V86.1531H75.9448V0.5Z" fill="#E6E6E6"/>
<path d="M74.4629 2.3125H1.59802V84.3418H74.4629V2.3125Z" fill="white"/>
<path d="M38.0967 81.4247C40.3525 81.4247 42.1811 79.596 42.1811 77.3403C42.1811 75.0845 40.3525 73.2559 38.0967 73.2559C35.841 73.2559 34.0123 75.0845 34.0123 77.3403C34.0123 79.596 35.841 81.4247 38.0967 81.4247Z" fill="#E6E6E6"/>
<path d="M37.4067 31.3496H13.9473V33.7495H37.4067V31.3496Z" fill="#E6E6E6"/>
<path d="M49.3538 38.54H13.9473V40.9399H49.3538V38.54Z" fill="#0069CA"/>
<path d="M45.8783 45.7773H13.9473V48.1772H45.8783V45.7773Z" fill="#E6E6E6"/>
<path d="M63.2556 52.8213H13.9473V55.2212H63.2556V52.8213Z" fill="#0069CA"/>
<path d="M54.645 59.5322H14.4598V61.9321H54.645V59.5322Z" fill="#E6E6E6"/>
<path d="M107.887 139.875C108.174 140.171 108.438 140.489 108.676 140.826L145.675 139.921L149.992 132.033L162.746 136.991L156.461 151.697C155.954 152.885 155.074 153.876 153.955 154.522C152.836 155.167 151.538 155.433 150.256 155.278L108.453 150.228C107.467 151.476 106.124 152.395 104.603 152.861C103.083 153.328 101.456 153.321 99.9392 152.84C98.4227 152.359 97.0885 151.429 96.114 150.171C95.1395 148.914 94.5709 147.39 94.4838 145.801C94.3967 144.213 94.7953 142.635 95.6265 141.279C96.4577 139.923 97.6821 138.852 99.1369 138.208C100.592 137.565 102.208 137.379 103.771 137.677C105.333 137.974 106.769 138.74 107.885 139.874L107.887 139.875Z" fill="#9F616A"/>
<path d="M157.685 94.8385L175 89.1639L180.086 82.1895L204.834 83.654L208.467 91.7927L221.663 98.0282L219.635 135.691L216.166 170.939C198.325 161.701 165.031 168.744 164.739 168.858L157.685 94.8385Z" fill="#0069CA"/>
<path d="M161.387 145.817L143.775 138.77L143.85 138.457C143.925 138.14 151.421 106.816 152.417 101.783C153.453 96.5385 157.241 95.0885 157.402 95.0296L157.52 94.9863L164.49 97.1079L167.551 121.16L161.387 145.817Z" fill="#0069CA"/>
<path d="M199.415 169.389C199.827 169.379 200.24 169.402 200.65 169.457L225.142 141.711L222.293 133.185L234.601 127.203L241.111 141.81C241.637 142.99 241.766 144.309 241.479 145.568C241.192 146.828 240.504 147.96 239.518 148.795L207.394 176.014C207.638 177.586 207.399 179.195 206.707 180.627C206.015 182.06 204.903 183.247 203.519 184.032C202.136 184.817 200.546 185.163 198.962 185.022C197.377 184.882 195.873 184.262 194.649 183.246C193.425 182.23 192.54 180.865 192.11 179.334C191.681 177.802 191.728 176.176 192.245 174.672C192.763 173.167 193.726 171.856 195.006 170.913C196.287 169.969 197.825 169.438 199.415 169.389Z" fill="#9F616A"/>
<path d="M223.187 144.411L212.97 120.379L216.955 103.639L221.248 98.2148C221.563 98.0803 221.902 98.0126 222.244 98.0157C222.586 98.0189 222.923 98.093 223.235 98.2333C224.82 98.8705 226.166 100.824 227.243 104.039L236.818 131.312L223.187 144.411Z" fill="#0069CA"/>
<path d="M170.18 73.2833V55.1653C170.169 51.9771 170.787 48.818 171.997 45.8684C173.207 42.9188 174.987 40.2364 177.234 37.9745C179.481 35.7126 182.151 33.9155 185.093 32.6856C188.034 31.4558 191.189 30.8173 194.377 30.8068C197.566 30.7962 200.725 31.4137 203.674 32.6241C206.624 33.8344 209.306 35.6138 211.568 37.8608C213.83 40.1078 215.627 42.7782 216.857 45.7198C218.087 48.6613 218.725 51.8162 218.736 55.0045C218.736 55.0581 218.736 55.1117 218.736 55.1653V73.2833C218.735 74.148 218.391 74.9769 217.78 75.5883C217.168 76.1997 216.339 76.5436 215.475 76.5446H173.441C172.576 76.5436 171.747 76.1997 171.136 75.5883C170.524 74.9769 170.181 74.148 170.18 73.2833Z" fill="#2F2E41"/>
<path d="M189.469 76.122C199.299 76.122 207.269 68.1528 207.269 58.3223C207.269 48.4917 199.299 40.5225 189.469 40.5225C179.638 40.5225 171.669 48.4917 171.669 58.3223C171.669 68.1528 179.638 76.122 189.469 76.122Z" fill="#9F616A"/>
<path d="M164.436 56.6153C164.442 51.5236 166.467 46.642 170.067 43.0416C173.668 39.4411 178.549 37.4159 183.641 37.4102H187.265C192.357 37.4159 197.238 39.4411 200.839 43.0416C204.439 46.642 206.464 51.5236 206.47 56.6153V56.9776H198.812L196.2 49.6629L195.678 56.9776H191.72L190.403 53.2875L190.138 56.9776H164.436V56.6153Z" fill="#2F2E41"/>
<path d="M187.717 78.5825C187.358 78.0956 187.143 77.5171 187.098 76.9136C187.053 76.3101 187.179 75.7061 187.462 75.1712C191.302 67.8675 196.678 54.3715 189.542 46.0485L189.03 45.4512H209.748V76.5562L190.928 79.8769C190.737 79.9107 190.544 79.9277 190.351 79.9279C189.837 79.9279 189.33 79.806 188.873 79.5723C188.415 79.3385 188.02 78.9996 187.719 78.5832L187.717 78.5825Z" fill="#2F2E41"/>
<path d="M38.0309 7.1709C36.313 7.17081 34.6337 7.68013 33.2054 8.63443C31.777 9.58874 30.6636 10.9452 30.0062 12.5322C29.3487 14.1193 29.1766 15.8657 29.5117 17.5505C29.8467 19.2354 30.6738 20.783 31.8885 21.9978C33.1031 23.2125 34.6507 24.0398 36.3355 24.3751C38.0203 24.7103 39.7667 24.5384 41.3538 23.8811C42.941 23.2238 44.2975 22.1106 45.252 20.6823C46.2064 19.254 46.7159 17.5748 46.716 15.8569V15.8565C46.716 14.7159 46.4914 13.5864 46.0549 12.5326C45.6184 11.4789 44.9786 10.5214 44.1721 9.71484C43.3655 8.90831 42.408 8.26854 41.3543 7.83205C40.3005 7.39556 39.171 7.1709 38.0304 7.1709H38.0309ZM38.0309 9.77634C38.5462 9.77633 39.0499 9.92914 39.4784 10.2154C39.9068 10.5017 40.2408 10.9086 40.438 11.3847C40.6352 11.8608 40.6868 12.3847 40.5863 12.8901C40.4857 13.3955 40.2376 13.8597 39.8732 14.2241C39.5088 14.5885 39.0446 14.8366 38.5392 14.9372C38.0338 15.0377 37.5099 14.9861 37.0338 14.7889C36.5577 14.5917 36.1508 14.2578 35.8645 13.8293C35.5783 13.4008 35.4254 12.8971 35.4254 12.3818C35.4254 11.6908 35.6999 11.0281 36.1886 10.5395C36.6772 10.0508 37.3399 9.77634 38.0309 9.77634ZM38.0309 22.3201C37.0015 22.3154 35.9889 22.0596 35.0807 21.575C34.1726 21.0903 33.3964 20.3915 32.8195 19.539C32.8614 17.8018 36.2938 16.8457 38.0309 16.8457C39.768 16.8457 43.2004 17.8018 43.2422 19.539C42.6647 20.3908 41.8884 21.0892 40.9804 21.5738C40.0724 22.0584 39.0601 22.3145 38.0309 22.3201Z" fill="#0069CA"/>
<path d="M38.1318 78.9053C41.71 72.3481 50.2818 68.1956 57.2937 71.9386C60.4499 73.6231 62.9589 76.6029 63.7553 80.1248C64.6796 84.2161 62.732 88.1172 60.7216 91.5544C59.6305 93.42 58.4348 95.2477 57.5316 97.2155C56.5966 99.2534 55.9282 101.609 56.6322 103.826C57.266 105.823 58.8552 107.275 60.5954 108.343C62.5161 109.477 64.5591 110.389 66.6852 111.063C71.0617 112.518 75.6781 113.116 80.2809 112.822C82.5686 112.667 84.8369 112.3 87.057 111.727C89.4186 111.124 91.7361 110.361 94.1017 109.772C98.0511 108.791 102.554 108.304 106.299 110.274C109.938 112.189 111.566 116.194 112.07 120.091C113 127.286 110.147 134.752 104.996 139.791C102.525 142.208 99.4153 144.205 96.0284 145.022C93.0731 145.735 89.2784 145.689 86.9266 143.48C84.3022 141.015 84.9196 137.061 87.0039 134.459C89.6645 131.14 94.1717 130.343 98.1937 130.262C102.769 130.17 107.34 130.852 111.913 130.428C114.145 130.254 116.335 129.726 118.401 128.863C120.217 128.064 121.873 126.944 123.29 125.555C126.113 122.812 128.017 119.158 128.963 115.359C130.103 110.791 129.855 105.99 128.97 101.401C128.498 99.0346 127.891 96.6975 127.151 94.4011C126.846 93.4319 125.315 93.8465 125.623 94.8223C128.348 103.464 129.868 113.456 124.603 121.479C122.424 124.882 119.029 127.325 115.111 128.312C110.554 129.444 105.772 128.884 101.139 128.716C96.734 128.556 91.8967 128.729 88.1204 131.294C85.0226 133.399 82.8559 137.402 83.7923 141.18C84.6952 144.825 88.1973 146.673 91.6999 146.958C95.375 147.257 98.9915 146.024 102.078 144.095C108.498 140.083 112.767 133.027 113.661 125.546C114.126 121.648 113.653 117.449 111.885 113.911C110.953 111.996 109.504 110.38 107.7 109.247C105.902 108.145 103.825 107.602 101.738 107.41C96.9988 106.974 92.4452 108.601 87.9491 109.846C85.6523 110.512 83.2981 110.962 80.9173 111.188C78.6067 111.38 76.2828 111.342 73.9796 111.075C71.6943 110.805 69.442 110.306 67.2572 109.583C65.1161 108.921 63.0662 107.994 61.155 106.824C59.4689 105.746 58.0107 104.202 57.9278 102.097C57.8377 99.8156 58.9883 97.6811 60.0826 95.7573C62.2445 91.9571 64.9151 88.24 65.4789 83.7912C65.9727 79.8995 64.4068 76.0639 61.7027 73.2882C60.3474 71.8794 58.7159 70.7655 56.9103 70.0164C55.1046 69.2674 53.1638 68.8992 51.2092 68.935C47.1972 69.0499 43.3557 70.7946 40.4047 73.4741C38.9411 74.8039 37.7095 76.3684 36.7605 78.1033C36.2717 78.9988 37.6394 79.7992 38.1287 78.9029L38.1318 78.9053Z" fill="#3F3D56"/>
</g>
<defs>
<clipPath id="clip0">
<rect width="277.503" height="186" fill="white" transform="translate(0.248291 0.5)"/>
</clipPath>
</defs>
</svg>
