<svg width="270" height="187" viewBox="0 0 270 187" fill="none" xmlns="http://www.w3.org/2000/svg">
<g clip-path="url(#clip0)">
<path d="M192.742 127.683C192.742 144.516 182.735 150.393 170.391 150.393C158.047 150.393 148.04 144.516 148.04 127.683C148.04 110.85 170.391 89.4365 170.391 89.4365C170.391 89.4365 192.742 110.85 192.742 127.683Z" fill="#0069CA"/>
<path d="M169.805 133.731L179.332 116.302L169.841 131.521L169.944 125.187L176.51 112.578L169.971 123.51L170.156 112.118L177.187 102.08L170.185 110.326L170.301 89.4365L169.606 115.906L162.486 105.009L169.519 118.14L168.853 130.863L168.834 130.526L160.593 119.012L168.809 131.719L168.725 133.31L168.71 133.334L168.717 133.465L167.027 150.443H169.285L169.556 149.072L177.751 136.396L169.576 147.818L169.805 133.731Z" fill="#3F3D56"/>
<path opacity="0.1" d="M269.284 73.5604C269.284 105.715 250.168 116.942 226.588 116.942C203.008 116.942 183.893 105.715 183.893 73.5604C183.893 41.4058 226.588 0.5 226.588 0.5C226.588 0.5 269.284 41.4058 269.284 73.5604Z" fill="#0069CA"/>
<path d="M225.033 112.024L225.47 85.1131L243.668 51.8209L225.539 80.8915L225.735 68.7914L238.277 44.705L225.787 65.5894V65.5896L226.141 43.8269L239.571 24.6511L226.196 40.4048L226.418 0.5L225.029 53.3268L225.143 51.1475L211.489 30.247L224.924 55.3308L223.652 79.6358L223.614 78.9908L207.873 56.9961L223.567 81.2698L223.407 84.3094L223.379 84.3552L223.392 84.6046L220.164 146.268H224.477L224.994 114.418L240.649 90.2037L225.033 112.024Z" fill="#3F3D56"/>
<path d="M267.531 140.885C267.531 150.482 205.274 186.5 132.495 186.5C59.7154 186.5 0.716309 167.859 0.716309 158.262C0.716309 148.665 58.2673 160.072 131.046 160.072C203.826 160.072 267.531 131.288 267.531 140.885Z" fill="#3F3D56"/>
<path opacity="0.1" d="M267.531 140.885C267.531 150.482 205.274 186.5 132.495 186.5C59.7154 186.5 0.716309 167.859 0.716309 158.262C0.716309 148.665 58.2673 160.072 131.046 160.072C203.826 160.072 267.531 131.288 267.531 140.885Z" fill="black"/>
<path d="M267.531 140.884C267.531 150.481 205.274 175.638 132.495 175.638C59.7154 175.638 0.716309 167.858 0.716309 158.261C0.716309 148.664 58.2673 149.21 131.046 149.21C203.826 149.21 267.531 131.287 267.531 140.884Z" fill="#3F3D56"/>
<path opacity="0.1" d="M133.969 164.414C164.875 164.414 189.929 162.476 189.929 160.085C189.929 157.695 164.875 155.757 133.969 155.757C103.063 155.757 78.0088 157.695 78.0088 160.085C78.0088 162.476 103.063 164.414 133.969 164.414Z" fill="black"/>
<path d="M89.6375 73.3506C89.6375 73.3506 106.02 73.654 102.986 76.5361C99.9526 79.4183 88.5757 76.5361 88.5757 76.5361L89.6375 73.3506Z" fill="#A0616A"/>
<path d="M55.5034 38.3416C55.5034 38.3416 62.1179 37.1604 64.4177 42.5001C66.7176 47.8399 71.441 63.0685 71.441 63.0685C71.441 63.0685 84.0812 71.4354 86.3803 71.1605C88.6794 70.8856 92.6098 71.4465 91.8888 73.9548C91.1679 76.463 91.4879 79.3072 89.8282 79.6558C88.1684 80.0044 85.5287 76.6769 83.5084 78.2796C81.4882 79.8824 63.4836 74.0284 62.3277 72.8155C61.1718 71.6025 51.5659 45.3379 51.5659 45.3379C51.5659 45.3379 51.9502 38.256 55.5034 38.3416Z" fill="#0069CA"/>
<path d="M69.6902 151.092L70.4486 157.463L64.0777 159.132L60.437 157.463V151.85L69.6902 151.092Z" fill="#A0616A"/>
<path d="M52.5486 155.188L53.3071 161.558L46.9361 163.227L43.2954 161.558V155.946L52.5486 155.188Z" fill="#A0616A"/>
<path d="M70.2966 81.4645L73.1788 91.9312L77.4262 113.168C77.4262 113.168 78.6397 118.326 76.2126 124.545C73.7855 130.764 69.3865 151.091 70.2966 152.305C71.2068 153.518 59.9816 154.428 60.1333 153.215C60.285 152.001 61.8019 135.315 61.8019 135.315C61.8019 135.315 63.9256 120.601 64.9874 118.781C66.0493 116.96 60.1333 112.41 60.1333 112.41C60.1333 112.41 58.6164 129.854 56.341 131.371C54.0656 132.888 54.369 156.4 53.3071 156.704C52.2453 157.007 44.509 158.221 43.5988 156.704C42.6887 155.187 43.5988 129.854 43.5988 129.854C43.5988 129.854 48.7564 110.589 47.6945 107.859C46.6327 105.128 47.2394 93.4482 47.2394 93.4482C47.2394 93.4482 43.2955 84.4983 45.4191 79.7959L70.2966 81.4645Z" fill="#2F2E41"/>
<path d="M69.8416 23.2157C69.8416 23.2157 63.4705 31.1037 63.7739 34.5926C64.0773 38.0815 53.7622 28.2216 53.7622 28.2216C53.7622 28.2216 61.1951 18.2099 61.1951 16.0862C61.1951 13.9625 69.8416 23.2157 69.8416 23.2157Z" fill="#A0616A"/>
<path d="M69.7656 26.1737C75.2949 26.1737 79.7772 21.6914 79.7772 16.1621C79.7772 10.6328 75.2949 6.15039 69.7656 6.15039C64.2363 6.15039 59.7539 10.6328 59.7539 16.1621C59.7539 21.6914 64.2363 26.1737 69.7656 26.1737Z" fill="#A0616A"/>
<path d="M44.535 75.7894C44.0815 77.4793 43.5187 79.3951 43.5991 81.0092C43.6507 82.0543 46.4251 82.74 50.2614 83.189C53.8186 83.6061 58.289 83.8185 62.3528 83.9277C66.6199 84.043 70.4349 84.043 72.2689 84.043C77.7298 84.043 73.3307 80.5541 71.207 78.8855C69.0834 77.2169 69.5384 53.5529 69.6901 50.5191C69.8418 47.4852 68.3249 38.6871 68.3249 37.0185C68.3249 35.3499 64.7556 30.9948 64.7556 30.9948C64.7556 30.9948 63.9258 33.3779 60.5886 30.1924C57.2514 27.0068 52.8523 26.0967 52.8523 26.0967C49.5151 27.3102 43.9025 40.6591 43.5991 42.9345C43.4762 43.8583 43.5779 48.5896 43.7842 53.9913C44.083 61.8869 44.6048 71.2205 44.9643 72.211C45.248 72.9922 44.934 74.3028 44.535 75.7894Z" fill="#0069CA"/>
<path d="M60.7404 84.6514L61.8022 88.4437L57.7065 92.6911L56.3413 86.7749L60.7404 84.6514Z" fill="#A0616A"/>
<path d="M62.1052 155.794C62.1052 155.794 65.2907 159.435 67.7178 157.007C70.1448 154.58 69.9932 153.063 70.4482 153.063C70.9033 153.063 77.7294 159.131 77.7294 159.131C77.7294 159.131 89.4097 161.862 83.0387 163.834C76.6676 165.806 58.6163 164.44 58.6163 163.834C58.6163 163.227 58.1612 155.187 59.8298 155.187L62.1052 155.794Z" fill="#2F2E41"/>
<path d="M44.9641 159.891C44.9641 159.891 48.1496 163.531 50.5767 161.104C53.0037 158.677 52.852 157.16 53.3071 157.16C53.7622 157.16 60.5883 163.228 60.5883 163.228C60.5883 163.228 72.2686 165.958 65.8975 167.93C59.5265 169.902 41.4751 168.537 41.4751 167.93C41.4751 167.324 41.0201 159.284 42.6887 159.284L44.9641 159.891Z" fill="#2F2E41"/>
<path d="M58.5256 24.1535C58.2021 24.3625 57.7811 24.5742 57.4573 24.3659C56.2533 21.3632 55.3533 18.2474 54.771 15.0651C54.5665 13.9473 54.4246 12.7047 55.0456 11.7531C55.2905 11.3777 55.643 11.0708 55.8224 10.6601C56.0941 10.0382 55.9153 9.31823 56.0055 8.64555C56.1946 7.23629 57.5268 6.25337 58.8664 5.77666C60.206 5.29995 61.6609 5.15208 62.9379 4.52655C64.1503 3.9326 65.1214 2.94754 66.2457 2.20004C67.37 1.45253 68.8101 0.941436 70.0622 1.44655C71.1698 1.89339 71.8598 3.0224 72.9067 3.59726C73.6171 3.98736 74.4416 4.09591 75.2346 4.26337C77.4387 4.731 79.5081 5.69241 81.287 7.07527C81.7198 7.38402 82.093 7.76875 82.3885 8.21076C83.732 10.4227 81.3265 13.4299 82.3878 15.7903L80.0935 13.9799C79.4808 13.4439 78.7898 13.0048 78.0444 12.6776C77.2844 12.3898 76.3844 12.355 75.6941 12.7838C74.7253 13.3856 74.4626 14.6427 74.1241 15.7319C73.7857 16.821 73.0373 18.0287 71.8972 18.0008C70.3467 17.9628 69.8044 15.799 68.4129 15.1139C67.5058 14.6673 66.3641 14.9614 65.5907 15.6127C64.8175 16.264 64.3535 17.2091 64.0132 18.1611C63.8005 18.756 63.6009 19.4267 63.2232 19.9424C62.8066 20.5111 62.2737 20.5569 61.8288 20.9816C60.6705 22.0873 59.9584 23.2279 58.5256 24.1535Z" fill="#2F2E41"/>
<path opacity="0.1" d="M44.5346 75.79C46.4201 78.525 48.5453 81.3465 50.2609 83.1895C53.8181 83.6067 58.2885 83.819 62.3523 83.9283C61.6263 82.9439 60.7185 82.1077 59.678 81.4648C57.706 80.2512 53.0035 65.8405 53.0035 65.8405C53.0035 65.8405 58.7678 50.9747 60.2847 45.3621C61.8017 39.7495 55.8857 36.5639 55.8857 36.5639C53.1552 34.2886 48.4528 39.5978 48.4528 39.5978C48.4528 39.5978 46.053 46.8365 43.7837 53.9918C44.0825 61.8874 44.6043 71.221 44.9639 72.2116C45.2475 72.9928 44.9335 74.3034 44.5346 75.79Z" fill="black"/>
<path d="M55.4309 35.3511C55.4309 35.3511 61.3469 38.5366 59.83 44.1492C58.313 49.7618 52.5488 64.6276 52.5488 64.6276C52.5488 64.6276 57.2512 79.0383 59.2232 80.2519C61.1952 81.4654 63.9257 84.3476 61.802 85.8645C59.6783 87.3814 58.1614 89.8085 56.6444 89.05C55.1275 88.2916 55.1275 84.0442 52.5488 84.0442C49.97 84.0442 39.5032 68.2682 39.3515 66.5996C39.1999 64.931 47.998 38.3849 47.998 38.3849C47.998 38.3849 52.7004 33.0757 55.4309 35.3511Z" fill="#0069CA"/>
<path d="M178.447 76.8129L176.74 75.1063C175.745 74.111 174.395 73.5518 172.987 73.5518C171.579 73.5518 170.229 74.111 169.234 75.1063L136.133 108.207L103.032 75.1063C102.037 74.111 100.687 73.5518 99.2793 73.5518C97.8716 73.5518 96.5216 74.111 95.5262 75.1063L93.8197 76.8129C93.3269 77.3057 92.9359 77.8908 92.6692 78.5348C92.4024 79.1787 92.2651 79.8689 92.2651 80.5659C92.2651 81.263 92.4024 81.9531 92.6692 82.5971C92.9359 83.2411 93.3269 83.8262 93.8197 84.319L126.92 117.42L93.8197 150.521C93.3269 151.013 92.9359 151.598 92.6692 152.242C92.4024 152.886 92.2651 153.577 92.2651 154.274C92.2651 154.971 92.4024 155.661 92.6692 156.305C92.9359 156.949 93.3269 157.534 93.8197 158.027L95.5262 159.733C96.5216 160.729 97.8716 161.288 99.2793 161.288C100.687 161.288 102.037 160.729 103.032 159.733L136.133 126.632L169.234 159.733C170.229 160.729 171.579 161.288 172.987 161.288C174.395 161.288 175.745 160.729 176.74 159.733L178.447 158.027C179.442 157.031 180.001 155.681 180.001 154.274C180.001 152.866 179.442 151.516 178.447 150.521L145.346 117.42L178.447 84.319C179.442 83.3236 180.001 81.9736 180.001 80.5659C180.001 79.1583 179.442 77.8082 178.447 76.8129Z" fill="#F2594B"/>
<path opacity="0.1" d="M92.6387 152.32L124.756 120.202L124.447 119.893L93.8199 150.52C93.3069 151.032 92.9048 151.645 92.6387 152.32Z" fill="black"/>
<path opacity="0.1" d="M93.3623 77.8889C94.3576 76.8935 95.7077 76.3343 97.1153 76.3343C98.523 76.3343 99.873 76.8935 100.868 77.8889L133.969 110.99L167.07 77.8889C168.065 76.8935 169.415 76.3343 170.823 76.3343C172.231 76.3343 173.581 76.8935 174.576 77.8889L176.283 79.5954C177.015 80.3277 177.517 81.2581 177.727 82.272C177.936 83.286 177.845 84.3392 177.464 85.3019L178.447 84.319C178.94 83.8262 179.331 83.241 179.597 82.5971C179.864 81.9531 180.001 81.2629 180.001 80.5659C180.001 79.8689 179.864 79.1787 179.597 78.5348C179.331 77.8908 178.94 77.3057 178.447 76.8129L176.74 75.1063C175.745 74.111 174.395 73.5518 172.987 73.5518C171.579 73.5518 170.229 74.111 169.234 75.1063L136.133 108.207L103.033 75.1063C102.037 74.111 100.687 73.5518 99.2795 73.5518C97.8719 73.5518 96.5218 74.111 95.5265 75.1063L93.8199 76.8129C93.3069 77.3254 92.9048 77.9379 92.6387 78.6125L93.3623 77.8889Z" fill="black"/>
<path opacity="0.1" d="M145.655 117.729L143.182 120.202L176.282 153.303C177.014 154.035 177.516 154.965 177.726 155.979C177.936 156.993 177.845 158.046 177.464 159.009L178.447 158.026C178.939 157.533 179.33 156.948 179.597 156.304C179.864 155.66 180.001 154.97 180.001 154.273C180.001 153.576 179.864 152.886 179.597 152.242C179.33 151.598 178.939 151.013 178.447 150.52L145.655 117.729Z" fill="black"/>
<path d="M39.2591 139.799C39.2591 153.78 30.9481 158.661 20.696 158.661C10.4438 158.661 2.13281 153.78 2.13281 139.799C2.13281 125.819 20.696 108.034 20.696 108.034C20.696 108.034 39.2591 125.819 39.2591 139.799Z" fill="#0069CA"/>
<path d="M20.2099 144.822L28.1221 130.347L20.2398 142.987L20.3253 137.726L25.7782 127.254L20.3479 136.334L20.5016 126.872L26.3407 118.534L20.5257 125.384L20.6217 108.034L20.0441 130.018L14.1311 120.968L19.9725 131.873L19.4194 142.441L19.403 142.16L12.5591 132.598L19.3821 143.151L19.313 144.473L19.3006 144.493L19.3063 144.601L17.9028 158.703H19.778L20.003 157.564L26.8094 147.036L20.0199 156.522L20.2099 144.822Z" fill="#3F3D56"/>
</g>
<defs>
<clipPath id="clip0">
<rect width="268.567" height="186" fill="white" transform="translate(0.716309 0.5)"/>
</clipPath>
</defs>
</svg>
