<svg width="124" height="97" viewBox="0 0 124 97" fill="none" xmlns="http://www.w3.org/2000/svg">
<g clip-path="url(#clip0)">
<path d="M37.8959 37.5158C37.2421 36.6688 36.3182 35.885 36.2597 34.8397C36.2061 33.881 36.9209 32.9292 36.6195 32.012C36.3876 31.3067 35.6229 30.8812 34.8756 30.6559C33.4449 30.2306 31.9138 30.2896 30.52 30.8236L30.5956 30.7702C29.7449 30.4672 28.7506 30.78 28.0813 31.3594C27.4119 31.9388 27.0141 32.7419 26.7055 33.5468C26.3968 34.3516 26.1577 35.1858 25.7288 35.9403C25.2999 36.6949 24.6432 37.381 23.7769 37.6418C24.0669 38.2204 24.9736 38.4188 25.5054 38.0202C25.6412 37.9098 25.7633 37.7836 25.8691 37.6442C26.2237 37.2129 26.5784 36.7817 26.9331 36.3504C27.298 36.9994 26.7528 37.8952 27.2014 38.4961C27.4327 38.806 27.8552 38.9237 28.2475 39.0081C31.3141 39.6624 34.4952 39.5444 37.5048 38.6647C37.7467 38.5934 38.0136 38.4953 38.1139 38.2763C38.2298 38.0236 38.0678 37.7386 37.8959 37.5158Z" fill="#2F2E41"/>
<path d="M46.5912 40.8215C46.572 40.9056 46.5596 40.9912 46.5539 41.0774L39.8513 44.9441L38.2221 44.0062L36.4854 46.2799L39.2081 48.2205C39.4281 48.3772 39.6929 48.4584 39.963 48.4519C40.233 48.4453 40.4936 48.3513 40.7057 48.184L47.6172 42.7314C47.9291 42.8469 48.2688 42.8647 48.591 42.7824C48.9133 42.7001 49.2028 42.5216 49.4212 42.2707C49.6396 42.0198 49.7764 41.7084 49.8134 41.3779C49.8505 41.0474 49.786 40.7134 49.6286 40.4204C49.4712 40.1274 49.2283 39.8893 48.9323 39.7377C48.6363 39.5861 48.3011 39.5282 47.9714 39.5717C47.6416 39.6152 47.333 39.7581 47.0864 39.9814C46.8399 40.2046 46.6671 40.4976 46.5912 40.8215H46.5912Z" fill="#FFB7B7"/>
<path d="M39.6273 45.128L37.461 47.9356C37.3994 48.0154 37.3212 48.0811 37.2319 48.1281C37.1426 48.175 37.0443 48.2022 36.9435 48.2077C36.8428 48.2132 36.742 48.197 36.6481 48.16C36.5542 48.1231 36.4694 48.0664 36.3994 47.9937L33.947 45.4471C33.54 45.1295 33.2756 44.6634 33.2118 44.1511C33.1479 43.6388 33.2898 43.122 33.6064 42.7142C33.923 42.3064 34.3884 42.0408 34.9005 41.9756C35.4127 41.9104 35.9298 42.051 36.3384 42.3665L39.4142 44.0864C39.5023 44.1356 39.5787 44.2033 39.6382 44.2848C39.6977 44.3662 39.739 44.4595 39.7592 44.5584C39.7795 44.6572 39.7781 44.7593 39.7554 44.8576C39.7326 44.9559 39.6889 45.0481 39.6273 45.128H39.6273Z" fill="#0069CA"/>
<path d="M36.6459 94.0464L38.5587 94.0462L39.4687 86.668L36.6455 86.6681L36.6459 94.0464Z" fill="#FFB7B7"/>
<path d="M36.1577 93.422L39.9249 93.4219H39.925C40.5617 93.4219 41.1723 93.6748 41.6225 94.1251C42.0727 94.5753 42.3257 95.1859 42.3257 95.8225V95.9006L36.1578 95.9008L36.1577 93.422Z" fill="#2F2E41"/>
<path d="M23.5394 94.0464L25.4523 94.0462L26.3623 86.668L23.5391 86.6681L23.5394 94.0464Z" fill="#FFB7B7"/>
<path d="M23.0513 93.422L26.8184 93.4219H26.8186C27.4553 93.4219 28.0659 93.6749 28.5161 94.1251C28.9663 94.5753 29.2193 95.1859 29.2193 95.8226V95.9006L23.0514 95.9008L23.0513 93.422Z" fill="#2F2E41"/>
<path d="M35.497 36.4734C35.6962 34.6585 34.3865 33.0257 32.5716 32.8265C30.7567 32.6273 29.1239 33.937 28.9247 35.7519C28.7255 37.5668 30.0352 39.1996 31.8501 39.3988C33.665 39.598 35.2978 38.2883 35.497 36.4734Z" fill="#FFB7B7"/>
<path d="M34.145 41.0693L36.0926 42.0342C36.0926 42.0342 38.2686 45.8158 37.0204 49.4045C36.4144 51.1468 38.1209 56.7008 38.1209 56.7008C38.1209 56.7008 40.7651 81.8583 40.7734 89.6228C37.4885 90.1278 34.3679 90.7519 34.2119 89.1917C34.0559 87.6314 32.3479 69.1831 32.3479 69.1831C32.3479 69.1831 29.9991 89.6598 28.1268 89.9718C26.2544 90.2839 22.5098 89.8158 22.5098 89.8158C22.5098 89.8158 25.4826 59.8214 27.511 57.9491L27.8231 56.3888L27.8147 42.3832L30.1517 41.268L34.145 41.0693Z" fill="#2F2E41"/>
<path d="M27.178 62.3303C27.3935 62.2137 27.5808 62.0512 27.7268 61.8544C27.8727 61.6575 27.9737 61.4311 28.0227 61.191C28.0716 60.9509 28.0673 60.703 28.0101 60.4647C27.9529 60.2264 27.8441 60.0036 27.6915 59.8119L29.9565 44.7143L26.9973 44.5723L25.2317 59.6074C24.9266 59.8852 24.7341 60.2652 24.6906 60.6754C24.647 61.0857 24.7555 61.4977 24.9954 61.8333C25.2353 62.169 25.59 62.4049 25.9922 62.4965C26.3945 62.5881 26.8164 62.529 27.178 62.3303Z" fill="#FFB7B7"/>
<path d="M29.8923 48.4979L26.3532 48.2744C26.2525 48.2681 26.1544 48.2401 26.0654 48.1924C25.9765 48.1447 25.899 48.0784 25.838 47.998C25.777 47.9176 25.7341 47.825 25.7121 47.7265C25.6902 47.628 25.6897 47.526 25.7107 47.4273L26.4482 43.9697C26.4835 43.4546 26.7217 42.9746 27.1105 42.6349C27.4993 42.2952 28.0069 42.1235 28.5221 42.1576C29.0373 42.1916 29.5179 42.4286 29.8586 42.8165C30.1993 43.2044 30.3723 43.7115 30.3396 44.2268L30.6362 47.7382C30.6446 47.8388 30.6313 47.94 30.5972 48.0349C30.563 48.1298 30.5088 48.2163 30.4382 48.2884C30.3676 48.3605 30.2823 48.4165 30.1881 48.4527C30.0939 48.4888 29.993 48.5042 29.8923 48.4979H29.8923Z" fill="#0069CA"/>
<path d="M35.6759 33.9636C35.5471 33.3793 35.1287 32.8951 34.6467 32.5405C33.852 31.9559 32.8776 31.6686 31.8929 31.7285C30.9083 31.7884 29.9758 32.1917 29.2579 32.8682C28.8567 33.2225 28.5675 33.686 28.4257 34.2021C28.358 34.46 28.3544 34.7306 28.4151 34.9902C28.4759 35.2499 28.5992 35.4908 28.7744 35.6919L28.8404 35.7332C28.7805 35.4792 28.9778 35.2254 29.2136 35.1133C29.4587 35.0234 29.7146 34.966 29.9747 34.9427C30.3683 34.8683 30.7412 34.7103 31.0685 34.4794C31.3957 34.2485 31.6696 33.95 31.8715 33.6042C32.0212 34.0299 32.2602 34.4185 32.5726 34.7441C32.885 35.0696 33.2635 35.3245 33.6826 35.4916C34.1195 35.6625 35.3196 35.8974 35.7356 35.6805C36.2662 35.4038 35.8048 34.548 35.6759 33.9636Z" fill="#2F2E41"/>
<path d="M11.3508 89.4884C11.9228 89.6895 12.537 89.7399 13.1341 89.6347C13.7313 89.5295 14.2912 89.2723 14.7601 88.8879C15.9542 87.8856 16.3287 86.2348 16.6332 84.7059L17.5343 80.1836L15.6479 81.4825C14.2912 82.4165 12.9041 83.3806 11.9649 84.7336C11.0256 86.0865 10.6158 87.9336 11.3703 89.3976" fill="#E6E6E6"/>
<path d="M11.6422 95.2789C11.4048 93.5491 11.1605 91.797 11.3275 90.0487C11.4754 88.496 11.9491 86.9797 12.9136 85.7359C13.4255 85.0771 14.0484 84.5126 14.7543 84.0678C14.9383 83.9517 15.1078 84.2433 14.9245 84.359C13.7031 85.1309 12.7583 86.2707 12.2265 87.6142C11.6391 89.1081 11.5448 90.7367 11.646 92.3237C11.7071 93.2834 11.8371 94.2368 11.9676 95.1891C11.9779 95.2322 11.9715 95.2775 11.9496 95.316C11.9277 95.3545 11.892 95.3833 11.8498 95.3965C11.8067 95.4081 11.7607 95.4023 11.7219 95.3802C11.683 95.3582 11.6545 95.3217 11.6424 95.2787L11.6422 95.2789Z" fill="#F2F2F2"/>
<path d="M13.3511 92.5021C13.5964 92.8751 13.9336 93.1785 14.3302 93.3833C14.7268 93.5881 15.1695 93.6873 15.6156 93.6713C16.7623 93.6169 17.7178 92.8169 18.5779 92.0572L21.1225 89.8105L19.4385 89.7299C18.2274 89.6719 16.9851 89.6175 15.8316 89.9914C14.6781 90.3653 13.6142 91.2637 13.4034 92.4577" fill="#E6E6E6"/>
<path d="M10.9709 96.2733C12.114 94.2508 13.4397 92.003 15.8088 91.2846C16.4675 91.0855 17.1581 91.0142 17.8436 91.0745C18.0596 91.0931 18.0057 91.4261 17.7901 91.4076C16.6411 91.3122 15.4943 91.6156 14.5428 92.2667C13.6271 92.8899 12.9142 93.7564 12.3108 94.6752C11.9412 95.2381 11.6101 95.8248 11.2791 96.4107C11.1733 96.598 10.8639 96.4628 10.9709 96.2733Z" fill="#F2F2F2"/>
<path d="M88.2128 58.8817C86.0678 56.0112 82.142 55.3184 80.1912 56.7762C78.2404 58.2339 77.7923 62.1951 79.9372 65.0656C81.9226 67.7225 85.5198 68.4472 87.501 67.4517C87.4946 67.4828 87.4942 67.5148 87.4999 67.5461L87.6116 68.0983C87.6201 68.1404 87.6392 68.1796 87.6671 68.2122C87.6951 68.2449 87.7309 68.2698 87.7712 68.2847C87.8115 68.2996 87.8549 68.3039 87.8973 68.2973C87.9398 68.2907 87.9798 68.2733 88.0137 68.2469L88.9596 67.5079C88.9934 67.4815 89.0199 67.4468 89.0366 67.4073C89.0533 67.3677 89.0596 67.3245 89.0549 67.2818C89.0502 67.2391 89.0347 67.1983 89.0098 67.1633C88.9849 67.1283 88.9515 67.1003 88.9127 67.0818L88.4039 66.8398C88.386 66.8318 88.3672 66.8259 88.3479 66.8222C89.875 65.2077 90.2025 61.5444 88.2128 58.8817Z" fill="#0069CA"/>
<path d="M83.5205 57.7982C84.5697 57.9649 85.5149 58.5281 86.161 59.3714C86.8071 60.2148 87.1047 61.2741 86.9924 62.3305C86.9693 62.5725 87.3474 62.5709 87.3703 62.3305C87.4785 61.1918 87.1522 60.0544 86.4568 59.1462C85.7614 58.238 84.7484 57.6263 83.621 57.4338C83.383 57.3934 83.2808 57.7575 83.5205 57.7982Z" fill="white"/>
<path d="M91.7086 9.26356C93.5839 6.21008 92.7777 2.306 90.7025 1.03154C88.6273 -0.242931 84.7807 0.803661 82.9054 3.85714C81.1696 6.68352 81.8248 10.2939 83.4816 11.7674C83.4504 11.773 83.4205 11.7844 83.3935 11.8012L82.9216 12.109C82.8856 12.1324 82.8562 12.1647 82.8362 12.2027C82.8162 12.2407 82.8063 12.2832 82.8073 12.3261C82.8084 12.3691 82.8204 12.411 82.8422 12.448C82.864 12.485 82.8949 12.5158 82.932 12.5375L83.9681 13.1436C84.0052 13.1653 84.0472 13.1771 84.0901 13.178C84.133 13.1789 84.1755 13.1688 84.2134 13.1487C84.2514 13.1286 84.2835 13.0991 84.3069 13.063C84.3302 13.0269 84.3439 12.9855 84.3468 12.9427L84.3837 12.3804C84.3846 12.3608 84.3831 12.3412 84.3794 12.3219C86.4438 13.1448 89.969 12.0961 91.7086 9.26356Z" fill="#0069CA"/>
<path d="M90.9828 4.50329C91.2154 5.5399 91.0412 6.62627 90.4961 7.53816C89.9509 8.45004 89.0765 9.11782 88.0533 9.40367C87.8199 9.47163 87.961 9.82242 88.1929 9.7549C89.291 9.43485 90.2275 8.71148 90.8146 7.72986C91.4018 6.74823 91.5961 5.58093 91.3586 4.46205C91.3083 4.22603 90.9321 4.26551 90.9828 4.50329Z" fill="white"/>
<path d="M58.4751 23.7521C58.3183 20.1722 55.4637 17.3896 53.0307 17.4961C50.5978 17.6027 47.9974 20.6243 48.1542 24.2042C48.2994 27.5178 50.8644 30.1418 53.0623 30.4344C53.0395 30.4565 53.0211 30.4828 53.0082 30.5117L52.7896 31.031C52.773 31.0706 52.7667 31.1138 52.7714 31.1565C52.7762 31.1992 52.7917 31.24 52.8166 31.2749C52.8415 31.3099 52.875 31.338 52.9138 31.3564C52.9526 31.3748 52.9954 31.383 53.0383 31.3802L54.2361 31.302C54.2789 31.2992 54.3204 31.2855 54.3564 31.2622C54.3925 31.2388 54.422 31.2067 54.4422 31.1688C54.4623 31.1308 54.4725 31.0884 54.4716 31.0454C54.4707 31.0025 54.4589 30.9605 54.4372 30.9234L54.1529 30.437C54.1427 30.4202 54.1304 30.4048 54.1165 30.3909C56.2876 29.9163 58.6206 27.073 58.4751 23.7521Z" fill="#0069CA"/>
<path d="M55.2076 20.215C55.981 20.9434 56.4452 21.9409 56.5043 23.0017C56.5635 24.0624 56.2132 25.1054 55.5256 25.9153C55.3703 26.1024 55.6837 26.3139 55.838 26.1281C56.5684 25.2479 56.9391 24.1241 56.8756 22.982C56.8122 21.84 56.3193 20.7642 55.4958 19.9703C55.322 19.8029 55.0325 20.0464 55.2076 20.215Z" fill="white"/>
<path d="M69.6309 47.4999C68.6931 47.4408 67.7826 47.1603 66.9741 46.6814C66.1657 46.2025 65.4822 45.5389 64.9797 44.7448C64.8389 44.5197 64.6551 44.2723 64.7526 43.9953C64.7865 43.889 64.8555 43.7974 64.9483 43.7355C65.041 43.6735 65.1521 43.6449 65.2632 43.6542C65.5506 43.6892 65.7361 43.9704 65.7715 44.2397C65.8116 44.5453 65.5961 44.7852 65.3299 44.8988C64.6795 45.1762 64.0232 44.7475 63.4934 44.4053C62.2862 43.6255 60.9584 42.9204 59.4955 42.8315C58.1421 42.7493 56.6907 43.28 55.9379 44.4537C55.8062 44.659 56.1332 44.8488 56.2643 44.6444C57.0109 43.4804 58.5202 43.0624 59.8325 43.2423C60.6145 43.3657 61.3697 43.6221 62.0652 44.0003C62.4259 44.1875 62.7758 44.395 63.1185 44.6131C63.4447 44.8407 63.7904 45.0389 64.1516 45.2054C64.754 45.4528 65.5515 45.4335 65.9723 44.8638C66.3648 44.3322 66.0615 43.4473 65.4049 43.2979C65.2608 43.2695 65.112 43.2773 64.9717 43.3206C64.8315 43.3639 64.7041 43.4413 64.6011 43.5459C64.4981 43.6505 64.4227 43.779 64.3816 43.92C64.3405 44.0609 64.335 44.2098 64.3656 44.3534C64.4311 44.6664 64.6668 44.9727 64.8492 45.2285C65.3974 45.9996 66.1115 46.638 66.9391 47.0965C67.7666 47.555 68.6865 47.822 69.6309 47.8778C69.874 47.8899 69.8734 47.5119 69.6309 47.4999L69.6309 47.4999Z" fill="#CCCCCC"/>
<path d="M105.929 21.4596C106.963 20.9782 108.234 20.8204 109.287 21.2677C110.34 21.7151 111.057 22.8616 110.717 23.8763C110.563 24.3363 110.211 24.7888 110.348 25.2534C110.453 25.611 110.821 25.8472 111.182 26.0151C111.544 26.1829 111.939 26.3241 112.2 26.6072C112.461 26.8904 112.516 27.3779 112.189 27.5975C112.082 27.6698 111.947 27.7041 111.843 27.7803C111.754 27.8525 111.69 27.9506 111.66 28.061C111.629 28.1713 111.634 28.2884 111.673 28.396C111.76 28.6123 111.904 28.8012 112.089 28.9428C112.459 29.2623 112.949 29.6279 112.834 30.0814C112.791 30.2026 112.72 30.3117 112.626 30.3994C112.532 30.4872 112.419 30.5511 112.295 30.5855C112.038 30.6597 111.771 30.6949 111.504 30.69L100.573 31.0343C100.212 31.0614 99.8497 31.0411 99.4941 30.974C99.3213 30.9425 99.1568 30.8757 99.011 30.7777C98.8651 30.6797 98.7411 30.5527 98.6466 30.4047C98.4372 30.0172 98.5747 29.54 98.8332 29.1782C99.0917 28.8164 99.4575 28.531 99.7598 28.1988C100.062 27.8666 100.309 27.4519 100.256 27.0225C100.213 26.6788 99.9868 26.3818 99.824 26.0695C99.6613 25.7572 99.5668 25.3669 99.7776 25.0796C100.075 24.6748 100.788 24.7114 101.125 24.3341C101.38 24.0494 101.331 23.6396 101.356 23.2725C101.417 22.3894 102.028 21.5554 102.899 21.1682C103.341 20.9782 103.823 20.8962 104.303 20.9289C104.784 20.9616 105.25 21.1081 105.662 21.3564L105.929 21.4596Z" fill="#2F2E41"/>
<path d="M119.24 65.1614V66.949L112.345 67.7995L112.345 65.1611L119.24 65.1614Z" fill="#9E616A"/>
<path d="M120.973 64.7052L120.973 70.4689H120.9C120.305 70.4689 119.734 70.2325 119.313 69.8118C118.893 69.3911 118.656 68.8205 118.656 68.2255V68.2254L118.656 64.7051L120.973 64.7052Z" fill="#2F2E41"/>
<path d="M110.717 68.2016L110.278 69.9343L103.385 69.0662L104.033 66.5088L110.717 68.2016Z" fill="#9E616A"/>
<path d="M112.508 68.1849L111.093 73.7723L111.023 73.7544C110.446 73.6083 109.951 73.2391 109.646 72.728C109.342 72.2169 109.253 71.6057 109.399 71.0289L109.399 71.0288L110.263 67.6162L112.508 68.1849Z" fill="#2F2E41"/>
<path d="M108.956 48.1562L109.328 48.5441C109.328 48.5441 111.758 50.449 109.96 55.4669L107.02 63.9366L116.875 64.3209L116.664 68.1912C116.664 68.1912 102.372 68.9861 102.498 66.6309C102.623 64.2756 103.15 55.5549 103.15 55.5549L100.181 53.1705L100.897 49.1375L108.956 48.1562Z" fill="#2F2E41"/>
<path d="M101.323 51.999L100.181 53.1695L96.3533 63.6915C96.3533 63.6915 95.7701 66.3159 97.0823 66.8992C98.3945 67.4824 106.838 70.7448 106.838 70.7448L107.7 67.6417L101.194 63.7368L104.227 59.7548L104.683 53.4786L101.323 51.999Z" fill="#2F2E41"/>
<path d="M101.383 33.4368L111.099 31.4941L111.31 36.8246L108.794 42.1887L109.329 48.5429L100.621 50.0642L100.894 41.709C100.894 41.709 98.5555 38.4102 99.933 35.0851L101.383 33.4368Z" fill="#E4E4E4"/>
<path d="M123.048 20.7919C123.096 21.0157 123.095 21.2474 123.045 21.4707C122.994 21.6941 122.895 21.9036 122.755 22.0846C122.615 22.2656 122.437 22.4136 122.233 22.5182C122.029 22.6228 121.805 22.6815 121.576 22.6902L112.259 33.4939L110.093 30.865L119.933 21.072C119.944 20.6866 120.095 20.3187 120.36 20.0378C120.624 19.757 120.982 19.5828 121.366 19.5483C121.75 19.5138 122.133 19.6213 122.443 19.8505C122.753 20.0797 122.968 20.4147 123.048 20.7919Z" fill="#9E616A"/>
<path d="M114.288 32.3158C114.29 32.4167 114.271 32.5169 114.23 32.6096C114.19 32.7022 114.131 32.7851 114.056 32.8526L111.436 35.211C111.107 35.609 110.634 35.8604 110.12 35.91C109.606 35.9597 109.093 35.8036 108.694 35.4759C108.295 35.1482 108.043 34.6756 107.992 34.1619C107.94 33.6481 108.095 33.135 108.422 32.7351L110.25 29.7082C110.302 29.6219 110.373 29.5478 110.456 29.4909C110.539 29.4341 110.634 29.396 110.734 29.3791C110.833 29.3622 110.935 29.3669 111.033 29.3929C111.13 29.419 111.221 29.4658 111.299 29.53L114.033 31.7894C114.111 31.8536 114.174 31.9339 114.218 32.0248C114.262 32.1156 114.286 32.2149 114.288 32.3158Z" fill="#E4E4E4"/>
<path d="M86.1492 46.1826C86.1346 45.954 86.1703 45.7251 86.2538 45.5119C86.3373 45.2986 86.4665 45.1063 86.6324 44.9484C86.7982 44.7905 86.9967 44.671 87.2138 44.5981C87.4308 44.5252 87.6613 44.5008 87.8888 44.5266L98.7212 35.2432L100.468 38.1673L89.271 46.3731C89.2024 46.7524 88.9969 47.0934 88.6936 47.3314C88.3904 47.5695 88.0103 47.6879 87.6255 47.6645C87.2407 47.641 86.8778 47.4771 86.6057 47.204C86.3337 46.9309 86.1712 46.5675 86.1492 46.1826V46.1826Z" fill="#9E616A"/>
<path d="M96.5386 36.104C96.5516 36.0039 96.586 35.9078 96.6395 35.8222C96.693 35.7366 96.7643 35.6636 96.8486 35.6081L99.7926 33.6696C100.177 33.3253 100.683 33.1477 101.199 33.1757C101.714 33.2037 102.198 33.435 102.543 33.8189C102.888 34.2028 103.067 34.7079 103.041 35.2236C103.014 35.7393 102.784 36.2234 102.401 36.5698L100.139 39.2879C100.075 39.3655 99.9942 39.4282 99.9032 39.4719C99.8122 39.5155 99.7129 39.539 99.612 39.5408C99.5111 39.5426 99.411 39.5227 99.3185 39.4823C99.226 39.4419 99.1433 39.382 99.076 39.3068L96.7115 36.6627C96.6442 36.5875 96.5939 36.4987 96.5641 36.4023C96.5342 36.3058 96.5256 36.2041 96.5386 36.104Z" fill="#E4E4E4"/>
<path d="M105.524 30.9503C107.502 30.9503 109.105 29.347 109.105 27.3692C109.105 25.3914 107.502 23.7881 105.524 23.7881C103.546 23.7881 101.943 25.3914 101.943 27.3692C101.943 29.347 103.546 30.9503 105.524 30.9503Z" fill="#9E616A"/>
<path d="M109.188 26.8594C108.057 26.7686 107.118 25.6388 107.235 24.5104C107.249 24.9755 107.09 25.4293 106.791 25.7854C106.491 26.1415 106.071 26.375 105.611 26.4416C105.092 26.4988 104.524 26.3419 104.072 26.6036C103.572 26.8934 103.412 27.5973 102.891 27.8477C102.387 28.0896 101.748 27.7597 101.499 27.2596C101.251 26.7595 101.312 26.1588 101.476 25.6251C101.712 24.8641 102.14 24.1769 102.719 23.6303C103.298 23.0837 104.009 22.6964 104.782 22.5059C105.556 22.3155 106.365 22.3284 107.132 22.5435C107.899 22.7586 108.597 23.1685 109.159 23.7333C109.634 24.2116 110.012 24.8212 110.073 25.4929C110.134 26.1646 109.823 26.8934 109.22 27.1951L109.188 26.8594Z" fill="#2F2E41"/>
<path d="M56.6151 96.1334H1.06377C1.0251 96.1334 0.988019 96.118 0.960676 96.0907C0.933332 96.0634 0.917969 96.0263 0.917969 95.9876C0.917969 95.9489 0.933332 95.9118 0.960676 95.8845C0.988019 95.8572 1.0251 95.8418 1.06377 95.8418H56.6151C56.6538 95.8418 56.6909 95.8572 56.7182 95.8845C56.7456 95.9118 56.7609 95.9489 56.7609 95.9876C56.7609 96.0263 56.7456 96.0634 56.7182 96.0907C56.6909 96.118 56.6538 96.1334 56.6151 96.1334Z" fill="#CACACA"/>
</g>
<defs>
<clipPath id="clip0">
<rect width="122.164" height="96" fill="white" transform="translate(0.917969 0.5)"/>
</clipPath>
</defs>
</svg>
