<svg width="174" height="187" viewBox="0 0 174 187" fill="none" xmlns="http://www.w3.org/2000/svg">
<g clip-path="url(#clip0)">
<path d="M110.221 106.03L35.498 125.272C32.9633 125.922 30.2744 125.54 28.0213 124.209C25.7681 122.879 24.1347 120.709 23.4793 118.176L0.881186 30.4202C0.23153 27.8855 0.613816 25.1966 1.94418 22.9435C3.27455 20.6903 5.44434 19.0569 7.97755 18.4015L77.4947 0.5L95.2879 8.4654L117.317 94.0115C117.967 96.5462 117.584 99.2351 116.254 101.488C114.924 103.741 112.754 105.375 110.221 106.03Z" fill="#F2F2F2"/>
<path d="M8.68616 21.1527C6.88221 21.6194 5.33705 22.7826 4.38967 24.3871C3.44229 25.9916 3.17005 27.9065 3.63269 29.7114L26.2308 117.467C26.6975 119.271 27.8607 120.816 29.4652 121.764C31.0698 122.711 32.9846 122.983 34.7896 122.521L109.512 103.279C111.316 102.812 112.861 101.649 113.809 100.044C114.756 98.4396 115.028 96.5248 114.566 94.7198L92.8778 10.4992L77.2409 3.49902L8.68616 21.1527Z" fill="white"/>
<path d="M95.0981 8.91782L83.5338 11.8958C82.6896 12.1132 81.7935 11.9863 81.0429 11.5431C80.2922 11.0998 79.7483 10.3765 79.5309 9.5323L77.3314 0.991042C77.3218 0.953649 77.3229 0.914298 77.3346 0.877503C77.3463 0.840709 77.3682 0.80796 77.3977 0.783012C77.4271 0.758064 77.463 0.741927 77.5013 0.736451C77.5395 0.730976 77.5785 0.736383 77.6138 0.752054L95.1302 8.53111C95.1692 8.54842 95.2019 8.57744 95.2236 8.61414C95.2454 8.65083 95.2551 8.69338 95.2516 8.73588C95.2481 8.77839 95.2314 8.81874 95.2039 8.85134C95.1764 8.88394 95.1394 8.90718 95.0981 8.91782Z" fill="#F2F2F2"/>
<path d="M89.0142 83.8601L54.994 92.6207C54.785 92.6745 54.5675 92.6866 54.3538 92.6564C54.1401 92.6261 53.9344 92.5541 53.7486 92.4443C53.5627 92.3346 53.4003 92.1893 53.2706 92.0168C53.1409 91.8443 53.0464 91.648 52.9926 91.439C52.9388 91.2299 52.9266 91.0124 52.9569 90.7987C52.9872 90.585 53.0592 90.3793 53.169 90.1935C53.2787 90.0076 53.424 89.8452 53.5965 89.7155C53.769 89.5858 53.9653 89.4913 54.1743 89.4375L88.1945 80.6769C88.4035 80.6231 88.621 80.611 88.8347 80.6412C89.0484 80.6715 89.2541 80.7435 89.44 80.8533C89.6258 80.963 89.7882 81.1083 89.9179 81.2808C90.0476 81.4533 90.1421 81.6496 90.1959 81.8587C90.2497 82.0677 90.2619 82.2852 90.2316 82.4989C90.2013 82.7126 90.1293 82.9183 90.0196 83.1041C89.9098 83.29 89.7646 83.4524 89.5921 83.5821C89.4196 83.7118 89.2232 83.8063 89.0142 83.8601Z" fill="#CCCCCC"/>
<path d="M96.9628 87.5404L56.3773 97.9916C55.9552 98.1003 55.5072 98.0369 55.1319 97.8153C54.7565 97.5936 54.4846 97.232 54.3759 96.8099C54.2672 96.3878 54.3306 95.9398 54.5523 95.5644C54.7739 95.1891 55.1355 94.9171 55.5576 94.8084L96.1431 84.3572C96.5651 84.249 97.0127 84.3127 97.3878 84.5343C97.7628 84.756 98.0345 85.1175 98.1431 85.5393C98.2517 85.9612 98.1884 86.4089 97.9671 86.7842C97.7458 87.1594 97.3846 87.4314 96.9628 87.5404Z" fill="#CCCCCC"/>
<path d="M41.1089 103.171C44.3171 103.171 46.9179 100.57 46.9179 97.3616C46.9179 94.1535 44.3171 91.5527 41.1089 91.5527C37.9008 91.5527 35.3 94.1535 35.3 97.3616C35.3 100.57 37.9008 103.171 41.1089 103.171Z" fill="#E6E6E6"/>
<path d="M85.3968 68.6568L40.2147 80.2874C38.9089 80.6219 37.5237 80.4249 36.3631 79.7394C35.2024 79.054 34.361 77.9361 34.0235 76.6311L24.555 39.8482C24.2205 38.5424 24.4175 37.1573 25.103 35.9966C25.7884 34.8359 26.9063 33.9946 28.2113 33.6571L73.3935 22.0265C74.6992 21.6919 76.0844 21.889 77.2451 22.5744C78.4057 23.2599 79.2471 24.3777 79.5846 25.6827L89.0531 62.4656C89.3877 63.7714 89.1906 65.1566 88.5051 66.3172C87.8197 67.4779 86.7018 68.3193 85.3968 68.6568Z" fill="white"/>
<path d="M85.3968 68.6568L40.2147 80.2874C38.9089 80.6219 37.5237 80.4249 36.3631 79.7394C35.2024 79.054 34.361 77.9361 34.0235 76.6311L24.555 39.8482C24.2205 38.5424 24.4175 37.1573 25.103 35.9966C25.7884 34.8359 26.9063 33.9946 28.2113 33.6571L73.3935 22.0265C74.6992 21.6919 76.0844 21.889 77.2451 22.5744C78.4057 23.2599 79.2471 24.3777 79.5846 25.6827L89.0531 62.4656C89.3877 63.7714 89.1906 65.1566 88.5051 66.3172C87.8197 67.4779 86.7018 68.3193 85.3968 68.6568ZM28.3604 34.2363C27.2089 34.5341 26.2226 35.2765 25.6178 36.3006C25.013 37.3247 24.8391 38.5469 25.1343 39.6991L34.6028 76.482C34.9006 77.6335 35.643 78.6198 36.6671 79.2246C37.6912 79.8294 38.9134 80.0033 40.0656 79.7081L85.2478 68.0775C86.3992 67.7797 87.3856 67.0373 87.9904 66.0132C88.5952 64.9891 88.7691 63.7669 88.4739 62.6148L79.0053 25.8318C78.7075 24.6804 77.9651 23.694 76.941 23.0892C75.9169 22.4844 74.6947 22.3105 73.5426 22.6057L28.3604 34.2363Z" fill="#E6E6E6"/>
<path d="M71.1013 34.3943L48.2984 40.2641C48.099 40.3198 47.886 40.2977 47.7023 40.2022C47.5186 40.1068 47.378 39.9453 47.3089 39.7501C47.2768 39.6482 47.2657 39.5408 47.2764 39.4345C47.2871 39.3281 47.3194 39.2251 47.3713 39.1317C47.4231 39.0382 47.4935 38.9563 47.578 38.8909C47.6626 38.8256 47.7596 38.7781 47.8631 38.7515L71.075 32.7764C72.0126 33.2515 71.7659 34.2232 71.101 34.3944L71.1013 34.3943Z" fill="#F2F2F2"/>
<path d="M72.131 38.3953L49.3282 44.2651C49.1288 44.3207 48.9158 44.2986 48.7321 44.2032C48.5484 44.1078 48.4078 43.9462 48.3387 43.7511C48.3066 43.6492 48.2955 43.5418 48.3062 43.4355C48.3169 43.3291 48.3492 43.2261 48.4011 43.1326C48.4529 43.0392 48.5232 42.9573 48.6078 42.8919C48.6924 42.8265 48.7893 42.7791 48.8928 42.7525L72.1048 36.7773C73.0424 37.2524 72.7957 38.2242 72.1308 38.3953L72.131 38.3953Z" fill="#F2F2F2"/>
<path d="M44.9848 47.8106L38.0255 49.602C37.7983 49.6603 37.5571 49.626 37.3551 49.5067C37.1531 49.3874 37.0066 49.1928 36.9479 48.9656L34.8339 40.7532C34.7756 40.5259 34.8099 40.2848 34.9292 40.0827C35.0486 39.8807 35.2431 39.7343 35.4703 39.6755L42.4295 37.8841C42.6568 37.8259 42.8979 37.8603 43.0999 37.9796C43.3019 38.0989 43.4484 38.2934 43.5072 38.5205L45.6212 46.733C45.6794 46.9603 45.6451 47.2014 45.5258 47.4034C45.4065 47.6054 45.2119 47.7519 44.9848 47.8106V47.8106Z" fill="#E6E6E6"/>
<path d="M74.1727 46.6004L39.3714 55.5589C39.172 55.6145 38.959 55.5924 38.7753 55.497C38.5916 55.4016 38.451 55.24 38.3819 55.0449C38.3498 54.943 38.3387 54.8356 38.3494 54.7292C38.3601 54.6229 38.3924 54.5199 38.4443 54.4264C38.4961 54.3329 38.5665 54.251 38.651 54.1857C38.7356 54.1203 38.8326 54.0729 38.9361 54.0462L74.1467 44.9824C75.0844 45.4575 74.8376 46.4293 74.1727 46.6004L74.1727 46.6004Z" fill="#F2F2F2"/>
<path d="M75.2025 50.6024L40.4012 59.5608C40.2018 59.6165 39.9888 59.5943 39.8051 59.4989C39.6214 59.4035 39.4808 59.2419 39.4117 59.0468C39.3796 58.9449 39.3685 58.8375 39.3792 58.7312C39.3899 58.6248 39.4222 58.5218 39.474 58.4283C39.5259 58.3349 39.5963 58.253 39.6808 58.1876C39.7654 58.1222 39.8624 58.0748 39.9659 58.0482L75.1765 48.9844C76.1142 49.4595 75.8674 50.4312 75.2025 50.6024V50.6024Z" fill="#F2F2F2"/>
<path d="M76.2318 54.6004L41.4305 63.5588C41.2311 63.6145 41.0181 63.5924 40.8344 63.497C40.6507 63.4016 40.5101 63.24 40.441 63.0449C40.4089 62.943 40.3978 62.8356 40.4085 62.7292C40.4192 62.6229 40.4515 62.5198 40.5033 62.4264C40.5552 62.3329 40.6256 62.251 40.7101 62.1857C40.7947 62.1203 40.8916 62.0728 40.9951 62.0462L76.2058 52.9824C77.1434 53.4575 76.8967 54.4293 76.2318 54.6004Z" fill="#F2F2F2"/>
<path d="M77.2616 58.6014L42.4603 67.5598C42.2609 67.6155 42.0479 67.5934 41.8642 67.498C41.6805 67.4025 41.5399 67.241 41.4708 67.0459C41.4386 66.9439 41.4276 66.8365 41.4383 66.7302C41.449 66.6239 41.4813 66.5208 41.5331 66.4274C41.585 66.3339 41.6553 66.252 41.7399 66.1866C41.8244 66.1213 41.9214 66.0738 42.0249 66.0472L77.2356 56.9834C78.1732 57.4585 77.9265 58.4303 77.2616 58.6014L77.2616 58.6014Z" fill="#F2F2F2"/>
<path d="M78.2909 62.5994L43.4896 71.5579C43.2902 71.6135 43.0772 71.5914 42.8935 71.496C42.7098 71.4006 42.5692 71.239 42.5001 71.0439C42.4679 70.942 42.4569 70.8346 42.4676 70.7282C42.4783 70.6219 42.5106 70.5189 42.5624 70.4254C42.6143 70.332 42.6846 70.25 42.7692 70.1847C42.8537 70.1193 42.9507 70.0719 43.0542 70.0452L78.2649 60.9814C79.2025 61.4565 78.9558 62.4283 78.2909 62.5994Z" fill="#F2F2F2"/>
<path d="M41.5375 99.3991C41.411 99.4319 41.2772 99.4227 41.1564 99.3728L41.1489 99.3697L39.5665 98.6988C39.493 98.6677 39.4264 98.6225 39.3705 98.5656C39.3146 98.5088 39.2704 98.4415 39.2405 98.3675C39.2106 98.2936 39.1956 98.2145 39.1963 98.1347C39.197 98.055 39.2135 97.9762 39.2447 97.9028C39.2759 97.8294 39.3212 97.7629 39.3782 97.707C39.4351 97.6512 39.5025 97.6071 39.5765 97.5773C39.6505 97.5476 39.7296 97.5327 39.8094 97.5335C39.8891 97.5344 39.9679 97.5509 40.0412 97.5822L41.0666 98.0184L42.4103 94.8574C42.4415 94.7841 42.4868 94.7177 42.5436 94.6619C42.6005 94.6061 42.6677 94.5621 42.7416 94.5323C42.8154 94.5025 42.8944 94.4876 42.9741 94.4883C43.0537 94.4891 43.1324 94.5055 43.2057 94.5366L43.2059 94.5367L43.1978 94.5574L43.2062 94.5366C43.3542 94.5997 43.471 94.7189 43.5311 94.8681C43.5912 95.0172 43.5897 95.1841 43.5269 95.3322L41.9461 99.0488C41.9094 99.1345 41.8535 99.2106 41.7827 99.2712C41.7119 99.3318 41.6281 99.3753 41.5378 99.3982L41.5375 99.3991Z" fill="white"/>
<path d="M138.881 139.472H61.7209C59.1043 139.469 56.5957 138.428 54.7455 136.578C52.8953 134.727 51.8545 132.219 51.8516 129.602V38.9836C51.8545 36.367 52.8953 33.8584 54.7455 32.0082C56.5957 30.158 59.1043 29.1172 61.7209 29.1143H133.506L148.751 41.2652V129.602C148.748 132.219 147.707 134.727 145.857 136.578C144.006 138.428 141.498 139.469 138.881 139.472Z" fill="#E6E6E6"/>
<path d="M61.7211 31.9551C59.8577 31.9572 58.0713 32.6983 56.7537 34.0159C55.4361 35.3335 54.695 37.1199 54.6929 38.9832V129.602C54.695 131.465 55.4361 133.252 56.7537 134.569C58.0713 135.887 59.8577 136.628 61.7211 136.63H138.881C140.745 136.628 142.531 135.887 143.849 134.569C145.166 133.252 145.907 131.465 145.91 129.602V42.6336L132.512 31.9551H61.7211Z" fill="white"/>
<path d="M123.874 58.3046H88.7436C88.3077 58.3046 87.8897 58.1314 87.5815 57.8232C87.2733 57.515 87.1001 57.097 87.1001 56.6611C87.1001 56.2252 87.2733 55.8072 87.5815 55.4989C87.8897 55.1907 88.3077 55.0176 88.7436 55.0176H123.874C124.31 55.0176 124.728 55.1907 125.036 55.4989C125.344 55.8072 125.517 56.2252 125.517 56.6611C125.517 57.097 125.344 57.515 125.036 57.8232C124.728 58.1314 124.31 58.3046 123.874 58.3046Z" fill="#0069CA"/>
<path d="M130.653 63.8515H88.7436C88.3081 63.8509 87.8906 63.6775 87.5829 63.3693C87.2751 63.0612 87.1023 62.6435 87.1023 62.208C87.1023 61.7725 87.2751 61.3548 87.5829 61.0466C87.8906 60.7384 88.3081 60.565 88.7436 60.5645H130.653C130.869 60.5642 131.083 60.6065 131.283 60.6889C131.482 60.7714 131.664 60.8924 131.817 61.045C131.97 61.1977 132.091 61.379 132.174 61.5785C132.256 61.778 132.299 61.9919 132.299 62.208C132.299 62.424 132.256 62.6379 132.174 62.8374C132.091 63.037 131.97 63.2182 131.817 63.3709C131.664 63.5235 131.482 63.6445 131.283 63.727C131.083 63.8095 130.869 63.8518 130.653 63.8515Z" fill="#0069CA"/>
<path d="M123.874 79.875H88.745C88.3091 79.875 87.8911 80.0481 87.5829 80.3563C87.2747 80.6645 87.1016 81.0825 87.1016 81.5184C87.1016 81.9543 87.2747 82.3723 87.5829 82.6805C87.8911 82.9886 88.3091 83.1618 88.745 83.1618H123.874C124.31 83.1618 124.728 82.9886 125.036 82.6805C125.344 82.3723 125.517 81.9543 125.517 81.5184C125.517 81.0825 125.344 80.6645 125.036 80.3563C124.728 80.0481 124.31 79.875 123.874 79.875Z" fill="#CCCCCC"/>
<path d="M130.654 85.4229H88.745C88.3091 85.4229 87.8911 85.596 87.5829 85.9042C87.2747 86.2124 87.1016 86.6304 87.1016 87.0663C87.1016 87.5021 87.2747 87.9201 87.5829 88.2283C87.8911 88.5365 88.3091 88.7096 88.745 88.7096H130.654C131.09 88.7096 131.508 88.5365 131.816 88.2283C132.124 87.9201 132.297 87.5021 132.297 87.0663C132.297 86.6304 132.124 86.2124 131.816 85.9042C131.508 85.596 131.09 85.4229 130.654 85.4229Z" fill="#CCCCCC"/>
<path d="M123.874 108.021H88.7436C88.3077 108.021 87.8897 107.848 87.5815 107.54C87.2733 107.232 87.1001 106.814 87.1001 106.378C87.1001 105.942 87.2733 105.524 87.5815 105.216C87.8897 104.908 88.3077 104.734 88.7436 104.734H123.874C124.31 104.734 124.728 104.908 125.036 105.216C125.344 105.524 125.517 105.942 125.517 106.378C125.517 106.814 125.344 107.232 125.036 107.54C124.728 107.848 124.31 108.021 123.874 108.021Z" fill="#CCCCCC"/>
<path d="M130.653 113.567H88.7436C88.3081 113.567 87.8906 113.393 87.5829 113.085C87.2751 112.777 87.1023 112.359 87.1023 111.924C87.1023 111.488 87.2751 111.071 87.5829 110.762C87.8906 110.454 88.3081 110.281 88.7436 110.28H130.653C130.869 110.28 131.083 110.322 131.283 110.405C131.482 110.487 131.664 110.608 131.817 110.761C131.97 110.914 132.091 111.095 132.174 111.294C132.256 111.494 132.299 111.708 132.299 111.924C132.299 112.14 132.256 112.354 132.174 112.553C132.091 112.753 131.97 112.934 131.817 113.087C131.664 113.239 131.482 113.36 131.283 113.443C131.083 113.525 130.869 113.568 130.653 113.567Z" fill="#CCCCCC"/>
<path d="M74.1146 65.2438C77.3227 65.2438 79.9235 62.6431 79.9235 59.4349C79.9235 56.2267 77.3227 53.626 74.1146 53.626C70.9064 53.626 68.3057 56.2267 68.3057 59.4349C68.3057 62.6431 70.9064 65.2438 74.1146 65.2438Z" fill="#0069CA"/>
<path d="M73.5391 61.6504C73.4084 61.6506 73.2812 61.6083 73.1767 61.5299L73.1702 61.5251L71.805 60.4808C71.7416 60.4323 71.6883 60.3719 71.6483 60.3029C71.6083 60.2339 71.5823 60.1577 71.5717 60.0786C71.5612 59.9995 71.5663 59.9191 71.5869 59.842C71.6075 59.765 71.6431 59.6927 71.6916 59.6294C71.7401 59.5661 71.8007 59.5129 71.8698 59.4731C71.9389 59.4332 72.0152 59.4073 72.0943 59.397C72.1734 59.3866 72.2538 59.3919 72.3308 59.4127C72.4078 59.4334 72.48 59.4691 72.5432 59.5178L73.4275 60.1959L75.517 57.4699C75.5654 57.4067 75.6259 57.3536 75.6948 57.3138C75.7638 57.2739 75.8399 57.2481 75.9188 57.2376C75.9978 57.2272 76.078 57.2324 76.155 57.253C76.2319 57.2736 76.304 57.3091 76.3672 57.3576L76.3674 57.3577L76.3544 57.3757L76.3677 57.3577C76.4952 57.4557 76.5787 57.6003 76.5997 57.7597C76.6207 57.9191 76.5776 58.0804 76.4799 58.2081L74.0222 61.4131C73.9653 61.4869 73.8922 61.5467 73.8085 61.5877C73.7249 61.6287 73.6328 61.6499 73.5396 61.6497L73.5391 61.6504Z" fill="white"/>
<path d="M80.5204 84.2927C80.5207 85.0556 80.3707 85.8111 80.079 86.5161C79.7872 87.221 79.3595 87.8616 78.8202 88.4012C78.2808 88.9408 77.6405 89.3689 76.9357 89.661C76.2309 89.9531 75.4754 90.1035 74.7125 90.1036C74.6626 90.1046 74.6126 90.1026 74.563 90.0976C73.4208 90.0683 72.3126 89.7028 71.3771 89.0469C70.4416 88.3909 69.7204 87.4737 69.3036 86.4098C68.8868 85.346 68.793 84.1829 69.034 83.066C69.2749 81.9492 69.8399 80.9282 70.6582 80.1308C71.4765 79.3334 72.5118 78.7951 73.6345 78.5832C74.7573 78.3713 75.9176 78.4952 76.9702 78.9394C78.0229 79.3836 78.9212 80.1284 79.5526 81.0806C80.1841 82.0328 80.5208 83.1501 80.5204 84.2927Z" fill="#CCCCCC"/>
<path d="M74.1146 114.961C77.3227 114.961 79.9235 112.36 79.9235 109.152C79.9235 105.944 77.3227 103.343 74.1146 103.343C70.9064 103.343 68.3057 105.944 68.3057 109.152C68.3057 112.36 70.9064 114.961 74.1146 114.961Z" fill="#CCCCCC"/>
<path d="M148.454 41.6561H136.512C135.641 41.6561 134.805 41.3098 134.188 40.6934C133.572 40.0769 133.225 39.2409 133.225 38.3691V29.5492C133.225 29.5106 133.236 29.4727 133.257 29.44C133.277 29.4073 133.307 29.3811 133.341 29.3642C133.376 29.3474 133.415 29.3408 133.453 29.345C133.492 29.3492 133.528 29.3642 133.558 29.3882L148.582 41.2896C148.615 41.3161 148.639 41.3524 148.651 41.3933C148.663 41.4343 148.662 41.4779 148.648 41.5182C148.634 41.5585 148.608 41.5934 148.573 41.6181C148.538 41.6428 148.497 41.6561 148.454 41.6561Z" fill="#CCCCCC"/>
<path d="M80.5206 84.2926C80.5209 85.0556 80.3709 85.8111 80.0791 86.5161C79.7874 87.221 79.3597 87.8616 78.8203 88.4012C78.281 88.9408 77.6406 89.3689 76.9358 89.661C76.231 89.9531 75.4756 90.1035 74.7127 90.1036C74.6627 90.1046 74.6128 90.1026 74.5631 90.0976C73.8127 88.2258 73.5234 86.201 73.7196 84.1939C73.9158 82.1869 74.5918 80.2564 75.6906 78.5654C77.0419 78.7971 78.2677 79.4989 79.1516 80.5469C80.0354 81.595 80.5203 82.9217 80.5206 84.2926Z" fill="#0069CA"/>
<path d="M87.1001 81.5199C87.1009 81.0839 87.2744 80.6659 87.5827 80.3576C87.891 80.0493 88.309 79.8758 88.745 79.875H97.4988C98.0101 80.9149 98.3735 82.0212 98.5784 83.1618H88.745C88.3093 83.1617 87.8914 82.9888 87.583 82.681C87.2747 82.3731 87.101 81.9556 87.1001 81.5199Z" fill="#0069CA"/>
<path d="M98.7818 85.4229C98.7824 86.5329 98.6356 87.6382 98.3452 88.7096H88.745C88.3091 88.7096 87.8911 88.5365 87.5829 88.2283C87.2747 87.9201 87.1016 87.5021 87.1016 87.0663C87.1016 86.6304 87.2747 86.2124 87.5829 85.9042C87.8911 85.596 88.3091 85.4229 88.745 85.4229H98.7818Z" fill="#0069CA"/>
<path d="M120.441 105.694C120.193 106.1 119.794 106.391 119.332 106.503C118.869 106.615 118.381 106.539 117.975 106.291L97.0382 93.5207C96.8371 93.398 96.662 93.2369 96.5231 93.0465C96.3842 92.8561 96.2842 92.6403 96.2287 92.4113C96.1732 92.1822 96.1634 91.9445 96.1997 91.7117C96.2361 91.4789 96.318 91.2555 96.4407 91.0543C96.5634 90.8532 96.7246 90.6781 96.9149 90.5392C97.1053 90.4003 97.3211 90.3003 97.5501 90.2448C97.7792 90.1893 98.0169 90.1795 98.2497 90.2159C98.4825 90.2522 98.7059 90.3341 98.9071 90.4568L119.844 103.227C120.25 103.475 120.541 103.874 120.653 104.337C120.765 104.799 120.689 105.287 120.441 105.694Z" fill="#3F3D56"/>
<path d="M99.5047 92.9226C98.0262 95.3465 95.8621 97.2775 93.2862 98.4715C90.7102 99.6655 87.838 100.069 85.0328 99.6305C82.2276 99.1921 79.6154 97.9318 77.5266 96.0088C75.4377 94.0859 73.9659 91.5867 73.2974 88.8273C72.6289 86.0678 72.7936 83.1722 73.7708 80.5064C74.748 77.8406 76.4938 75.5245 78.7873 73.8509C81.0809 72.1773 83.8192 71.2214 86.656 71.1041C89.4928 70.9867 92.3007 71.7132 94.7246 73.1917C97.9716 75.1773 100.298 78.3698 101.194 82.0687C102.091 85.7677 101.483 89.6711 99.5047 92.9226ZM78.0576 79.8407C76.9487 81.6586 76.4039 83.7645 76.4919 85.8921C76.5799 88.0197 77.2968 90.0735 78.552 91.7936C79.8072 93.5138 81.5443 94.8231 83.5436 95.556C85.5429 96.2889 87.7147 96.4124 89.7842 95.9111C91.8538 95.4097 93.7282 94.3059 95.1704 92.7392C96.6126 91.1725 97.5579 89.2134 97.8867 87.1095C98.2154 85.0056 97.9129 82.8515 97.0174 80.9195C96.1219 78.9875 94.6737 77.3645 92.8557 76.2556C90.4171 74.7719 87.4896 74.3161 84.7154 74.9882C81.9411 75.6603 79.5468 77.4054 78.0576 79.8407Z" fill="#3F3D56"/>
<path d="M145.499 87.7496C149.556 87.7496 152.845 84.4609 152.845 80.4041C152.845 76.3473 149.556 73.0586 145.499 73.0586C141.442 73.0586 138.154 76.3473 138.154 80.4041C138.154 84.4609 141.442 87.7496 145.499 87.7496Z" fill="#A0616A"/>
<path d="M145.024 121.584C144.883 121.143 144.836 120.676 144.887 120.215C144.938 119.755 145.086 119.31 145.321 118.91C145.556 118.511 145.873 118.165 146.251 117.897C146.628 117.628 147.059 117.442 147.513 117.352C147.657 117.324 147.803 117.306 147.95 117.298L155.687 104.879L148.619 98.1603C148.349 97.9036 148.133 97.5959 147.982 97.255C147.832 96.9142 147.75 96.5469 147.743 96.1743C147.735 95.8018 147.801 95.4315 147.937 95.0846C148.074 94.7378 148.277 94.4214 148.536 94.1537C148.795 93.886 149.105 93.6723 149.447 93.5249C149.79 93.3776 150.158 93.2994 150.53 93.2951C150.903 93.2908 151.272 93.3603 151.618 93.4997C151.964 93.639 152.278 93.8455 152.543 94.1071L162.302 103.729L162.322 103.753C162.623 104.213 162.769 104.757 162.737 105.306C162.705 105.854 162.497 106.378 162.144 106.799L151.303 119.621C151.335 119.724 151.362 119.828 151.383 119.934C151.474 120.389 151.467 120.857 151.364 121.309C151.261 121.761 151.064 122.186 150.785 122.557C150.506 122.927 150.152 123.234 149.746 123.458C149.341 123.682 148.892 123.818 148.43 123.857C148.337 123.865 148.244 123.869 148.151 123.869C147.456 123.866 146.779 123.644 146.217 123.233C145.656 122.823 145.238 122.246 145.024 121.584Z" fill="#A0616A"/>
<path d="M133.401 182.634L129.734 182.634L127.99 168.491L133.402 168.492L133.401 182.634Z" fill="#A0616A"/>
<path d="M134.336 186.188L122.514 186.188V186.038C122.514 185.434 122.633 184.835 122.864 184.277C123.095 183.719 123.434 183.212 123.861 182.784C124.289 182.357 124.796 182.018 125.354 181.787C125.913 181.556 126.511 181.437 127.115 181.437H127.116L134.336 181.437L134.336 186.188Z" fill="#2F2E41"/>
<path d="M169.845 177.565L166.694 179.44L157.96 168.182L162.61 165.413L169.845 177.565Z" fill="#A0616A"/>
<path d="M172.466 180.14L162.308 186.188L162.232 186.06C161.922 185.541 161.719 184.966 161.632 184.368C161.545 183.77 161.576 183.16 161.725 182.574C161.873 181.989 162.136 181.438 162.497 180.954C162.859 180.469 163.312 180.061 163.831 179.752L163.831 179.752L170.036 176.058L172.466 180.14Z" fill="#2F2E41"/>
<path d="M127.528 176.407C125.072 147.485 123.61 120.617 132.589 109.656L132.659 109.571L147.769 115.616L147.794 115.67C147.845 115.781 152.871 126.835 151.699 134.27L155.426 151.416L167.579 171.765C167.677 171.928 167.738 172.111 167.76 172.301C167.782 172.49 167.763 172.682 167.705 172.864C167.647 173.046 167.552 173.213 167.424 173.355C167.296 173.497 167.14 173.61 166.965 173.687L161.684 176.011C161.386 176.14 161.051 176.158 160.741 176.061C160.431 175.964 160.166 175.759 159.995 175.483L146.775 153.926L139.307 137.391C139.267 137.301 139.198 137.227 139.111 137.181C139.024 137.134 138.925 137.117 138.827 137.133C138.73 137.148 138.641 137.196 138.573 137.267C138.505 137.339 138.463 137.43 138.452 137.528L134.313 176.436C134.279 176.767 134.123 177.073 133.875 177.296C133.628 177.518 133.307 177.641 132.975 177.64H128.869C128.532 177.638 128.208 177.511 127.96 177.283C127.712 177.055 127.558 176.743 127.528 176.407Z" fill="#2F2E41"/>
<path d="M132.64 109.885L132.568 109.85L132.557 109.771C131.993 105.821 132.661 101.431 134.543 96.7244C135.471 94.4208 137.195 92.5272 139.402 91.3885C141.609 90.2498 144.151 89.9419 146.566 90.5207C147.957 90.8635 149.262 91.4914 150.398 92.3647C151.533 93.238 152.475 94.3377 153.164 95.5941C153.844 96.8376 154.258 98.2087 154.38 99.6206C154.502 101.032 154.33 102.454 153.873 103.796C151.501 110.735 148.423 117.227 148.392 117.291L148.327 117.427L132.64 109.885Z" fill="#0069CA"/>
<path d="M116.154 100.044C116.518 99.7566 116.938 99.5494 117.387 99.436C117.837 99.3225 118.305 99.3054 118.762 99.3855C119.218 99.4657 119.653 99.6415 120.037 99.9013C120.421 100.161 120.745 100.499 120.99 100.893C121.066 101.018 121.134 101.149 121.193 101.283L135.534 104.182L139.353 95.2086C139.499 94.8657 139.711 94.5552 139.978 94.2948C140.244 94.0345 140.56 93.8296 140.906 93.6919C141.252 93.5542 141.623 93.4864 141.995 93.4926C142.368 93.4987 142.735 93.5786 143.077 93.7276C143.418 93.8766 143.727 94.0918 143.985 94.3607C144.243 94.6297 144.445 94.9471 144.579 95.2945C144.714 95.642 144.778 96.0127 144.769 96.3852C144.759 96.7576 144.676 97.1245 144.524 97.4647L138.928 109.975L138.913 110.002C138.588 110.445 138.129 110.772 137.604 110.935C137.079 111.097 136.515 111.085 135.997 110.902L120.191 105.237C120.106 105.303 120.017 105.365 119.926 105.422C119.532 105.666 119.091 105.825 118.631 105.886C118.172 105.948 117.704 105.912 117.26 105.78C116.815 105.649 116.403 105.425 116.051 105.123C115.7 104.822 115.415 104.449 115.217 104.03C115.177 103.945 115.141 103.859 115.108 103.773C114.867 103.12 114.839 102.409 115.027 101.739C115.214 101.069 115.609 100.476 116.154 100.044Z" fill="#A0616A"/>
<path d="M172.035 88.2693C171.328 87.0157 170.297 85.8674 168.934 85.404C167.174 84.8056 165.269 85.4428 163.459 85.8682C162.065 86.196 160.608 86.3966 159.203 86.12C157.798 85.8434 156.443 85.0256 155.803 83.7442C154.863 81.8589 155.655 79.6108 155.598 77.5048C155.568 76.3583 155.279 75.2335 154.752 74.2151C154.224 73.1967 153.473 72.3113 152.553 71.6256C151.634 70.94 150.571 70.4719 149.445 70.2568C148.318 70.0417 147.158 70.0851 146.05 70.3837C144.318 69.8837 142.749 69.8374 141.677 71.1694C140.329 71.1694 139.036 71.7051 138.082 72.6585C137.129 73.612 136.593 74.9052 136.593 76.2536H141.455C141.224 77.4932 141.487 78.7738 142.188 79.8219C143.047 81.0827 144.539 81.9948 144.826 83.4927C145.105 84.9442 144.118 86.3215 143.083 87.3766C142.048 88.4317 140.847 89.4772 140.524 90.9195C140.326 92.0143 140.551 93.1436 141.153 94.0791C141.754 95.0033 142.5 95.8248 143.362 96.5122C147.246 99.8393 151.861 102.201 156.832 103.403C160.332 104.246 164.161 104.464 167.41 102.914C168.71 102.294 169.869 101.413 170.814 100.326C171.759 99.2392 172.47 97.9697 172.904 96.5963C173.338 95.2229 173.485 93.775 173.335 92.3425C173.186 90.91 172.743 89.5236 172.035 88.2693Z" fill="#2F2E41"/>
<path d="M173.133 186.5H116.309C116.23 186.5 116.154 186.468 116.098 186.412C116.042 186.356 116.01 186.28 116.01 186.2C116.01 186.121 116.042 186.045 116.098 185.989C116.154 185.933 116.23 185.901 116.309 185.901H173.133C173.212 185.901 173.288 185.933 173.344 185.989C173.4 186.045 173.432 186.121 173.432 186.2C173.432 186.28 173.4 186.356 173.344 186.412C173.288 186.468 173.212 186.5 173.133 186.5Z" fill="#CCCCCC"/>
</g>
<defs>
<clipPath id="clip0">
<rect width="172.864" height="186" fill="white" transform="translate(0.568359 0.5)"/>
</clipPath>
</defs>
</svg>
