<svg width="278" height="187" viewBox="0 0 278 187" fill="none" xmlns="http://www.w3.org/2000/svg">
<g clip-path="url(#clip0)">
<path d="M274.023 186.5H152.07C151.083 186.499 150.136 186.106 149.438 185.408C148.74 184.71 148.347 183.764 148.346 182.777V96.5693C148.347 95.5821 148.74 94.6356 149.438 93.9376C150.136 93.2395 151.083 92.8468 152.07 92.8457H274.023C275.01 92.8468 275.957 93.2395 276.655 93.9376C277.353 94.6356 277.745 95.5821 277.747 96.5693V182.777C277.745 183.764 277.353 184.71 276.655 185.408C275.957 186.106 275.01 186.499 274.023 186.5Z" fill="#E6E6E6"/>
<path d="M268.946 97.9219H157.148C156.161 97.9231 155.214 98.316 154.516 99.0144C153.817 99.7127 153.424 100.66 153.423 101.647V177.698C153.424 178.685 153.817 179.632 154.516 180.33C155.214 181.029 156.161 181.422 157.148 181.423H268.946C269.933 181.422 270.88 181.029 271.577 180.33C272.275 179.632 272.668 178.685 272.668 177.698V101.647C272.668 100.66 272.275 99.7131 271.577 99.0147C270.88 98.3163 269.933 97.9232 268.946 97.9219Z" fill="white"/>
<path d="M209.063 145.751C217.354 145.751 224.076 139.029 224.076 130.738C224.076 122.446 217.354 115.725 209.063 115.725C200.771 115.725 194.05 122.446 194.05 130.738C194.05 139.029 200.771 145.751 209.063 145.751Z" fill="#A0616A"/>
<path d="M226.489 162.105L199.68 164.786C202.158 153.631 202.758 143.209 199.68 134.224H218.446C217.426 141.71 221.237 151.556 226.489 162.105Z" fill="#A0616A"/>
<path d="M244.99 162.188C244.656 168.726 244.268 175.156 243.79 181.424H181.107C180.365 177.286 179.464 173.121 178.402 168.931C178.065 167.619 178.204 166.231 178.792 165.012C179.381 163.793 180.382 162.822 181.618 162.27L183.619 161.379L201.287 153.527L201.495 153.572L208.794 155.134L221.664 151.917L221.888 151.962L239.93 155.654C240.464 155.764 240.981 155.941 241.47 156.182C242.578 156.731 243.502 157.592 244.128 158.659C244.753 159.726 245.053 160.953 244.99 162.188Z" fill="#0069CA"/>
<path d="M254.781 181.423H241.237L238.821 155.669C241.934 155.979 244.868 157.272 247.198 159.36C249.528 161.449 251.133 164.225 251.78 167.286L254.781 181.423Z" fill="#0069CA"/>
<path d="M185.164 181.424H172.176L172.642 176.87C172.71 173.446 173.784 170.118 175.732 167.302C177.68 164.485 180.414 162.305 183.593 161.033L183.619 161.379L185.164 181.424Z" fill="#0069CA"/>
<path d="M197.144 122.184C203.91 118.312 210.686 120.786 217.474 131.35L218.862 142.602C229.049 132.951 228.534 119.78 217.11 114.423C215.987 113.897 214.898 113.298 213.676 113.509C208.392 110.68 202.075 112.805 199.428 117.337C197.317 117.703 194.291 121.896 194.4 124.035L197.144 122.184Z" fill="#2F2E41"/>
<path d="M216.838 133.955C217.874 133.955 218.714 132.874 218.714 131.542C218.714 130.209 217.874 129.129 216.838 129.129C215.801 129.129 214.961 130.209 214.961 131.542C214.961 132.874 215.801 133.955 216.838 133.955Z" fill="#A0616A"/>
<path d="M160.27 119.744H4.99468C3.73772 119.743 2.53265 119.243 1.64384 118.354C0.755034 117.465 0.255082 116.26 0.253662 115.003V5.24101C0.255083 3.98405 0.755034 2.77898 1.64384 1.89018C2.53265 1.00137 3.73772 0.50142 4.99468 0.5H160.27C161.527 0.50142 162.732 1.00137 163.621 1.89018C164.51 2.77898 165.01 3.98405 165.011 5.24101V115.003C165.01 116.26 164.51 117.465 163.621 118.354C162.732 119.243 161.527 119.743 160.27 119.744Z" fill="#E6E6E6"/>
<path d="M153.806 6.96289H11.4609C10.2035 6.9645 8.99797 7.46474 8.1088 8.3539C7.21964 9.24306 6.71939 10.4486 6.71777 11.706V108.536C6.71939 109.794 7.21963 110.999 8.1088 111.889C8.99796 112.778 10.2035 113.278 11.4609 113.28H153.806C155.063 113.278 156.268 112.777 157.156 111.888C158.045 110.999 158.544 109.794 158.545 108.536V11.706C158.544 10.4489 158.045 9.2435 157.156 8.35427C156.268 7.46503 155.063 6.96464 153.806 6.96289Z" fill="white"/>
<path d="M116.006 75.8591L72.1026 85.9063L53.5527 50.9202L91.0937 36.2637L116.006 75.8591Z" fill="#2F2E41"/>
<path d="M78.9208 72.5896C87.7036 72.5896 94.8235 65.4697 94.8235 56.6869C94.8235 47.9041 87.7036 40.7842 78.9208 40.7842C70.138 40.7842 63.0181 47.9041 63.0181 56.6869C63.0181 65.4697 70.138 72.5896 78.9208 72.5896Z" fill="#FFB9B9"/>
<path d="M77.0737 109.09L115.677 103.517C109.914 93.0867 103.973 83.5806 95.9883 84.6435C88.8846 79.6717 88.4749 71.6793 90.2716 62.6914L70.9493 67.8566C72.6495 73.397 71.9919 78.262 67.4636 82.0181C73.7907 90.9248 77.8853 99.9152 77.0737 109.09Z" fill="#FFB9B9"/>
<path d="M123.805 113.281H62.7201C61.8544 112.118 60.934 110.994 59.9586 109.908C59.8942 109.833 59.8263 109.754 59.7583 109.679L61.4001 86.4674L61.5647 84.1209C61.6061 83.5208 61.8198 82.9454 62.1802 82.4638C62.5406 81.9822 63.0324 81.6148 63.5965 81.4059H63.6C63.6917 81.3668 63.7862 81.3345 63.8826 81.3093L68.9477 79.9572L69.4521 79.8213L69.5236 79.9071L72.3674 83.2052L74.2668 85.4122L82.6656 95.1596C83.4199 96.0348 84.3398 96.7521 85.3723 97.2702C86.4049 97.7883 87.5298 98.0971 88.6822 98.1787L91.7907 98.3968C97.2922 98.7867 101.188 94.3333 101.188 89.6081C101.189 87.9486 100.703 86.3253 99.7889 84.94C99.5611 84.5858 99.3076 84.2486 99.0306 83.9313L102.565 84.5001L107.63 85.3192L113.339 98.7403C119.076 103.29 122.7 108.119 123.805 113.281Z" fill="#0069CA"/>
<path d="M50.1326 93.2305L57.8124 107.117L53.4805 111.148L51.1877 113.28H31.2849L43.2144 100.589L50.1326 93.2305Z" fill="#FFB9B9"/>
<path d="M127.987 113.28H109.25L107.265 104.735L103.033 86.517L102.565 84.4996L102.554 84.4531L106.986 84.7214C109.46 84.8721 111.847 85.6931 113.89 87.0963C115.934 88.4996 117.557 90.4323 118.586 92.6875L127.987 113.28Z" fill="#0069CA"/>
<path d="M53.998 111.926L72.4272 105.686L65.9295 83.5797C65.7192 82.864 65.2607 82.2467 64.6363 81.8385C64.012 81.4303 63.2626 81.258 62.5226 81.3524C61.8968 81.4322 61.3095 81.6989 60.8376 82.1176L42.0115 98.82C45.613 104.749 49.4476 104.898 53.998 111.926Z" fill="#0069CA"/>
<path d="M89.4858 30.869C89.4858 30.869 99.2115 32.6984 101.461 44.8281C101.812 46.8736 101.877 48.9583 101.651 51.0216C101.426 53.3565 101.752 58.2879 106.822 64.0947C110.13 67.8609 113.212 71.8194 116.053 75.9497L105.89 78.655L101.35 61.8177C99.1484 53.6545 95.7572 45.86 91.2851 38.6848L91.1917 38.535C91.1917 38.535 87.8164 47.5537 78.7697 48.7901L81.5591 45.1175C81.5591 45.1175 70.9834 51.2311 64.9917 53.0986C64.3079 53.3119 63.6953 53.7077 63.2198 54.2434C62.7443 54.779 62.4239 55.4343 62.2932 56.1385C62.1625 56.8428 62.2264 57.5694 62.4781 58.24C62.7298 58.9106 63.1596 59.4998 63.7214 59.9442C63.7639 59.9777 63.8071 60.0111 63.8512 60.0446C68.2583 63.3919 77.249 71.3789 73.697 79.1052C70.1451 86.8315 74.2872 88.2402 74.2872 88.2402L66.6492 85.3345L63.1533 83.8375L63.5065 86.4222L46.4405 86.7798C46.4405 86.7798 41.8289 86.7518 50.0205 74.4418C50.0205 74.4418 51.9971 69.826 50.3744 66.2997C49.13 63.5955 48.3591 60.691 48.4828 57.7168C48.9986 45.306 54.2268 20.0574 89.4858 30.869Z" fill="#2F2E41"/>
<path d="M220.099 77.0186C220.024 77.0185 219.951 76.9925 219.893 76.9451C219.835 76.8976 219.795 76.8315 219.779 76.7579C218.222 69.2684 212.834 62.3856 204.608 57.3774C196.273 52.3035 185.571 49.509 174.475 49.509C174.388 49.509 174.305 49.4745 174.244 49.4132C174.182 49.3518 174.148 49.2685 174.148 49.1817C174.148 49.095 174.182 49.0117 174.244 48.9503C174.305 48.889 174.388 48.8545 174.475 48.8545C185.69 48.8545 196.512 51.6828 204.948 56.8184C213.331 61.9218 218.826 68.9559 220.42 76.6247C220.43 76.6723 220.429 76.7216 220.418 76.7688C220.406 76.8161 220.384 76.8602 220.354 76.8979C220.323 76.9356 220.284 76.966 220.24 76.9869C220.196 77.0078 220.148 77.0186 220.099 77.0186V77.0186Z" fill="#3F3D56"/>
<path d="M216.663 76.1428L220.581 81.3622L223.143 75.3594L216.663 76.1428Z" fill="#3F3D56"/>
<path d="M136.218 159.813C125.004 159.813 114.182 156.985 105.746 151.849C97.3625 146.745 91.8676 139.712 90.2732 132.043C90.2643 132 90.2638 131.957 90.2717 131.915C90.2796 131.872 90.2958 131.832 90.3194 131.796C90.3429 131.76 90.3734 131.729 90.409 131.704C90.4446 131.68 90.4847 131.663 90.5268 131.654C90.569 131.646 90.6126 131.645 90.6549 131.653C90.6972 131.661 90.7375 131.678 90.7735 131.702C90.8094 131.725 90.8404 131.756 90.8645 131.792C90.8886 131.827 90.9054 131.867 90.914 131.91C92.471 139.399 97.8593 146.282 106.086 151.29C114.421 156.364 125.122 159.159 136.218 159.159C136.305 159.159 136.389 159.193 136.45 159.254C136.511 159.316 136.546 159.399 136.546 159.486C136.546 159.573 136.511 159.656 136.45 159.717C136.389 159.779 136.305 159.813 136.218 159.813Z" fill="#3F3D56"/>
<path d="M94.0308 132.523L90.1122 127.304L87.5508 133.307L94.0308 132.523Z" fill="#3F3D56"/>
</g>
<defs>
<clipPath id="clip0">
<rect width="277.493" height="186" fill="white" transform="translate(0.253662 0.5)"/>
</clipPath>
</defs>
</svg>
