<svg width="248" height="187" viewBox="0 0 248 187" fill="none" xmlns="http://www.w3.org/2000/svg">
<g clip-path="url(#clip0)">
<path d="M64.3027 164.583C64.3027 164.583 65.4883 159.604 73.7876 161.264C82.0869 162.923 83.2725 164.583 83.2725 164.583H64.3027Z" fill="#3F3D56"/>
<path d="M23.3994 158.063C23.3994 158.063 24.585 153.083 32.8843 154.743C41.1836 156.403 42.3692 158.063 42.3692 158.063H23.3994Z" fill="#3F3D56"/>
<path d="M92.7573 164.584C92.7573 164.584 86.1179 160.553 83.2725 164.584H92.7573Z" fill="#3F3D56"/>
<path d="M61.813 153.202C61.813 153.202 55.1736 149.171 52.3281 153.202H61.813Z" fill="#3F3D56"/>
<path d="M24.5669 149.499C26.5436 153.164 30.7388 154.738 30.7388 154.738C30.7388 154.738 31.7292 150.368 29.7525 146.702C27.7759 143.037 23.5806 141.463 23.5806 141.463C23.5806 141.463 22.5902 145.833 24.5669 149.499Z" fill="#3F3D56"/>
<path d="M25.9257 148.292C29.4944 150.439 30.8688 154.704 30.8688 154.704C30.8688 154.704 26.4572 155.487 22.8885 153.34C19.3197 151.193 17.9453 146.929 17.9453 146.929C17.9453 146.929 22.3569 146.145 25.9257 148.292Z" fill="#0069CA"/>
<path d="M221.87 161.619C221.87 161.619 223.056 156.64 231.355 158.3C239.654 159.96 240.84 161.619 240.84 161.619H221.87Z" fill="#3F3D56"/>
<path d="M202.901 164.583C197.135 163.681 191.59 162.913 186.268 162.28L188.318 158.181C187.606 157.944 184.524 160.315 184.524 160.315L187.132 148.459C183.575 148.933 181.915 161.027 181.915 161.027L177.884 156.996L179.869 161.559C163.583 159.848 149.53 159.314 137.717 159.437L139.471 155.928C138.759 155.691 135.677 158.063 135.677 158.063L138.285 146.206C134.728 146.681 133.068 158.774 133.068 158.774L129.037 154.743L131.139 159.577C123.047 159.812 114.972 160.462 106.947 161.525C108.698 156.072 114.81 150.83 114.81 150.83C110.11 152.293 107.665 154.675 106.399 156.883C106.143 145.68 107.867 134.52 111.49 123.917C111.49 123.917 102.005 145.258 103.428 159.485L103.609 162.013C95.3569 163.3 91.2163 164.583 91.2163 164.583H202.901Z" fill="#3F3D56"/>
<path d="M141.012 175.373C141.012 175.373 184.642 168.971 211.674 175.373H141.012Z" fill="#3F3D56"/>
<path d="M76.7515 184.146C76.7515 184.146 120.382 177.744 147.414 184.146H76.7515Z" fill="#3F3D56"/>
<path d="M157.61 186.5C157.61 186.5 183.452 179.946 199.462 186.5H157.61Z" fill="#3F3D56"/>
<path d="M229.787 160.187L229.366 159.969C234.839 149.388 231.913 135.646 228.494 125.982C226.172 119.486 223.211 113.237 219.654 107.327L220.055 107.073C223.631 113.014 226.607 119.295 228.941 125.824C232.391 135.577 235.338 149.455 229.787 160.187Z" fill="#3F3D56"/>
<path d="M233.847 107.157L230.77 123.994L231.236 124.079L234.313 107.243L233.847 107.157Z" fill="#3F3D56"/>
<path d="M213.389 121.503L213.042 121.826L228.929 138.899L229.276 138.576L213.389 121.503Z" fill="#3F3D56"/>
<path d="M241.951 140.257L233.892 151.404L234.276 151.682L242.335 140.535L241.951 140.257Z" fill="#3F3D56"/>
<path d="M235.268 102.695C236.577 102.695 237.639 101.633 237.639 100.323C237.639 99.0138 236.577 97.9521 235.268 97.9521C233.958 97.9521 232.896 99.0138 232.896 100.323C232.896 101.633 233.958 102.695 235.268 102.695Z" fill="#0069CA"/>
<path d="M209.422 120.953C210.731 120.953 211.793 119.892 211.793 118.582C211.793 117.273 210.731 116.211 209.422 116.211C208.112 116.211 207.05 117.273 207.05 118.582C207.05 119.892 208.112 120.953 209.422 120.953Z" fill="#3F3D56"/>
<path d="M219.855 123.324C221.164 123.324 222.226 122.263 222.226 120.953C222.226 119.644 221.164 118.582 219.855 118.582C218.545 118.582 217.483 119.644 217.483 120.953C217.483 122.263 218.545 123.324 219.855 123.324Z" fill="#3F3D56"/>
<path d="M215.112 132.573C216.422 132.573 217.484 131.511 217.484 130.201C217.484 128.892 216.422 127.83 215.112 127.83C213.803 127.83 212.741 128.892 212.741 130.201C212.741 131.511 213.803 132.573 215.112 132.573Z" fill="#0069CA"/>
<path d="M244.753 138.5C246.062 138.5 247.124 137.439 247.124 136.129C247.124 134.819 246.062 133.758 244.753 133.758C243.443 133.758 242.381 134.819 242.381 136.129C242.381 137.439 243.443 138.5 244.753 138.5Z" fill="#3F3D56"/>
<path d="M236.928 141.109C238.237 141.109 239.299 140.047 239.299 138.737C239.299 137.428 238.237 136.366 236.928 136.366C235.618 136.366 234.557 137.428 234.557 138.737C234.557 140.047 235.618 141.109 236.928 141.109Z" fill="#3F3D56"/>
<path d="M242.381 148.697C243.691 148.697 244.753 147.635 244.753 146.325C244.753 145.016 243.691 143.954 242.381 143.954C241.072 143.954 240.01 145.016 240.01 146.325C240.01 147.635 241.072 148.697 242.381 148.697Z" fill="#3F3D56"/>
<path d="M217.484 105.54C218.793 105.54 219.855 104.479 219.855 103.169C219.855 101.859 218.793 100.798 217.484 100.798C216.174 100.798 215.112 101.859 215.112 103.169C215.112 104.479 216.174 105.54 217.484 105.54Z" fill="#3F3D56"/>
<path opacity="0.1" d="M78.7149 90.6004C78.7149 119.911 61.2902 130.145 39.7957 130.145C18.3012 130.145 0.876465 119.911 0.876465 90.6004C0.876465 61.2897 39.7957 24.002 39.7957 24.002C39.7957 24.002 78.7149 61.2897 78.7149 90.6004Z" fill="#0069CA"/>
<path d="M38.3778 125.662L38.7762 101.131L55.3645 70.7838L38.8388 97.2831L39.0178 86.2534L50.4507 64.2971L39.0652 83.3344L39.3877 63.4968L51.6299 46.0168L39.4382 60.3774L39.6395 24.002L38.3743 72.1562L38.4781 70.1698L26.0313 51.1178L38.2787 73.9832L37.1189 96.1385L37.0843 95.5504L22.7354 75.5011L37.0409 97.6279L36.8958 100.399L36.87 100.44L36.8818 100.668L33.9394 156.878H37.8706L38.3423 127.844L52.6127 105.772L38.3778 125.662Z" fill="#3F3D56"/>
<path opacity="0.1" d="M207.089 81.8617C207.089 117.67 185.802 130.173 159.542 130.173C133.283 130.173 111.996 117.67 111.996 81.8617C111.996 46.0536 159.542 0.5 159.542 0.5C159.542 0.5 207.089 46.0536 207.089 81.8617Z" fill="#0069CA"/>
<path d="M157.811 124.695L158.297 94.7271L178.563 57.6521L158.374 90.0259L158.593 76.551L172.56 49.7277L158.651 72.9851L159.044 48.7498L174.001 27.3951L159.106 44.9388L159.352 0.5L157.806 59.329L157.933 56.9021L142.727 33.6269L157.69 61.5608L156.273 88.6273L156.231 87.9091L138.701 63.4153L156.178 90.447L156 93.8319L155.969 93.8829L155.983 94.1608L152.388 162.831H157.191L157.767 127.361L175.201 100.396L157.811 124.695Z" fill="#3F3D56"/>
<path d="M121.137 133.435L123.304 140.141C123.304 140.141 121.343 146.434 122.272 153.45C123.2 160.466 122.685 160.672 122.685 160.672C122.685 160.672 113.407 160.138 114.335 162.924C115.264 165.709 124.335 164.077 124.335 164.077C124.335 164.077 126.077 163.608 126.903 158.655C127.728 153.703 129.803 144.164 129.803 144.164L127.852 135.16L121.137 133.435Z" fill="#FFB8B8"/>
<path d="M121.859 119.713C121.859 119.713 117.938 121.157 117.938 125.078C117.938 128.998 119.383 134.363 120.311 134.673C121.24 134.982 127.43 139.212 128.565 136.22C129.7 133.228 121.859 119.713 121.859 119.713Z" fill="#0069CA"/>
<path d="M154.668 166.14L162.921 165.831L169.215 164.902L167.358 171.093L152.088 171.505L154.668 166.14Z" fill="#FFB8B8"/>
<path d="M166.533 166.965C166.533 166.965 166.43 164.695 165.501 164.798C164.573 164.901 165.192 163.973 166.017 163.766C166.843 163.56 169.216 162.528 169.216 162.528L178.604 163.147C178.604 163.147 184.691 168.512 182.215 171.401C179.739 174.29 173.342 171.711 173.342 171.711L166.43 171.814C166.43 171.814 164.16 168.1 166.533 166.965Z" fill="#2F2E41"/>
<path d="M170.247 159.021L173.239 173.052L179.429 171.814L175.921 154.275L172.207 152.314L170.247 159.021Z" fill="#FFB8B8"/>
<path d="M134.652 157.268C134.652 157.268 117.319 165.109 124.645 173.054C124.645 173.054 124.645 176.768 132.383 176.046C140.121 175.323 155.08 173.982 155.803 174.395C156.525 174.807 158.795 166.244 156.834 165.831C154.874 165.419 152.501 164.903 152.501 164.903C152.501 164.903 154.565 164.593 154.565 162.839C154.565 162.839 160.445 162.427 162.199 158.713C163.953 154.998 165.604 152.213 165.604 152.213L169.628 162.53C169.628 162.53 174.27 153.967 177.778 157.784C177.778 157.784 173.858 133.126 170.866 130.856C167.874 128.586 165.81 127.864 163.025 129.928C160.239 131.991 157.66 137.253 157.66 137.253L134.652 157.268Z" fill="#2F2E41"/>
<path d="M176.025 168.822C175.303 169.366 174.614 169.952 173.961 170.576C173.136 171.401 172.001 170.989 171.898 170.576C171.795 170.163 169.938 170.886 169.731 173.878C169.525 176.87 168.287 179.552 171.588 180.481C174.89 181.409 174.787 184.092 174.787 184.092C177.399 185.345 180.397 185.53 183.144 184.607C187.786 183.06 186.136 181.409 186.136 181.409L179.945 171.195C179.945 171.195 178.294 168.1 176.025 168.822Z" fill="#2F2E41"/>
<path d="M158.898 117.649C158.898 117.649 168.802 121.054 169.834 121.776C170.866 122.499 175.508 125.903 173.239 127.657C170.969 129.411 169.112 130.546 164.675 129.205C160.239 127.863 155.287 123.737 155.287 123.737L158.898 117.649Z" fill="#FFB8B8"/>
<path d="M148.994 113.11C148.994 113.11 152.914 112.388 155.7 113.935C158.485 115.483 160.858 118.578 160.858 118.578C160.858 118.578 158.279 124.046 156.422 124.871C154.565 125.697 151.16 121.57 151.16 121.57L148.994 113.11Z" fill="#0069CA"/>
<path d="M130.938 110.118C130.938 110.118 131.041 114.142 130.629 114.554C130.216 114.967 135.581 127.141 141.462 121.776C147.343 116.411 142.803 114.245 142.803 114.245C142.803 114.245 140.636 110.221 140.74 109.808C140.843 109.396 131.145 109.808 131.145 109.808L130.938 110.118Z" fill="#FFB8B8"/>
<path opacity="0.1" d="M130.938 110.118C130.938 110.118 131.041 114.142 130.629 114.554C130.216 114.967 135.581 127.141 141.462 121.776C147.343 116.411 142.803 114.245 142.803 114.245C142.803 114.245 140.636 110.221 140.74 109.808C140.843 109.396 131.145 109.808 131.145 109.808L130.938 110.118Z" fill="black"/>
<path d="M132.589 117.856C132.589 117.856 136.509 120.539 138.16 119.92C139.811 119.3 141.874 116.618 142.081 116.412C142.287 116.205 152.811 137.356 152.811 137.356C152.811 137.356 151.263 145.094 147.136 147.363C143.009 149.633 143.061 151.439 142.545 152.986C142.029 154.534 135.375 148.085 135.375 148.085L131.145 130.134V119.197L132.589 117.856Z" fill="#0069CA"/>
<path d="M130.887 113.058C130.887 113.058 129.597 112.8 128.256 113.935C126.915 115.07 120.621 119.3 120.931 119.713C121.24 120.126 124.026 126.006 124.645 128.379C125.264 130.752 126.193 131.062 126.193 131.062C126.193 131.062 128.359 132.609 128.05 133.744C127.74 134.879 126.399 150.355 128.256 153.76C130.113 157.164 129.804 160.156 129.288 160.982C128.772 161.807 134.24 158.609 134.24 158.609C134.24 158.609 142.391 152.006 143.01 150.046C143.41 148.698 143.686 147.317 143.835 145.919C143.835 145.919 138.573 125.078 136.923 123.943C135.272 122.808 130.887 113.058 130.887 113.058Z" fill="#575A89"/>
<path d="M142.221 113.139C142.221 113.139 144.763 111.561 145.279 111.974C145.795 112.387 150.644 112.387 150.747 112.799C150.85 113.212 151.057 123.117 154.564 125.696C158.072 128.275 155.802 133.434 155.802 133.434L158.382 137.561C158.382 137.561 144.351 151.075 145.279 146.434C145.33 146.176 145.279 146.124 145.279 146.124C145.279 146.124 139.811 122.704 140.533 121.466C141.255 120.228 142.567 114.613 142.221 113.139Z" fill="#575A89"/>
<path d="M163.85 122.602L149.819 127.451C149.819 127.451 135.89 130.752 138.057 134.57C140.224 138.387 149.406 131.887 149.406 131.887L168.091 129.793C168.091 129.793 175.508 123.53 163.85 122.602Z" fill="#FFB8B8"/>
<path d="M136.51 113.935C140.726 113.935 144.144 110.516 144.144 106.3C144.144 102.083 140.726 98.665 136.51 98.665C132.293 98.665 128.875 102.083 128.875 106.3C128.875 110.516 132.293 113.935 136.51 113.935Z" fill="#FFB8B8"/>
<path d="M130.43 98.7135L129.017 98.1999C129.017 98.1999 131.97 95.247 136.079 95.5038L134.923 94.3483C134.923 94.3483 137.748 93.3212 140.315 96.0173C141.665 97.4346 143.227 99.1006 144.201 100.977H145.713L145.082 102.24L147.291 103.502L145.023 103.275C145.238 104.365 145.164 105.493 144.809 106.545L144.295 107.957C144.295 107.957 142.241 103.849 142.241 103.335V104.619C142.241 104.619 140.829 103.464 140.829 102.693L140.059 103.592L139.673 102.18L134.923 103.592L135.693 102.437L132.741 102.822L133.896 101.41C133.896 101.41 130.558 103.079 130.43 104.491C130.301 105.903 128.632 107.701 128.632 107.701L127.862 106.417C127.862 106.417 126.706 100.639 130.43 98.7135Z" fill="#2F2E41"/>
</g>
<defs>
<clipPath id="clip0">
<rect width="246.247" height="186" fill="white" transform="translate(0.876465 0.5)"/>
</clipPath>
</defs>
</svg>
