<svg width="324" height="186" viewBox="0 0 324 186" fill="none" xmlns="http://www.w3.org/2000/svg">
<g clip-path="url(#clip0)">
<path opacity="0.1" d="M167.245 5.30925C168.711 5.30925 169.9 4.12073 169.9 2.65462C169.9 1.18852 168.711 0 167.245 0C165.779 0 164.591 1.18852 164.591 2.65462C164.591 4.12073 165.779 5.30925 167.245 5.30925Z" fill="#0069CA"/>
<path opacity="0.1" d="M167.245 15.8893C168.711 15.8893 169.9 14.7008 169.9 13.2347C169.9 11.7686 168.711 10.5801 167.245 10.5801C165.779 10.5801 164.591 11.7686 164.591 13.2347C164.591 14.7008 165.779 15.8893 167.245 15.8893Z" fill="#0069CA"/>
<path opacity="0.1" d="M178.328 5.30925C179.795 5.30925 180.983 4.12073 180.983 2.65462C180.983 1.18852 179.795 0 178.328 0C176.862 0 175.674 1.18852 175.674 2.65462C175.674 4.12073 176.862 5.30925 178.328 5.30925Z" fill="#0069CA"/>
<path opacity="0.1" d="M178.328 15.8893C179.795 15.8893 180.983 14.7008 180.983 13.2347C180.983 11.7686 179.795 10.5801 178.328 10.5801C176.862 10.5801 175.674 11.7686 175.674 13.2347C175.674 14.7008 176.862 15.8893 178.328 15.8893Z" fill="#0069CA"/>
<path opacity="0.1" d="M189.412 5.30925C190.878 5.30925 192.066 4.12073 192.066 2.65462C192.066 1.18852 190.878 0 189.412 0C187.946 0 186.757 1.18852 186.757 2.65462C186.757 4.12073 187.946 5.30925 189.412 5.30925Z" fill="#0069CA"/>
<path opacity="0.1" d="M189.412 15.8893C190.878 15.8893 192.066 14.7008 192.066 13.2347C192.066 11.7686 190.878 10.5801 189.412 10.5801C187.946 10.5801 186.757 11.7686 186.757 13.2347C186.757 14.7008 187.946 15.8893 189.412 15.8893Z" fill="#0069CA"/>
<path opacity="0.1" d="M189.412 26.4684C190.878 26.4684 192.066 25.2799 192.066 23.8138C192.066 22.3477 190.878 21.1592 189.412 21.1592C187.946 21.1592 186.757 22.3477 186.757 23.8138C186.757 25.2799 187.946 26.4684 189.412 26.4684Z" fill="#0069CA"/>
<path opacity="0.1" d="M189.412 37.0485C190.878 37.0485 192.066 35.86 192.066 34.3939C192.066 32.9278 190.878 31.7393 189.412 31.7393C187.946 31.7393 186.757 32.9278 186.757 34.3939C186.757 35.86 187.946 37.0485 189.412 37.0485Z" fill="#0069CA"/>
<path opacity="0.1" d="M200.495 5.30925C201.961 5.30925 203.15 4.12073 203.15 2.65462C203.15 1.18852 201.961 0 200.495 0C199.029 0 197.841 1.18852 197.841 2.65462C197.841 4.12073 199.029 5.30925 200.495 5.30925Z" fill="#0069CA"/>
<path opacity="0.1" d="M200.495 15.8893C201.961 15.8893 203.15 14.7008 203.15 13.2347C203.15 11.7686 201.961 10.5801 200.495 10.5801C199.029 10.5801 197.841 11.7686 197.841 13.2347C197.841 14.7008 199.029 15.8893 200.495 15.8893Z" fill="#0069CA"/>
<path opacity="0.1" d="M200.495 26.4684C201.961 26.4684 203.15 25.2799 203.15 23.8138C203.15 22.3477 201.961 21.1592 200.495 21.1592C199.029 21.1592 197.841 22.3477 197.841 23.8138C197.841 25.2799 199.029 26.4684 200.495 26.4684Z" fill="#0069CA"/>
<path opacity="0.1" d="M200.495 37.0485C201.961 37.0485 203.15 35.86 203.15 34.3939C203.15 32.9278 201.961 31.7393 200.495 31.7393C199.029 31.7393 197.841 32.9278 197.841 34.3939C197.841 35.86 199.029 37.0485 200.495 37.0485Z" fill="#0069CA"/>
<path opacity="0.1" d="M211.579 5.30925C213.045 5.30925 214.233 4.12073 214.233 2.65462C214.233 1.18852 213.045 0 211.579 0C210.112 0 208.924 1.18852 208.924 2.65462C208.924 4.12073 210.112 5.30925 211.579 5.30925Z" fill="#0069CA"/>
<path opacity="0.1" d="M211.579 15.8893C213.045 15.8893 214.233 14.7008 214.233 13.2347C214.233 11.7686 213.045 10.5801 211.579 10.5801C210.112 10.5801 208.924 11.7686 208.924 13.2347C208.924 14.7008 210.112 15.8893 211.579 15.8893Z" fill="#0069CA"/>
<path opacity="0.1" d="M222.662 5.30925C224.128 5.30925 225.317 4.12073 225.317 2.65462C225.317 1.18852 224.128 0 222.662 0C221.196 0 220.007 1.18852 220.007 2.65462C220.007 4.12073 221.196 5.30925 222.662 5.30925Z" fill="#0069CA"/>
<path opacity="0.1" d="M222.662 15.8893C224.128 15.8893 225.317 14.7008 225.317 13.2347C225.317 11.7686 224.128 10.5801 222.662 10.5801C221.196 10.5801 220.007 11.7686 220.007 13.2347C220.007 14.7008 221.196 15.8893 222.662 15.8893Z" fill="#0069CA"/>
<path d="M303.703 140.085H283.995C283.995 140.651 263.684 141.111 263.684 141.111C263.365 141.351 263.075 141.627 262.818 141.932C262.046 142.852 261.625 144.015 261.627 145.216V146.037C261.628 147.398 262.168 148.703 263.131 149.665C264.093 150.627 265.398 151.168 266.758 151.168H303.703C305.063 151.167 306.368 150.626 307.33 149.664C308.292 148.702 308.833 147.398 308.834 146.037V145.216C308.832 143.856 308.291 142.552 307.329 141.59C306.367 140.628 305.063 140.087 303.703 140.085Z" fill="#3F3D56"/>
<path d="M288.102 150.964H282.766V185.445H288.102V150.964Z" fill="#3F3D56"/>
<path d="M303.291 185.258C303.291 185.835 295.204 185.481 285.229 185.481C275.254 185.481 267.167 185.835 267.167 185.258C267.167 184.682 275.254 180.109 285.229 180.109C295.204 180.109 303.291 184.682 303.291 185.258Z" fill="#3F3D56"/>
<path d="M258.543 180.722L253.51 180.722L251.116 161.311L258.544 161.311L258.543 180.722Z" fill="#FFB8B8"/>
<path d="M249.915 179.284H259.621V185.395H243.804C243.804 183.774 244.448 182.22 245.594 181.074C246.74 179.928 248.294 179.284 249.915 179.284Z" fill="#2F2E41"/>
<path d="M250.687 177.914L245.885 176.407L249.412 157.169L256.499 159.393L250.687 177.914Z" fill="#FFB8B8"/>
<path d="M242.886 173.959L252.146 176.865L250.316 182.695L235.225 177.96C235.466 177.194 235.854 176.483 236.369 175.868C236.884 175.252 237.516 174.744 238.227 174.373C238.938 174.001 239.716 173.773 240.515 173.702C241.315 173.631 242.12 173.718 242.886 173.959Z" fill="#2F2E41"/>
<path d="M290.225 136.719C290.109 135.741 289.9 134.776 289.601 133.838L288.661 132.655L286.214 129.585L286.108 129.589C285.927 129.597 285.176 129.638 284.014 129.729H284.002C283.283 129.786 282.405 129.86 281.407 129.954C281.145 129.983 280.87 130.008 280.586 130.037V134.322H285.718C285.967 134.322 286.208 134.413 286.395 134.578C286.582 134.743 286.703 134.97 286.736 135.217C286.74 135.262 286.744 135.303 286.744 135.348C286.744 135.62 286.636 135.881 286.443 136.074C286.251 136.266 285.99 136.374 285.718 136.375H255.916C255.536 136.627 255.171 136.901 254.824 137.196C253.774 138.008 253.017 139.141 252.669 140.422C250.928 148.074 247.755 162.342 246.819 166.534C246.751 166.849 246.767 167.177 246.864 167.485C246.961 167.793 247.136 168.071 247.373 168.291C247.548 168.453 247.753 168.58 247.977 168.664L251.679 170.052C251.832 170.108 251.99 170.145 252.151 170.162C252.172 170.162 252.188 170.166 252.209 170.166C252.247 170.17 252.285 170.171 252.324 170.171C252.698 170.169 253.063 170.055 253.372 169.842C253.68 169.63 253.917 169.329 254.052 168.98L256.975 161.312L261.478 149.49L263.259 144.814C265.324 145.299 282.647 149.133 288.447 142.955C289.02 142.346 289.471 141.634 289.777 140.857C290.266 139.536 290.419 138.114 290.225 136.719Z" fill="#2F2E41"/>
<path d="M295.249 137.836C295.159 137.471 295.056 137.093 294.937 136.712L291.551 132.459L291.444 132.463C291.23 132.475 290.217 132.529 288.661 132.656C286.896 132.804 284.429 133.042 281.658 133.415C281.576 133.424 281.49 133.436 281.407 133.448C281.136 133.485 280.861 133.522 280.586 133.563V134.323H285.718C285.967 134.323 286.208 134.414 286.395 134.579C286.582 134.743 286.703 134.97 286.736 135.217C286.74 135.263 286.744 135.304 286.744 135.349C286.744 135.621 286.636 135.882 286.443 136.074C286.251 136.267 285.99 136.375 285.718 136.375H267.582C266.79 136.634 266.026 136.905 265.296 137.196C261.462 138.715 258.592 140.706 258.005 143.296C257.808 144.166 257.591 145.123 257.361 146.141C256.507 149.926 255.468 154.56 254.528 158.772V158.776C254.335 159.646 254.142 160.492 253.958 161.313C253.174 164.843 252.509 167.835 252.156 169.408C252.147 169.453 252.139 169.494 252.131 169.539V169.547C252.09 169.865 252.13 170.188 252.246 170.487L252.25 170.491V170.495C252.363 170.782 252.547 171.034 252.784 171.23C252.942 171.361 253.121 171.465 253.313 171.538L257.016 172.926C257.222 173.003 257.44 173.043 257.66 173.045C257.969 173.045 258.273 172.968 258.543 172.819C258.931 172.609 259.231 172.266 259.388 171.854L267.36 150.935L268.596 147.688C270.661 148.173 287.984 152.003 293.784 145.829C294.93 144.589 295.584 142.973 295.623 141.285C295.663 140.123 295.538 138.962 295.249 137.836Z" fill="#2F2E41"/>
<path d="M294.794 101.622C294.728 101.544 294.658 101.466 294.584 101.392C293.491 100.243 292.141 99.3689 290.645 98.8416C289.148 98.3144 287.549 98.1489 285.976 98.3589C284.604 98.5391 283.246 98.8064 281.908 99.1594C280.181 99.6035 278.599 100.491 277.319 101.733C276.322 102.7 275.537 103.863 275.013 105.149C274.489 106.435 274.239 107.816 274.277 109.204C274.293 109.767 274.297 110.341 274.289 110.924C274.289 111.195 274.285 111.47 274.281 111.745H278.329C278.504 111.745 278.679 111.765 278.85 111.807C279.344 111.925 279.784 112.206 280.099 112.604C280.414 113.002 280.585 113.495 280.586 114.003V133.099C280.861 133.177 281.136 133.255 281.407 133.337C281.494 133.366 281.576 133.39 281.658 133.415C281.752 133.444 281.847 133.473 281.937 133.501C282.77 133.76 283.584 134.034 284.379 134.322H285.718C285.967 134.323 286.208 134.414 286.395 134.578C286.582 134.743 286.703 134.97 286.736 135.217C287.015 135.328 287.286 135.439 287.552 135.55C288.501 135.944 289.4 136.338 290.225 136.72C291.337 137.229 292.327 137.713 293.156 138.136C293.417 138.269 293.705 138.339 293.997 138.341C294.381 138.34 294.755 138.216 295.065 137.988C295.129 137.941 295.19 137.89 295.249 137.836C295.469 137.63 295.635 137.374 295.733 137.089C295.831 136.804 295.858 136.5 295.812 136.202C295.388 132.978 295.264 129.721 295.442 126.474C295.557 123.744 295.803 120.944 296.124 118.239C296.296 116.774 296.489 115.337 296.69 113.954C296.883 112.632 297.088 111.363 297.289 110.165C297.553 108.645 297.466 107.085 297.033 105.604C296.6 104.123 295.834 102.761 294.794 101.622Z" fill="#0069CA"/>
<path d="M277.967 101.959C277.757 101.869 277.54 101.794 277.319 101.734C276.225 101.439 275.062 101.548 274.041 102.04C273.021 102.532 272.211 103.375 271.761 104.414L268.941 110.925L268.588 111.746H278.329C278.504 111.745 278.679 111.766 278.85 111.807L279.178 111.048L280.426 108.166C280.922 107.017 280.941 105.718 280.48 104.554C280.019 103.391 279.116 102.457 277.967 101.959Z" fill="#0069CA"/>
<path d="M286.726 95.1546C292.294 95.1546 296.808 90.6406 296.808 85.0724C296.808 79.5042 292.294 74.9902 286.726 74.9902C281.157 74.9902 276.644 79.5042 276.644 85.0724C276.644 90.6406 281.157 95.1546 286.726 95.1546Z" fill="#FFB8B8"/>
<path d="M296.69 113.954L290.935 114.11L290.516 118.153L290.422 119.089L281.407 123.137L280.586 123.506V130.702L281.407 130.468L284.002 129.729H284.014L295.442 126.474L295.573 126.437C296.497 126.17 297.31 125.613 297.891 124.848C298.472 124.082 298.791 123.15 298.8 122.188L298.829 117.414L298.853 113.896L296.69 113.954Z" fill="#FFB8B8"/>
<path d="M298.562 105.957C298.524 105.338 298.364 104.733 298.093 104.176C297.821 103.619 297.442 103.121 296.977 102.71C296.039 101.88 294.81 101.458 293.56 101.534C292.31 101.611 291.142 102.181 290.313 103.119C289.483 104.057 289.06 105.286 289.137 106.536L289.765 116.782C289.782 117.052 289.858 117.314 289.988 117.551C290.118 117.788 290.298 117.994 290.516 118.153C290.863 118.412 291.291 118.538 291.723 118.51L296.124 118.239L297.458 118.157C297.701 118.145 297.939 118.084 298.158 117.978C298.376 117.871 298.571 117.721 298.73 117.537C298.766 117.498 298.799 117.457 298.829 117.414C299.09 117.065 299.218 116.634 299.19 116.199L298.562 105.957Z" fill="#0069CA"/>
<path d="M281.937 133.502H281.407V133.449C281.137 133.486 280.862 133.523 280.587 133.564V134.323H284.379C283.583 134.036 282.769 133.762 281.937 133.502ZM281.937 133.502H281.407V133.449C281.137 133.486 280.862 133.523 280.587 133.564V134.323H284.379C283.583 134.036 282.769 133.762 281.937 133.502ZM285.718 133.502H281.407V114.004C281.406 113.336 281.188 112.687 280.786 112.154C280.384 111.621 279.82 111.233 279.178 111.048C278.903 110.965 278.617 110.923 278.329 110.925H241.795C240.979 110.926 240.196 111.251 239.619 111.828C239.042 112.405 238.717 113.187 238.716 114.004V134.118C238.716 134.934 239.041 135.717 239.618 136.294C240.195 136.872 240.978 137.196 241.795 137.196H285.718C286.172 137.196 286.611 137.027 286.949 136.724C287.288 136.42 287.503 136.002 287.552 135.55C287.561 135.484 287.565 135.416 287.565 135.349C287.564 134.86 287.369 134.39 287.023 134.044C286.677 133.698 286.207 133.503 285.718 133.502H285.718ZM286.744 135.349C286.744 135.621 286.636 135.882 286.443 136.075C286.251 136.267 285.99 136.375 285.718 136.375H241.795C241.196 136.375 240.622 136.137 240.199 135.714C239.775 135.29 239.537 134.716 239.537 134.118V114.004C239.537 113.405 239.775 112.831 240.199 112.407C240.622 111.984 241.196 111.746 241.795 111.746H278.329C278.504 111.745 278.679 111.766 278.85 111.807C279.344 111.925 279.784 112.206 280.099 112.605C280.414 113.003 280.586 113.496 280.587 114.004V134.323H285.718C285.967 134.323 286.208 134.414 286.395 134.579C286.582 134.744 286.703 134.971 286.736 135.218C286.74 135.263 286.744 135.304 286.744 135.349H286.744ZM281.937 133.502H281.407V133.449C281.137 133.486 280.862 133.523 280.587 133.564V134.323H284.379C283.583 134.036 282.769 133.762 281.937 133.502Z" fill="#3F3D56"/>
<path d="M260.061 126.524C261.421 126.524 262.523 125.421 262.523 124.061C262.523 122.7 261.421 121.598 260.061 121.598C258.7 121.598 257.598 122.7 257.598 124.061C257.598 125.421 258.7 126.524 260.061 126.524Z" fill="#0069CA"/>
<path d="M284.573 81.072C282.231 83.164 279.092 85.4095 276.224 83.8768C274.341 82.8704 273.503 80.6634 273.943 78.5742C274.733 74.8173 277.981 72.7874 281.126 71.1464C285.214 69.0132 289.725 67.1529 294.303 67.7074C298.881 68.262 303.353 72.0446 303.137 76.6507C302.963 80.3549 299.938 83.8104 300.896 87.3929C301.86 90.9983 306.236 92.3945 309.963 92.5779C313.691 92.7613 317.794 92.4435 320.751 94.7205C324.523 97.6251 324.463 103.699 321.778 107.63C319.092 111.561 314.558 113.774 310.104 115.455C304.202 117.683 297.716 119.293 291.624 117.655C285.533 116.017 280.2 110.173 281.094 103.929C281.471 101.291 282.859 98.9234 284.198 96.6199C285.537 94.3164 286.884 91.9146 287.165 89.2651C287.399 87.0571 286.698 84.6198 285.07 83.1975C284.775 82.9498 284.566 82.6151 284.474 82.2414C284.381 81.8677 284.409 81.4742 284.554 81.1175L284.573 81.072Z" fill="#2F2E41"/>
<path d="M0.789259 186H318.222C318.352 186 318.476 185.949 318.568 185.857C318.66 185.765 318.711 185.641 318.711 185.511C318.711 185.382 318.66 185.257 318.568 185.166C318.476 185.074 318.352 185.022 318.222 185.022H0.789259C0.724954 185.022 0.661246 185.035 0.601782 185.059C0.542318 185.084 0.488272 185.12 0.442735 185.165C0.397199 185.211 0.361068 185.264 0.336416 185.324C0.311764 185.383 0.299072 185.447 0.299072 185.511C0.299072 185.576 0.311764 185.639 0.336416 185.699C0.361068 185.758 0.397199 185.812 0.442735 185.857C0.488272 185.903 0.542318 185.939 0.601782 185.963C0.661246 185.988 0.724954 186 0.789259 186Z" fill="#3F3D56"/>
<path d="M16.8969 145.216V146.037C16.898 147.398 17.439 148.702 18.401 149.664C19.3631 150.626 20.6675 151.167 22.028 151.168H58.9725C60.3333 151.168 61.6381 150.627 62.6003 149.665C63.5625 148.703 64.1032 147.398 64.1037 146.037V145.216C64.1063 144.015 63.6846 142.852 62.9131 141.932C62.6564 141.627 62.3658 141.351 62.047 141.111C62.047 141.111 41.7358 140.651 41.7358 140.085H22.028C20.6677 140.087 19.3637 140.628 18.4018 141.59C17.4399 142.552 16.8987 143.856 16.8969 145.216Z" fill="#3F3D56"/>
<path d="M37.6288 185.446H42.9652L42.9652 150.965H37.6288L37.6288 185.446Z" fill="#3F3D56"/>
<path d="M22.4404 185.258C22.4404 185.835 30.527 185.481 40.5022 185.481C50.4774 185.481 58.5639 185.835 58.5639 185.258C58.5639 184.682 50.4774 180.109 40.5022 180.109C30.527 180.109 22.4404 184.682 22.4404 185.258Z" fill="#3F3D56"/>
<path d="M67.4287 181.035H72.4613L74.8553 161.624L67.4279 161.624L67.4287 181.035Z" fill="#A0616A"/>
<path d="M82.1672 185.708L66.3506 185.709L66.3503 179.598L76.056 179.597C77.6767 179.597 79.2311 180.241 80.3772 181.387C81.5233 182.533 82.1672 184.087 82.1672 185.708L82.1672 185.708Z" fill="#2F2E41"/>
<path d="M75.2847 178.226L80.0863 176.719L76.5593 157.481L69.4725 159.706L75.2847 178.226Z" fill="#A0616A"/>
<path d="M90.746 178.272L75.6549 183.008L73.8252 177.178L83.0856 174.272C84.632 173.786 86.3078 173.935 87.7444 174.685C89.181 175.436 90.2607 176.726 90.746 178.272L90.746 178.272Z" fill="#2F2E41"/>
<path d="M71.9179 169.292L62.7116 145.126C60.6462 145.611 43.3254 149.444 37.5241 143.267C35.536 141.15 35.1482 138.083 36.3716 134.151L39.7572 129.896L39.8624 129.902C41.1425 129.969 71.2387 131.656 73.3018 140.735C75.0413 148.388 78.2181 162.657 79.1502 166.848C79.2447 167.282 79.1801 167.736 78.9681 168.127C78.756 168.517 78.4107 168.819 77.9951 168.976L74.2927 170.364C74.0865 170.442 73.8679 170.482 73.6474 170.482C73.2727 170.482 72.9067 170.368 72.598 170.156C72.2892 169.943 72.052 169.642 71.9179 169.292Z" fill="#2F2E41"/>
<path d="M66.5815 172.166L57.3752 148C55.3097 148.485 37.9889 152.318 32.1877 146.141C30.1996 144.024 29.8118 140.957 31.0352 137.025L34.4208 132.771L34.526 132.776C35.8061 132.843 65.9023 134.53 67.9654 143.609C69.7049 151.262 72.8817 165.531 73.8138 169.722C73.9083 170.156 73.8437 170.61 73.6316 171.001C73.4196 171.391 73.0743 171.693 72.6587 171.85L68.9563 173.238C68.75 173.316 68.5314 173.356 68.311 173.356C67.9363 173.356 67.5703 173.242 67.2615 173.03C66.9527 172.817 66.7156 172.516 66.5815 172.166Z" fill="#2F2E41"/>
<path d="M58.3003 125.28C56.9359 125.279 55.5949 124.924 54.4088 124.25C53.2226 123.576 52.2318 122.605 51.5335 121.433L48.6097 116.48L55.5591 112.682L58.5099 116.727L78.5312 114.618C78.6286 114.442 78.7383 114.272 78.8593 114.111C79.2434 113.606 79.7298 113.187 80.2866 112.882C80.8435 112.577 81.4584 112.392 82.0912 112.341C82.7269 112.286 83.3669 112.368 83.9682 112.581C84.5695 112.795 85.1181 113.134 85.5774 113.577C86.3137 114.283 86.7897 115.217 86.9283 116.228C87.0669 117.239 86.8599 118.267 86.3409 119.145C86.0161 119.692 85.5794 120.164 85.0594 120.531C84.5394 120.898 83.9478 121.151 83.3233 121.273C82.6988 121.395 82.0555 121.384 81.4357 121.24C80.8158 121.096 80.2334 120.823 79.7264 120.438C79.6089 120.348 79.4962 120.252 79.3886 120.151L60.2126 125.04C59.5876 125.199 58.9452 125.28 58.3003 125.28Z" fill="#A0616A"/>
<path d="M30.9049 138.301C30.6279 138.101 30.4115 137.829 30.2797 137.514C30.148 137.199 30.106 136.853 30.1584 136.516C31.3006 128.986 29.9864 118.2 28.6828 110.477C28.4159 108.91 28.5198 107.302 28.986 105.783C29.4522 104.263 30.2678 102.874 31.3675 101.726C32.4672 100.579 33.8205 99.7044 35.3188 99.1738C36.8171 98.6431 38.4189 98.4708 39.9958 98.6705C41.3677 98.8518 42.7268 99.1197 44.0649 99.4727C46.2876 100.032 48.2537 101.332 49.64 103.157C51.0262 104.982 51.7502 107.225 51.6927 109.517C51.4978 116.969 53.011 126.267 53.6706 129.919C53.7157 130.169 53.7085 130.427 53.6496 130.675C53.5907 130.923 53.4814 131.156 53.3284 131.36C53.1784 131.561 52.9878 131.73 52.769 131.853C52.5502 131.977 52.3079 132.054 52.0577 132.078C44.7476 132.824 36.8644 136.389 32.816 138.448C32.5558 138.582 32.2675 138.652 31.9747 138.653C31.5898 138.652 31.2152 138.529 30.9049 138.301Z" fill="#CCCCCC"/>
<path d="M50.6378 118.88C50.4119 118.791 50.2058 118.659 50.0315 118.49C49.8572 118.321 49.7181 118.119 49.6224 117.896L45.5456 108.478C45.2987 107.909 45.1665 107.297 45.1563 106.677C45.1461 106.057 45.2582 105.441 45.4863 104.864C45.7143 104.287 46.0538 103.761 46.4853 103.315C46.9168 102.87 47.4319 102.514 48.0011 102.267C48.5704 102.021 49.1825 101.889 49.8027 101.879C50.4229 101.87 51.0389 101.982 51.6155 102.211C52.1921 102.44 52.718 102.779 53.1632 103.211C53.6084 103.643 53.9641 104.159 54.21 104.728L58.2868 114.146C58.4808 114.595 58.4885 115.104 58.3083 115.559C58.128 116.014 57.7746 116.38 57.3255 116.575L52.0515 118.858C51.8291 118.955 51.5896 119.007 51.3469 119.011C51.1042 119.014 50.8632 118.97 50.6378 118.88H50.6378Z" fill="#CCCCCC"/>
<path d="M39.2455 95.4671C44.8137 95.4671 49.3277 90.9531 49.3277 85.3849C49.3277 79.8167 44.8137 75.3027 39.2455 75.3027C33.6773 75.3027 29.1633 79.8167 29.1633 85.3849C29.1633 90.9531 33.6773 95.4671 39.2455 95.4671Z" fill="#A0616A"/>
<path d="M33.1527 94.3407C33.0098 94.5056 32.8354 94.6402 32.6397 94.7364C32.4439 94.8327 32.2309 94.8888 32.0131 94.9013C31.7953 94.9138 31.5773 94.8825 31.3718 94.8093C31.1663 94.7361 30.9776 94.6224 30.8169 94.4749C28.5687 92.6551 26.7857 90.3266 25.615 87.6818C24.3042 84.5575 24.1122 80.7448 25.6039 77.8163C26.8649 75.3407 29.1287 73.7649 31.3886 72.4769C32.2549 71.931 33.2043 71.5298 34.1995 71.2888C34.7022 71.1747 35.2232 71.1672 35.729 71.2666C36.2348 71.3661 36.7142 71.5704 37.1362 71.8663C37.5841 72.2069 37.9306 72.663 38.1388 73.1857C38.3469 73.7084 38.4088 74.2779 38.3176 74.833C39.3514 73.4713 40.745 72.4253 42.3413 71.8132C43.3208 71.3917 44.4152 71.3184 45.4421 71.6055C46.8934 72.09 47.9677 73.5555 48.5655 75.1301C49.0489 76.3356 49.226 77.6421 49.0808 78.9328C49.0175 79.5491 48.8295 80.1461 48.5283 80.6874C48.227 81.2288 47.8188 81.7032 47.3284 82.0819C46.1446 82.8987 44.6194 82.8157 43.2427 82.4542C41.8659 82.0927 40.5298 81.4797 39.129 81.3088C37.7283 81.1379 36.1758 81.5085 35.3413 82.7578C34.7535 83.6377 34.615 84.7967 34.495 85.9015L33.8713 91.6479C33.8272 92.47 33.6501 93.2796 33.3469 94.045C33.2955 94.1518 33.2302 94.2512 33.1527 94.3407Z" fill="#2F2E41"/>
<path d="M69.62 156.437H53.2525C52.9873 156.438 52.7254 156.378 52.4867 156.263C52.248 156.147 52.0389 155.978 51.8752 155.77C51.7079 155.558 51.5911 155.311 51.5337 155.048C51.4763 154.784 51.4798 154.511 51.5439 154.249C53.0749 147.836 53.0748 141.153 51.5438 134.74C51.4797 134.478 51.4763 134.205 51.5337 133.941C51.5911 133.678 51.7079 133.431 51.8752 133.219C52.0389 133.011 52.248 132.842 52.4867 132.726C52.7254 132.611 52.9873 132.551 53.2525 132.552H69.62C70.0382 132.553 70.4425 132.702 70.761 132.973C71.0796 133.244 71.2915 133.619 71.3593 134.032C72.4268 140.966 72.4268 148.023 71.3593 154.957C71.2915 155.37 71.0796 155.745 70.761 156.016C70.4425 156.287 70.0382 156.436 69.62 156.437Z" fill="#CCCCCC"/>
<path d="M57.0579 141.45V140.969C57.0582 140.642 57.1881 140.329 57.4189 140.098C57.6498 139.868 57.9628 139.738 58.2893 139.737H66.8784C67.2049 139.738 67.5179 139.868 67.7488 140.098C67.9796 140.329 68.1095 140.642 68.1098 140.969V141.45C68.1095 141.776 67.9796 142.089 67.7488 142.32C67.5179 142.551 67.2049 142.681 66.8784 142.681H58.2893C57.9628 142.681 57.6498 142.551 57.4189 142.32C57.1881 142.089 57.0582 141.776 57.0579 141.45Z" fill="white"/>
<path d="M57.0579 146.517V146.036C57.0582 145.71 57.1881 145.397 57.4189 145.166C57.6498 144.935 57.9628 144.805 58.2893 144.805H66.8784C67.2049 144.805 67.5179 144.935 67.7488 145.166C67.9796 145.397 68.1095 145.71 68.1098 146.036V146.517C68.1095 146.844 67.9796 147.157 67.7488 147.388C67.5179 147.619 67.2049 147.749 66.8784 147.749H58.2893C57.9628 147.749 57.6498 147.619 57.4189 147.388C57.1881 147.157 57.0582 146.844 57.0579 146.517Z" fill="white"/>
<path d="M62.3377 126.777C62.1677 126.562 62.049 126.311 61.9906 126.043C61.9322 125.775 61.9357 125.498 62.0008 125.231C63.5571 118.713 63.5571 111.92 62.0007 105.402C61.9357 105.136 61.9322 104.858 61.9906 104.59C62.049 104.322 62.1677 104.071 62.3377 103.856C62.5041 103.644 62.7167 103.473 62.9593 103.355C63.2019 103.238 63.4681 103.177 63.7377 103.178H80.3739C80.799 103.179 81.2101 103.33 81.5338 103.606C81.8575 103.881 82.073 104.263 82.1418 104.682C83.227 111.73 83.227 118.903 82.1418 125.951C82.073 126.371 81.8575 126.752 81.5338 127.028C81.2101 127.303 80.799 127.455 80.3739 127.456H63.7377C63.4681 127.456 63.2019 127.396 62.9593 127.278C62.7167 127.161 62.5041 126.989 62.3377 126.777Z" fill="#0069CA"/>
<path d="M77.1636 112.136H68.3998C68.0733 112.136 67.7603 112.006 67.5294 111.775C67.2986 111.544 67.1687 111.231 67.1683 110.905V110.382C67.1687 110.055 67.2986 109.742 67.5294 109.511C67.7603 109.281 68.0733 109.151 68.3998 109.15H77.1636C77.4901 109.151 77.8031 109.281 78.034 109.511C78.2649 109.742 78.3947 110.055 78.3951 110.382V110.905C78.3947 111.231 78.2649 111.544 78.034 111.775C77.8031 112.006 77.4901 112.136 77.1636 112.136Z" fill="white"/>
<path d="M77.1636 117.287H68.3998C68.0733 117.286 67.7603 117.157 67.5294 116.926C67.2986 116.695 67.1687 116.382 67.1683 116.055V115.532C67.1687 115.206 67.2986 114.893 67.5294 114.662C67.7603 114.431 68.0733 114.301 68.3998 114.301H77.1636C77.4901 114.301 77.8031 114.431 78.034 114.662C78.2649 114.893 78.3947 115.206 78.3951 115.532V116.055C78.3947 116.382 78.2649 116.695 78.034 116.926C77.8031 117.157 77.4901 117.286 77.1636 117.287Z" fill="white"/>
<path d="M54.7046 135.808C54.1052 135.598 53.5565 135.265 53.0944 134.83C52.6323 134.394 52.2671 133.866 52.0225 133.28C51.966 133.143 51.9168 133.004 51.875 132.862L30.3971 126.748C29.4742 126.482 28.6618 125.925 28.0805 125.16C27.4991 124.395 27.1799 123.463 27.1702 122.503L27.1178 114.21L35.0346 114.422L35.5505 119.403L53.9163 127.648C54.0892 127.545 54.2691 127.454 54.4547 127.376H54.4548C55.1313 127.092 55.8667 126.977 56.5974 127.041C57.3282 127.106 58.0324 127.347 58.6491 127.744C59.2659 128.141 59.7767 128.682 60.1375 129.321C60.4983 129.96 60.6982 130.677 60.7199 131.41C60.7416 132.143 60.5845 132.871 60.2622 133.529C59.9399 134.188 59.462 134.759 58.8698 135.192C58.2776 135.625 57.589 135.907 56.8633 136.015C56.1376 136.122 55.3967 136.051 54.7046 135.808Z" fill="#A0616A"/>
<path d="M27.241 117.851C27.0797 117.669 26.9561 117.458 26.8772 117.228C26.7982 116.999 26.7657 116.756 26.7813 116.514L27.411 106.271C27.448 105.651 27.6069 105.045 27.8784 104.487C28.15 103.929 28.5289 103.43 28.9935 103.019C29.458 102.607 29.9992 102.291 30.586 102.089C31.1727 101.887 31.7936 101.803 32.413 101.841C33.0324 101.879 33.6382 102.039 34.1958 102.311C34.7534 102.584 35.2517 102.964 35.6624 103.429C36.073 103.894 36.3879 104.436 36.589 105.023C36.7901 105.61 36.8734 106.231 36.8343 106.85L36.2047 117.093C36.174 117.582 35.9507 118.039 35.5839 118.363C35.217 118.687 34.7365 118.853 34.2477 118.824L28.5116 118.471C28.2693 118.457 28.0322 118.395 27.8141 118.288C27.596 118.182 27.4012 118.033 27.241 117.851H27.241Z" fill="#CCCCCC"/>
<path d="M119.558 62.8311H85.8977C84.9182 62.83 83.9792 62.4404 83.2866 61.7478C82.594 61.0552 82.2044 60.1162 82.2032 59.1367V22.6027C82.2044 21.6232 82.594 20.6841 83.2866 19.9915C83.9792 19.2989 84.9182 18.9093 85.8977 18.9082H119.558C120.538 18.9093 121.477 19.2989 122.169 19.9915C122.862 20.6841 123.252 21.6232 123.253 22.6027V59.1367C123.252 60.1162 122.862 61.0552 122.169 61.7478C121.477 62.4404 120.538 62.83 119.558 62.8311ZM85.8977 19.7292C85.1359 19.73 84.4055 20.0331 83.8668 20.5718C83.3281 21.1104 83.0251 21.8408 83.0242 22.6027V59.1367C83.0251 59.8985 83.3281 60.6289 83.8668 61.1676C84.4055 61.7063 85.1359 62.0093 85.8977 62.0101H119.558C120.32 62.0093 121.05 61.7063 121.589 61.1676C122.128 60.6289 122.431 59.8985 122.432 59.1367V22.6027C122.431 21.8408 122.128 21.1104 121.589 20.5718C121.05 20.0331 120.32 19.73 119.558 19.7292H85.8977Z" fill="#3F3D56"/>
<path d="M181.132 62.8311H147.472C146.492 62.83 145.553 62.4404 144.861 61.7478C144.168 61.0552 143.779 60.1162 143.777 59.1367V22.6027C143.779 21.6232 144.168 20.6841 144.861 19.9915C145.553 19.2989 146.492 18.9093 147.472 18.9082H181.132C182.112 18.9093 183.051 19.2989 183.744 19.9915C184.436 20.6841 184.826 21.6232 184.827 22.6027V59.1367C184.826 60.1162 184.436 61.0552 183.744 61.7478C183.051 62.4404 182.112 62.83 181.132 62.8311ZM147.472 19.7292C146.71 19.73 145.98 20.0331 145.441 20.5718C144.902 21.1104 144.599 21.8408 144.598 22.6027V59.1367C144.599 59.8985 144.902 60.6289 145.441 61.1676C145.98 61.7063 146.71 62.0093 147.472 62.0101H181.132C181.894 62.0093 182.625 61.7063 183.163 61.1676C183.702 60.6289 184.005 59.8985 184.006 59.1367V22.6027C184.005 21.8408 183.702 21.1104 183.163 20.5718C182.625 20.0331 181.894 19.73 181.132 19.7292H147.472Z" fill="#3F3D56"/>
<path d="M92.6771 34.0966H89.3931C88.9034 34.096 88.4338 33.9012 88.0875 33.5549C87.7412 33.2086 87.5464 32.7391 87.5459 32.2493V28.9654C87.5464 28.4756 87.7412 28.0061 88.0875 27.6598C88.4338 27.3135 88.9034 27.1187 89.3931 27.1182H92.6771C93.1668 27.1187 93.6364 27.3135 93.9827 27.6598C94.329 28.0061 94.5238 28.4756 94.5243 28.9654V32.2493C94.5238 32.7391 94.329 33.2086 93.9827 33.5549C93.6364 33.9012 93.1668 34.096 92.6771 34.0966Z" fill="#0069CA"/>
<path d="M92.6771 44.3593H89.3931C88.9034 44.3587 88.4338 44.1639 88.0875 43.8176C87.7412 43.4713 87.5464 43.0018 87.5459 42.512V39.2281C87.5464 38.7383 87.7412 38.2688 88.0875 37.9225C88.4338 37.5762 88.9034 37.3814 89.3931 37.3809H92.6771C93.1668 37.3814 93.6364 37.5762 93.9827 37.9225C94.329 38.2688 94.5238 38.7383 94.5243 39.2281V42.512C94.5238 43.0018 94.329 43.4713 93.9827 43.8176C93.6364 44.1639 93.1668 44.3587 92.6771 44.3593Z" fill="#CCCCCC"/>
<path d="M116.679 32.1002H101.347C101.02 32.0998 100.707 31.9699 100.477 31.7391C100.246 31.5082 100.116 31.1952 100.115 30.8687V30.3457C100.116 30.0192 100.246 29.7062 100.477 29.4753C100.707 29.2445 101.02 29.1146 101.347 29.1143H116.679C117.005 29.1146 117.318 29.2445 117.549 29.4753C117.78 29.7062 117.91 30.0192 117.91 30.3457V30.8687C117.91 31.1952 117.78 31.5082 117.549 31.7391C117.318 31.9699 117.005 32.0998 116.679 32.1002Z" fill="#0069CA"/>
<path d="M154.534 33.453H151.25C150.761 33.4525 150.291 33.2577 149.945 32.9114C149.599 32.5651 149.404 32.0955 149.403 31.6058V28.3218C149.404 27.8321 149.599 27.3626 149.945 27.0163C150.291 26.6699 150.761 26.4752 151.25 26.4746H154.534C155.024 26.4752 155.494 26.6699 155.84 27.0163C156.186 27.3626 156.381 27.8321 156.382 28.3218V31.6058C156.381 32.0955 156.186 32.5651 155.84 32.9114C155.494 33.2577 155.024 33.4525 154.534 33.453Z" fill="#CCCCCC"/>
<path d="M178.536 31.4566H163.204C162.878 31.4563 162.565 31.3264 162.334 31.0955C162.103 30.8647 161.973 30.5516 161.973 30.2251V29.7022C161.973 29.3757 162.103 29.0627 162.334 28.8318C162.565 28.6009 162.878 28.4711 163.204 28.4707H178.536C178.862 28.4711 179.175 28.6009 179.406 28.8318C179.637 29.0627 179.767 29.3757 179.767 29.7022V30.2251C179.767 30.5516 179.637 30.8647 179.406 31.0955C179.175 31.3264 178.862 31.4563 178.536 31.4566Z" fill="#CCCCCC"/>
<path d="M178.536 41.3082H150.068C149.742 41.3078 149.429 41.178 149.198 40.9471C148.967 40.7162 148.837 40.4032 148.837 40.0767V39.5537C148.837 39.2272 148.967 38.9142 149.198 38.6834C149.429 38.4525 149.742 38.3226 150.068 38.3223H178.536C178.862 38.3226 179.175 38.4525 179.406 38.6834C179.637 38.9142 179.767 39.2272 179.767 39.5537V40.0767C179.767 40.4032 179.637 40.7162 179.406 40.9471C179.175 41.178 178.862 41.3078 178.536 41.3082Z" fill="#0069CA"/>
<path d="M178.536 48.2867H150.068C149.742 48.2863 149.429 48.1565 149.198 47.9256C148.967 47.6947 148.837 47.3817 148.837 47.0552V46.5323C148.837 46.2058 148.967 45.8927 149.198 45.6619C149.429 45.431 149.742 45.3011 150.068 45.3008H178.536C178.862 45.3011 179.175 45.431 179.406 45.6619C179.637 45.8927 179.767 46.2058 179.767 46.5323V47.0552C179.767 47.3817 179.637 47.6947 179.406 47.9256C179.175 48.1565 178.862 48.2863 178.536 48.2867Z" fill="#CCCCCC"/>
<path d="M178.536 55.2652H150.068C149.742 55.2648 149.429 55.135 149.198 54.9041C148.967 54.6732 148.837 54.3602 148.837 54.0337V53.5108C148.837 53.1843 148.967 52.8713 149.198 52.6404C149.429 52.4095 149.742 52.2797 150.068 52.2793H178.536C178.862 52.2797 179.175 52.4095 179.406 52.6404C179.637 52.8713 179.767 53.1843 179.767 53.5108V54.0337C179.767 54.3602 179.637 54.6732 179.406 54.9041C179.175 55.135 178.862 55.2648 178.536 55.2652Z" fill="#CCCCCC"/>
<path d="M242.707 62.8311H209.046C208.067 62.83 207.128 62.4404 206.435 61.7478C205.742 61.0552 205.353 60.1162 205.352 59.1367V22.6027C205.353 21.6232 205.742 20.6841 206.435 19.9915C207.128 19.2989 208.067 18.9093 209.046 18.9082H242.707C243.686 18.9093 244.625 19.2989 245.318 19.9915C246.01 20.6841 246.4 21.6232 246.401 22.6027V59.1367C246.4 60.1162 246.01 61.0552 245.318 61.7478C244.625 62.4404 243.686 62.83 242.707 62.8311ZM209.046 19.7292C208.284 19.73 207.554 20.0331 207.015 20.5718C206.477 21.1104 206.174 21.8408 206.173 22.6027V59.1367C206.174 59.8985 206.477 60.6289 207.015 61.1676C207.554 61.7063 208.284 62.0093 209.046 62.0101H242.707C243.469 62.0093 244.199 61.7063 244.738 61.1676C245.276 60.6289 245.579 59.8985 245.58 59.1367V22.6027C245.579 21.8408 245.276 21.1104 244.738 20.5718C244.199 20.0331 243.469 19.73 242.707 19.7292H209.046Z" fill="#3F3D56"/>
<path d="M240.11 31.4566H224.778C224.452 31.4563 224.139 31.3264 223.908 31.0955C223.677 30.8647 223.547 30.5516 223.547 30.2251V29.7022C223.547 29.3757 223.677 29.0627 223.908 28.8318C224.139 28.6009 224.452 28.4711 224.778 28.4707H240.11C240.437 28.4711 240.75 28.6009 240.981 28.8318C241.211 29.0627 241.341 29.3757 241.342 29.7022V30.2251C241.341 30.5516 241.211 30.8647 240.981 31.0955C240.75 31.3264 240.437 31.4563 240.11 31.4566Z" fill="#CCCCCC"/>
<path d="M240.11 41.3082H211.643C211.316 41.3078 211.003 41.178 210.772 40.9471C210.541 40.7162 210.411 40.4032 210.411 40.0767V39.5537C210.411 39.2272 210.541 38.9142 210.772 38.6834C211.003 38.4525 211.316 38.3226 211.643 38.3223H240.11C240.437 38.3226 240.75 38.4525 240.981 38.6834C241.211 38.9142 241.341 39.2272 241.342 39.5537V40.0767C241.341 40.4032 241.211 40.7162 240.981 40.9471C240.75 41.178 240.437 41.3078 240.11 41.3082Z" fill="#CCCCCC"/>
<path d="M240.11 48.2867H211.643C211.316 48.2863 211.003 48.1565 210.772 47.9256C210.541 47.6947 210.411 47.3817 210.411 47.0552V46.5323C210.411 46.2058 210.541 45.8927 210.772 45.6619C211.003 45.431 211.316 45.3011 211.643 45.3008H240.11C240.437 45.3011 240.75 45.431 240.981 45.6619C241.211 45.8927 241.341 46.2058 241.342 46.5323V47.0552C241.341 47.3817 241.211 47.6947 240.981 47.9256C240.75 48.1565 240.437 48.2863 240.11 48.2867Z" fill="#CCCCCC"/>
<path d="M240.11 55.2652H211.643C211.316 55.2648 211.003 55.135 210.772 54.9041C210.541 54.6732 210.411 54.3602 210.411 54.0337V53.5108C210.411 53.1843 210.541 52.8713 210.772 52.6404C211.003 52.4095 211.316 52.2797 211.643 52.2793H240.11C240.437 52.2797 240.75 52.4095 240.981 52.6404C241.211 52.8713 241.341 53.1843 241.342 53.5108V54.0337C241.341 54.3602 241.211 54.6732 240.981 54.9041C240.75 55.135 240.437 55.2648 240.11 55.2652Z" fill="#CCCCCC"/>
<path d="M116.679 42.3629H101.347C101.02 42.3625 100.707 42.2326 100.477 42.0018C100.246 41.7709 100.116 41.4579 100.115 41.1314V40.6084C100.116 40.2819 100.246 39.9689 100.477 39.738C100.707 39.5072 101.02 39.3773 101.347 39.377H116.679C117.005 39.3773 117.318 39.5072 117.549 39.738C117.78 39.9689 117.91 40.2819 117.91 40.6084V41.1314C117.91 41.4579 117.78 41.7709 117.549 42.0018C117.318 42.2326 117.005 42.3625 116.679 42.3629Z" fill="#CCCCCC"/>
<path d="M92.6771 54.622H89.3931C88.9034 54.6214 88.4338 54.4266 88.0875 54.0803C87.7412 53.734 87.5464 53.2645 87.5459 52.7747V49.4908C87.5464 49.001 87.7412 48.5315 88.0875 48.1852C88.4338 47.8389 88.9034 47.6441 89.3931 47.6436H92.6771C93.1668 47.6441 93.6364 47.8389 93.9827 48.1852C94.329 48.5315 94.5238 49.001 94.5243 49.4908V52.7747C94.5238 53.2645 94.329 53.734 93.9827 54.0803C93.6364 54.4266 93.1668 54.6214 92.6771 54.622Z" fill="#CCCCCC"/>
<path d="M116.679 52.6256H101.347C101.02 52.6252 100.707 52.4953 100.477 52.2645C100.246 52.0336 100.116 51.7206 100.115 51.3941V50.8711C100.116 50.5446 100.246 50.2316 100.477 50.0007C100.707 49.7699 101.02 49.64 101.347 49.6396H116.679C117.005 49.64 117.318 49.7699 117.549 50.0007C117.78 50.2316 117.91 50.5446 117.91 50.8711V51.3941C117.91 51.7206 117.78 52.0336 117.549 52.2645C117.318 52.4953 117.005 52.6252 116.679 52.6256Z" fill="#CCCCCC"/>
<path d="M218.076 29.581C218.076 29.5715 218.077 29.5623 218.077 29.5529C218.077 29.0677 217.981 28.5873 217.796 28.139C217.61 27.6908 217.338 27.2835 216.995 26.9405C216.652 26.5974 216.245 26.3253 215.796 26.1396C215.348 25.9539 214.868 25.8584 214.383 25.8584V29.581H218.076Z" fill="#0069CA"/>
<path d="M213.972 29.9921V26.2695C213.243 26.2693 212.529 26.485 211.922 26.8896C211.315 27.2941 210.841 27.8694 210.561 28.5428C210.28 29.2162 210.205 29.9576 210.345 30.6736C210.485 31.3896 210.834 32.048 211.348 32.5659C211.862 33.0839 212.518 33.4381 213.232 33.5839C213.947 33.7297 214.689 33.6606 215.365 33.3854C216.04 33.1101 216.619 32.6409 217.029 32.0371C217.438 31.4332 217.66 30.7216 217.665 29.9921H213.972Z" fill="#CCCCCC"/>
</g>
<defs>
<clipPath id="clip0">
<rect width="323.399" height="186" fill="white" transform="translate(0.300537)"/>
</clipPath>
</defs>
</svg>
