<svg width="234" height="186" viewBox="0 0 234 186" fill="none" xmlns="http://www.w3.org/2000/svg">
<g clip-path="url(#clip0)">
<path opacity="0.1" d="M75.2384 7.29499C82.4481 0.895514 93.7687 -0.403978 104.07 0.0999545C136.432 1.70274 165.643 17.2617 190.91 34.862C200.057 41.2334 209.063 48.0995 215.001 56.874C227.088 74.7379 223.504 99.4819 206.695 114.196C200.978 119.203 194.047 123.041 186.928 126.445C174.28 132.494 160.621 137.349 146.261 138.733C136.017 139.717 125.648 138.917 115.468 137.54C87.018 133.7 59.0996 125.196 35.6973 110.666C25.4331 104.29 15.7569 96.365 11.5267 86.0484C7.29639 75.7318 10.0041 62.6716 20.4955 56.559C24.8312 54.0347 30.0148 52.8939 35.0883 51.823C42.558 50.2459 50.1472 48.6921 56.8861 45.4889C63.8476 42.1783 72.0926 35.7765 70.7059 28.4578C69.2162 20.5909 68.045 13.6781 75.2384 7.29499Z" fill="#0069CA"/>
<path opacity="0.1" d="M40.7755 37.5379C44.8505 37.5379 48.1539 34.2476 48.1539 30.1889C48.1539 26.1301 44.8505 22.8398 40.7755 22.8398C36.7005 22.8398 33.3971 26.1301 33.3971 30.1889C33.3971 34.2476 36.7005 37.5379 40.7755 37.5379Z" fill="#0069CA"/>
<path opacity="0.1" d="M25.3184 17.2414C27.841 17.2414 29.886 15.2045 29.886 12.692C29.886 10.1794 27.841 8.14258 25.3184 8.14258C22.7958 8.14258 20.7508 10.1794 20.7508 12.692C20.7508 15.2045 22.7958 17.2414 25.3184 17.2414Z" fill="#0069CA"/>
<path opacity="0.1" d="M216.8 29.4889C218.353 29.4889 219.611 28.2355 219.611 26.6893C219.611 25.1431 218.353 23.8896 216.8 23.8896C215.248 23.8896 213.989 25.1431 213.989 26.6893C213.989 28.2355 215.248 29.4889 216.8 29.4889Z" fill="#0069CA"/>
<path opacity="0.1" d="M161.603 186C172.5 186 181.335 185.122 181.335 184.04C181.335 182.957 172.5 182.08 161.603 182.08C150.705 182.08 141.871 182.957 141.871 184.04C141.871 185.122 150.705 186 161.603 186Z" fill="#0069CA"/>
<path d="M50.1261 113.69L50.0394 118.345L49.3461 156.072L43.4106 169.916L22.9549 170.149V115.834L44.303 114.15L50.1261 113.69Z" fill="#5F5D7E"/>
<path opacity="0.1" d="M50.1261 113.69L50.0394 118.345L49.3461 156.072L43.4106 169.916L22.9549 170.149V115.834L44.303 114.15L50.1261 113.69Z" fill="#333333"/>
<path d="M50.1261 113.69L50.0395 118.345L49.3461 156.072L43.4106 169.916L44.973 118.433L44.9683 118.401L44.303 114.15L50.1261 113.69Z" fill="#5F5D7E"/>
<path opacity="0.1" d="M44.303 114.15L50.1261 113.69L50.0394 118.345L44.9683 118.401L22.9549 118.646V115.834L44.303 114.15Z" fill="#333333"/>
<path d="M234 115.834V169.836H229.238L210.185 155.994V114.31L227.207 112.717L228.252 113.195L229.238 113.648L234 115.834Z" fill="#5F5D7E"/>
<path opacity="0.1" d="M234 113.196H229.238V169.837H234V113.196Z" fill="#333333"/>
<path opacity="0.1" d="M234 113.195V116.3L229.238 116.354L210.185 116.564V114.31L227.207 112.717L228.252 113.195L229.238 113.648V113.195H234Z" fill="#333333"/>
<path d="M234 111.434V115.834L0 118.433V112.834L22.018 108.401L213.622 107.001L234 111.434Z" fill="#5F5D7E"/>
<path opacity="0.1" d="M234 111.434V115.834L0 118.433V112.833L234 111.434Z" fill="#333333"/>
<path d="M162.231 45.4863H90.9578C88.0057 45.4863 85.6126 47.8699 85.6126 50.8103V103.548C85.6126 106.489 88.0057 108.872 90.9578 108.872H162.231C165.183 108.872 167.576 106.489 167.576 103.548V50.8103C167.576 47.8699 165.183 45.4863 162.231 45.4863Z" fill="#474157"/>
<path d="M161.102 51.2051H92.2086V102.912H161.102V51.2051Z" fill="#EDEDF4"/>
<path d="M89.5196 78.1816C90.1432 78.1816 90.6487 77.6782 90.6487 77.0571C90.6487 76.4361 90.1432 75.9326 89.5196 75.9326C88.8961 75.9326 88.3906 76.4361 88.3906 77.0571C88.3906 77.6782 88.8961 78.1816 89.5196 78.1816Z" fill="#E6E8EC"/>
<path d="M164.154 79.0337C165.182 79.0337 166.016 78.2033 166.016 77.179C166.016 76.1546 165.182 75.3242 164.154 75.3242C163.125 75.3242 162.292 76.1546 162.292 77.179C162.292 78.2033 163.125 79.0337 164.154 79.0337Z" fill="#E6E8EC"/>
<path d="M134.083 77.2578L125.273 71.9245C125.09 71.8236 124.884 71.7719 124.675 71.7745C124.466 71.7771 124.261 71.834 124.08 71.9395C123.9 72.045 123.75 72.1955 123.646 72.3761C123.542 72.5568 123.487 72.7614 123.486 72.9697V83.3423C123.487 83.5507 123.542 83.7553 123.646 83.9359C123.75 84.1166 123.9 84.267 124.08 84.3725C124.261 84.478 124.466 84.5349 124.675 84.5375C124.884 84.5401 125.09 84.4884 125.273 84.3875L134.083 79.3529C134.269 79.2484 134.425 79.0963 134.533 78.9122C134.641 78.7281 134.698 78.5186 134.698 78.3053C134.698 78.092 134.641 77.8826 134.533 77.6985C134.425 77.5144 134.269 77.3623 134.083 77.2578ZM140.707 78.156C140.707 75.7105 139.979 73.3198 138.615 71.2864C137.251 69.253 135.312 67.6681 133.043 66.7323C130.775 65.7964 128.279 65.5515 125.871 66.0286C123.462 66.5057 121.25 67.6834 119.514 69.4126C117.778 71.1419 116.596 73.3452 116.117 75.7437C115.638 78.1423 115.883 80.6285 116.823 82.8879C117.763 85.1473 119.354 87.0785 121.395 88.4371C123.437 89.7958 125.837 90.521 128.292 90.521C131.585 90.521 134.743 89.2183 137.071 86.8994C139.399 84.5805 140.707 81.4354 140.707 78.156ZM118.281 78.156C118.281 76.1839 118.868 74.256 119.968 72.6163C121.069 70.9765 122.632 69.6984 124.461 68.9437C126.291 68.189 128.304 67.9915 130.246 68.3763C132.188 68.761 133.971 69.7107 135.371 71.1052C136.771 72.4997 137.725 74.2765 138.111 76.2107C138.498 78.145 138.299 80.1499 137.542 81.9719C136.784 83.7939 135.501 85.3512 133.854 86.4469C132.208 87.5425 130.272 88.1273 128.292 88.1273C126.978 88.1276 125.676 87.8699 124.461 87.3689C123.246 86.8679 122.142 86.1335 121.213 85.2075C120.283 84.2815 119.546 83.1822 119.043 81.9722C118.54 80.7623 118.281 79.4656 118.281 78.156Z" fill="#0069CA"/>
<path d="M188.296 118.783C188.249 118.498 188.16 118.221 188.032 117.962C188.21 117.358 188.324 116.987 188.324 116.987C188.324 116.987 188.324 116.898 188.296 116.754C188.157 115.899 187.711 115.123 187.041 114.571C186.371 114.018 185.523 113.726 184.654 113.749C183.248 113.774 180.583 113.868 177.627 114.199C177.796 113.021 177.997 111.612 178.208 110.161L178.594 110.203C178.683 110.203 178.777 110.203 178.871 110.217H178.995C179.303 110.236 179.608 110.143 179.852 109.955C179.912 109.897 179.957 109.825 179.982 109.746C180.007 109.667 180.012 109.582 179.996 109.5C179.981 109.419 179.945 109.342 179.893 109.277C179.84 109.212 179.772 109.162 179.695 109.129C180.041 109.164 180.389 109.112 180.709 108.978C181.03 108.844 181.311 108.633 181.529 108.364C181.728 108.087 181.835 107.755 181.835 107.415C181.835 107.074 181.728 106.742 181.529 106.465C181.035 105.765 179.988 105.299 179.932 104.475C179.901 104.008 180.215 103.588 180.461 103.176C181.054 102.145 181.291 100.949 181.135 99.7708C180.98 98.5929 180.441 97.4983 179.601 96.6548C179.272 96.3291 178.925 96.0214 178.561 95.7332C178.046 93.8481 177.507 92.1637 177.348 92.11C177.142 92.0424 176.788 91.5991 176.451 91.2188C176.482 90.8981 176.476 90.5748 176.435 90.2553C176.186 88.6222 174.561 87.4557 173.666 86.0139C172.771 84.5721 172.61 82.806 172.839 81.1542C173.069 79.5024 173.647 77.9043 174.118 76.2922C174.469 75.0953 174.762 73.8238 174.369 72.6363C174.09 71.7894 173.483 71.0569 172.858 70.3686C171.356 68.7145 169.625 67.1654 167.489 66.1692C166.004 65.472 164.378 65.1255 162.737 65.1567H162.72L162.463 65.1707L162.28 65.1823L162.097 65.201L161.903 65.2197C161.704 65.2453 161.507 65.2756 161.31 65.3153C159.883 64.9994 158.427 64.8367 156.965 64.83H156.775C156.342 64.8045 155.91 64.9059 155.534 65.1217C155.014 65.4833 154.948 66.1319 154.791 66.6965C154.509 67.6413 153.915 68.4635 153.105 69.0295C152.545 69.4308 151.887 69.7294 151.353 70.1493C150.819 70.5693 150.402 71.1992 150.545 71.8198C150.664 72.34 151.151 72.7273 151.716 72.9629C151.648 73.0469 151.578 73.1286 151.512 73.2149C151.622 73.2592 151.746 73.2989 151.847 73.3316C152.55 73.5392 153.306 73.5649 154.018 73.7538C154.214 73.8061 154.407 73.8708 154.595 73.9475C153.961 75.1341 153.631 76.4577 153.632 77.8016C153.635 79.294 154.041 80.7582 154.809 82.0399C155.576 83.3217 156.676 84.3737 157.993 85.0853C157.993 85.1646 157.993 85.2416 157.993 85.3186C158.066 87.7543 157.881 90.7172 156.63 91.2188C155.379 91.7204 154.182 92.2874 153.445 92.6536L153.21 92.7773C153.016 92.6886 152.821 92.5953 152.632 92.4973C152.632 92.4973 151.636 92.3807 151.81 93.1366C151.81 93.1366 148.8 92.67 147.148 93.9508C145.497 95.2316 142.787 97.9053 142.255 98.6028C141.723 99.3004 137.613 100.826 137.613 100.826C137.613 100.826 138.908 99.0228 138.348 96.8134C138.348 96.8134 137.73 94.1491 138.025 93.0806C138.32 92.0121 139.086 88.0459 139.086 88.0459C139.086 88.0459 139.194 83.8605 136.901 81.9404C134.607 80.0203 133.012 78.4409 133.898 80.3073C134.285 81.1629 134.718 81.997 135.195 82.806C135.195 82.806 129.712 84.1031 131.658 86.1282C133.605 88.1532 134.134 88.1556 134.134 88.1556C134.134 88.1556 133.485 93.1552 133.366 94.0861C133.247 95.017 132.195 102.109 132.195 102.109C132.195 102.109 132.136 105.483 132.727 106.006C132.727 106.006 133.113 108.178 135.556 108.105C135.556 108.105 140.213 107.989 141.51 107.466C142.808 106.943 147.287 104.151 147.76 104.326C147.794 104.339 147.825 104.36 147.851 104.386C147.876 104.408 147.9 104.431 147.921 104.456C147.453 105.49 146.343 108.999 146.816 110.723C146.816 110.723 146.403 115.606 148.879 117.176C148.879 117.176 152.475 123.223 151.119 126.478C151.011 126.741 150.915 126.984 150.826 127.22C148.767 125.519 145.626 123.953 140.829 123.088C140.339 122.999 139.852 122.892 139.369 122.775C138.006 122.446 134.256 122.145 132.471 128.05C132.055 129.423 131.525 130.759 130.888 132.044C130.185 133.46 129.405 135.49 129.389 137.504C129.349 140.327 130.813 143.124 136.125 144.15C136.184 146.25 136.425 148.751 137.147 150.55C138.62 154.213 140.979 160.143 140.979 160.143C140.979 160.143 143.808 166.19 143.986 168.631C144.101 170.229 144.27 172.324 144.152 173.763C144.152 173.852 144.138 173.936 144.129 174.02C143.886 174.281 143.621 174.521 143.337 174.736C142.925 174.97 141.569 176.423 141.569 176.771C141.572 177.104 141.602 177.436 141.658 177.765C141.016 178.322 140.665 178.931 140.665 179.538C140.665 182.692 149.652 185.249 160.739 185.249C171.825 185.249 180.81 182.683 180.81 179.538C180.81 176.659 173.315 174.279 163.575 173.887C165.606 173.08 167.41 172.233 168.157 171.554C168.317 171.43 168.44 171.263 168.51 171.073L166.625 166.713C166.625 166.713 166.477 166.746 166.259 166.809L166.128 166.613C165.29 165.341 163.676 162.808 163.676 162.119C163.676 161.865 163.25 160.239 162.631 158.011V150.86C168.782 151.793 176.709 150.524 176.709 150.524L176.744 150.506H176.898V150.422C177.964 149.834 183.295 146.724 184.876 142.599C185.345 141.395 184.762 139.671 183.602 137.828C184.413 135.824 186.413 130.647 186.214 128.582C186.214 128.472 186.2 128.349 186.2 128.228C186.219 128.017 186.227 127.805 186.223 127.593C186.457 124.56 188.331 119.019 188.331 119.019C188.331 119.019 188.32 118.923 188.296 118.783ZM148.476 105.308C148.903 106.055 149.359 107.009 149.54 107.396C149.54 107.396 148.917 106.253 148.488 105.308H148.476ZM148.921 170.656L148.877 170.672V170.439C148.852 169.83 148.866 169.221 148.921 168.614C148.928 168.288 148.859 167.963 148.72 167.667C147.998 165.861 147.515 163.968 147.284 162.038C147.05 160.003 146.856 157.785 146.977 157.22C147.16 156.354 147.31 149.799 147.083 146.567L150.709 147.379L154.925 155.941C154.925 155.941 157.637 160.122 158.478 163.421V166.725C158.232 167.709 157.802 168.638 157.211 169.464C156.651 170.227 156.105 170.999 155.599 171.797C155.445 172.044 155.274 172.298 155.103 172.536C155.047 172.536 152.276 172.697 151.805 173.215C151.514 173.535 151.008 174.039 150.924 174.545L150.805 174.564C150.261 172.952 148.933 170.656 148.933 170.656H148.921Z" fill="url(#paint0_linear)"/>
<path opacity="0.1" d="M166.758 167.658L165.821 170.691L161.839 174.132L155.984 175.807C155.984 175.807 153.231 174.307 154.168 174.015C154.428 173.934 154.737 173.637 155.051 173.25C154.723 174.44 157.33 172.907 157.33 172.907C157.33 172.907 164.065 168.125 164.767 167.6C165.228 167.295 165.734 167.065 166.266 166.916C166.559 167.371 166.758 167.658 166.758 167.658Z" fill="#333333"/>
<path d="M166.758 167.658L165.821 170.691L161.839 174.132L155.984 175.807C155.984 175.807 153.231 174.307 154.168 174.016C154.428 173.934 154.737 173.638 155.051 173.25C155.334 172.891 155.595 172.516 155.834 172.126C156.335 171.323 156.878 170.549 157.434 169.793C158.244 168.644 158.752 167.312 158.912 165.918C159.321 162.71 155.164 156.236 155.164 156.236L147.61 140.779L158.15 142.062C158.15 142.062 163.83 161.485 163.83 162.418C163.83 163.118 165.433 165.649 166.266 166.925C166.559 167.371 166.758 167.658 166.758 167.658Z" fill="#FDC2CC"/>
<path d="M160.912 185.615C171.923 185.615 180.85 183.051 180.85 179.888C180.85 176.724 171.923 174.16 160.912 174.16C149.9 174.16 140.974 176.724 140.974 179.888C140.974 183.051 149.9 185.615 160.912 185.615Z" fill="#5F5D7E"/>
<path d="M168.632 171.39C168.561 171.58 168.44 171.747 168.281 171.873C166.833 173.196 161.42 175.163 158.075 176.231C157.199 176.536 156.305 176.789 155.398 176.989C154.578 177.048 152.88 176.523 151.709 175.806C150.538 175.09 151.592 174.073 152.065 173.548C152.538 173.023 155.344 172.867 155.344 172.867C153.997 175.1 157.333 173.14 157.333 173.14C157.333 173.14 164.067 168.357 164.77 167.832C165.472 167.307 166.761 167.016 166.761 167.016L168.632 171.39Z" fill="#0069CA"/>
<path opacity="0.3" d="M168.632 171.39C168.561 171.58 168.44 171.747 168.281 171.873C166.833 173.196 161.42 175.163 158.075 176.231C157.199 176.536 156.305 176.789 155.398 176.989C154.578 177.048 152.88 176.523 151.709 175.806C150.538 175.09 151.592 174.073 152.065 173.548C152.538 173.023 155.344 172.867 155.344 172.867C153.997 175.1 157.333 173.14 157.333 173.14C157.333 173.14 164.067 168.357 164.77 167.832C165.472 167.307 166.761 167.016 166.761 167.016L168.632 171.39Z" fill="#333333"/>
<path opacity="0.1" d="M168.281 171.878C166.833 173.201 161.42 175.167 158.075 176.236C161.106 173.679 166.189 172.342 168.281 171.878Z" fill="#333333"/>
<path opacity="0.1" d="M160.912 179.188C163.115 179.188 164.901 178.675 164.901 178.042C164.901 177.409 163.115 176.896 160.912 176.896C158.709 176.896 156.923 177.409 156.923 178.042C156.923 178.675 158.709 179.188 160.912 179.188Z" fill="#333333"/>
<path d="M162.793 147.829H158.694V178.042H162.793V147.829Z" fill="#5F5D7E"/>
<path opacity="0.1" d="M162.793 149.327V152.827C161.973 152.575 160.101 151.513 158.694 150.678V147.827H159.549L162.793 149.327Z" fill="#333333"/>
<path d="M153.135 134.676C153.135 134.676 166.669 131.207 170.038 128.61C173.406 126.013 186.633 138.232 184.886 142.842C183.138 147.452 176.777 150.79 176.777 150.79C176.777 150.79 159.183 153.641 156.187 147.694C153.192 141.747 153.135 134.676 153.135 134.676Z" fill="#474157"/>
<path opacity="0.1" d="M153.135 134.676C153.135 134.676 166.669 131.207 170.038 128.61C173.406 126.013 186.633 138.232 184.886 142.842C183.138 147.452 176.777 150.79 176.777 150.79C176.777 150.79 159.183 153.641 156.187 147.694C153.192 141.747 153.135 134.676 153.135 134.676Z" fill="#333333"/>
<path d="M151.964 133.277C151.964 133.277 165.498 129.807 168.866 127.211C172.235 124.614 185.462 136.832 183.715 141.442C181.967 146.052 175.605 149.391 175.605 149.391C175.605 149.391 158.012 152.242 155.016 146.295C152.02 140.348 151.964 133.277 151.964 133.277Z" fill="#474157"/>
<path d="M139.412 101.463L137.948 100.934C137.948 100.934 139.236 99.1256 138.681 96.9093C138.681 96.9093 138.065 94.2356 138.357 93.1531C138.65 92.0706 139.412 88.1021 139.412 88.1021C139.412 88.1021 139.519 83.9027 137.24 81.9779C134.961 80.0532 133.38 78.4784 134.258 80.3448C134.642 81.2034 135.072 82.0406 135.547 82.8528C135.547 82.8528 130.101 84.1523 132.033 86.1867C133.966 88.2211 134.493 88.2188 134.493 88.2188C134.493 88.2188 133.848 93.2348 133.731 94.168C133.614 95.1012 132.56 102.217 132.56 102.217C132.56 102.217 132.502 105.6 133.087 106.125C133.217 106.756 133.575 107.319 134.093 107.705C134.611 108.092 135.253 108.277 135.898 108.224C136.315 108.217 141.285 102.746 139.412 101.463Z" fill="#FDC2CC"/>
<path d="M174.781 90.7316V93.9978L171.385 95.1014L165.599 99.3428L164.065 100.467L157.213 97.726L152.88 93.1766C152.88 93.1766 153.091 93.0623 153.456 92.8733L153.69 92.7497C154.424 92.3834 155.578 91.8165 156.855 91.3102C158.132 90.8039 158.281 87.8363 158.209 85.3913V85.158C158.15 83.4433 157.975 82.0411 157.975 82.0411C157.975 82.0411 158.689 81.9058 159.729 81.7518C162.612 81.3249 167.993 80.7486 167.52 82.5077C167.382 83.1057 167.382 83.7271 167.52 84.3251C167.534 84.3905 167.548 84.4581 167.564 84.5234C168.051 86.6442 169.56 88.8652 169.56 88.8652L174.245 90.545L174.376 90.5916L174.781 90.7316Z" fill="#FDC2CC"/>
<path d="M174.781 91.7225V90.7309C175.149 90.6678 175.525 90.6678 175.894 90.7309C176.303 90.8476 177.081 92.0724 177.432 92.1891C177.784 92.3057 179.934 100.296 179.7 100.996C179.466 101.696 177.252 117.498 177.252 117.498L172.79 122.397L171.912 108.924L174.781 100.933V91.7225Z" fill="#FDC2CC"/>
<path d="M151.65 128.409C151.65 128.409 147.572 129.284 148.09 130.567C148.608 131.85 150.889 131.909 150.889 131.909L151.65 128.409Z" fill="#FDC2CC"/>
<path d="M157.33 102.501L154.227 109.162L150.538 111.845L149.894 107.699C149.894 107.699 148.647 104.958 148.111 104.493C148.085 104.467 148.054 104.446 148.02 104.433C147.551 104.258 143.101 107.057 141.812 107.582C140.524 108.107 135.898 108.224 135.898 108.224L137.948 100.933C137.948 100.933 142.047 99.4166 142.574 98.7167C143.101 98.0168 145.794 95.3338 147.434 94.0506C149.074 92.7675 152.065 93.2341 152.065 93.2341L152.112 93.2528L152.88 93.584L155.105 99.0083L157.33 102.501Z" fill="#FDC2CC"/>
<path d="M149.191 168.946C149.136 169.554 149.121 170.165 149.146 170.775C149.163 171.426 149.191 171.979 149.191 171.979L147.844 174.778C147.844 174.778 143.218 176.295 143.979 175.653C144.244 175.432 144.38 174.855 144.448 174.093C144.562 172.651 144.396 170.549 144.281 168.946C144.106 166.496 141.295 160.43 141.295 160.43C141.295 160.43 138.952 154.481 137.488 150.807C136.024 147.132 136.552 140.483 136.552 140.483C136.552 140.483 136.786 135.467 137.84 133.951C138.894 132.434 142.993 131.909 142.993 131.909L144.916 138.262C144.916 138.262 146.497 144.211 147.083 145.086C147.668 145.961 147.493 156.401 147.258 157.509C147.139 158.076 147.34 160.309 147.565 162.343C147.795 164.278 148.273 166.176 148.989 167.989C149.129 168.289 149.198 168.616 149.191 168.946Z" fill="#FDC2CC"/>
<path opacity="0.1" d="M149.191 171.978L147.844 174.778C147.844 174.778 143.218 176.294 143.979 175.653C144.244 175.431 144.38 174.855 144.448 174.092C144.614 173.926 144.792 173.744 144.975 173.558C146.152 172.342 147.578 171.393 149.156 170.774C149.163 171.425 149.191 171.978 149.191 171.978Z" fill="#333333"/>
<path d="M151.304 176.145C151.305 176.155 151.305 176.166 151.304 176.177C151.069 177.285 147.205 178.802 147.205 178.802C147.205 178.802 144.745 179.21 143.34 179.56C143.232 179.589 143.12 179.599 143.009 179.591C141.925 179.509 141.876 177.43 141.876 177.111C141.876 176.791 143.223 175.302 143.632 175.069C144.096 174.686 144.531 174.271 144.935 173.826C146.137 172.586 147.592 171.618 149.203 170.986C149.203 170.986 151.491 174.994 151.304 176.145Z" fill="#0069CA"/>
<path opacity="0.3" d="M151.304 176.145C151.305 176.156 151.305 176.167 151.304 176.178C151.069 177.286 147.205 178.803 147.205 178.803C147.205 178.803 144.745 179.211 143.34 179.561C143.232 179.59 143.12 179.6 143.009 179.591C141.925 179.51 141.876 177.431 141.876 177.111C141.876 176.792 143.223 175.303 143.632 175.07C144.103 174.682 144.545 174.26 144.954 173.808C146.13 172.586 147.557 171.632 149.137 171.008L149.203 170.982C149.203 170.982 151.491 174.995 151.304 176.145Z" fill="#333333"/>
<path opacity="0.1" d="M151.304 176.145C151.305 176.156 151.305 176.167 151.304 176.178C151.069 177.286 147.205 178.803 147.205 178.803C147.205 178.803 144.745 179.211 143.34 179.561C143.232 179.59 143.12 179.6 143.009 179.591C144.284 178.721 147.373 176.633 147.79 176.586C148.207 176.54 150.261 175.952 151.304 176.145Z" fill="#333333"/>
<path opacity="0.1" d="M167.574 84.5232C166.126 85.7107 164.795 85.5404 162.774 85.5404C161.312 85.5404 159.413 86.0513 158.216 85.3958C158.167 83.5737 157.982 82.0409 157.982 82.0409C157.982 82.0409 168.171 80.1162 167.527 82.5075C167.379 83.1734 167.395 83.8648 167.574 84.5232Z" fill="#333333"/>
<path d="M170.623 77.8509C170.623 80.0629 169.741 82.1844 168.171 83.7486C166.6 85.3127 164.47 86.1914 162.249 86.1914C162.034 86.1914 161.818 86.1914 161.608 86.1681C159.984 86.0433 158.432 85.4496 157.141 84.4596C155.851 83.4696 154.879 82.1264 154.343 80.5943C153.808 79.0623 153.733 77.408 154.127 75.834C154.521 74.26 155.367 72.8346 156.562 71.7325C157.757 70.6303 159.249 69.8991 160.855 69.6286C162.461 69.358 164.111 69.5597 165.604 70.2091C167.096 70.8584 168.366 71.9272 169.258 73.2845C170.15 74.6418 170.625 76.2287 170.626 77.8509H170.623Z" fill="#FDC2CC"/>
<path opacity="0.1" d="M155.105 99.0132L157.33 102.513L154.227 109.173L150.538 111.856L149.894 107.699C149.894 107.699 148.647 104.958 148.111 104.493C148.266 104.118 148.371 103.945 148.371 104.083C148.371 104.666 149.812 107.291 149.812 107.291C154.262 105.774 152.88 99.8834 152.88 99.8834C152.88 99.8834 152.327 94.6341 152.112 93.2529L152.88 93.5842L155.105 99.0132Z" fill="#333333"/>
<path opacity="0.1" d="M174.781 90.7308V93.997L171.385 95.1005L165.599 99.342L164.065 100.466L157.213 97.7252L152.88 93.1758C152.88 93.1758 153.091 93.0615 153.456 92.8725L153.69 92.7489C156.705 94.1137 159.968 94.6153 162.299 94.7949C163.37 94.8854 164.447 94.9096 165.522 94.8672C174.345 93.4674 174.608 91.3444 174.387 90.5908L174.781 90.7308Z" fill="#333333"/>
<path d="M177.299 143.628C175.09 144.706 172.822 145.66 170.506 146.485C166.466 147.944 157.565 146.019 156.452 145.727C155.339 145.436 146.79 142.053 143.511 140.77C140.231 139.486 139.411 140.536 138.65 140.42C137.889 140.303 137.362 138.845 137.245 138.437C137.128 138.028 139.353 134.47 140.583 132.662C141.812 130.854 145.502 131.204 146.029 131.088C146.556 130.971 150.245 131.088 150.245 131.088C150.245 131.088 150.011 129.921 151.357 126.655C152.704 123.389 149.132 117.323 149.132 117.323C146.673 115.748 147.083 110.849 147.083 110.849C146.497 108.691 148.371 103.733 148.371 104.316C148.371 104.899 149.811 107.524 149.811 107.524C154.262 106.008 152.88 100.117 152.88 100.117C152.88 100.117 152.236 93.9925 152.065 93.2343C151.894 92.4761 152.88 92.5927 152.88 92.5927C153.07 92.6907 153.263 92.784 153.456 92.8727C156.539 94.3192 159.912 94.8464 162.306 95.0284C163.377 95.1189 164.454 95.143 165.529 95.1007C176.226 93.3813 174.331 90.64 174.261 90.542L174.781 90.7263C178.646 93.5259 177.475 102.8 177.475 102.8L176.027 109.722L174.952 114.878C174.952 114.878 178.758 137.858 179.109 139.024C179.461 140.191 177.299 143.628 177.299 143.628Z" fill="#0069CA"/>
<path opacity="0.1" d="M148.781 133.129C148.547 133.304 145.912 138.728 147.844 140.245C149.776 141.761 148.781 133.129 148.781 133.129Z" fill="#333333"/>
<path opacity="0.1" d="M150.655 133.892C150.713 134.067 156.159 142.699 159.146 143.399L150.655 133.892Z" fill="#333333"/>
<path opacity="0.1" d="M163.774 65.5834L162.903 65.7678C163.143 65.6795 163.389 65.6071 163.638 65.5508L163.774 65.5834Z" fill="#333333"/>
<path opacity="0.1" d="M176.896 102.799L175.256 109.717C174.42 109.337 173.651 108.824 172.98 108.198C172.457 107.703 171.989 107.136 171.317 106.812C170.452 106.394 169.41 106.45 168.429 106.415C167.203 106.37 165.988 106.163 164.817 105.8C164.476 105.714 164.157 105.56 163.88 105.347C163.322 104.857 163.36 104.066 163.411 103.375C163.513 102.033 163.525 100.686 163.446 99.3417C163.432 99.0897 163.414 98.8378 163.392 98.5858C163.299 97.459 162.994 96.1525 161.837 95.6695C161.242 95.4362 160.532 95.4549 159.963 95.1726C159.881 95.1314 159.803 95.083 159.729 95.028C158.886 94.44 158.809 93.2619 158.841 92.2703C158.891 90.9078 158.939 89.5446 158.984 88.1805C159.027 87.5078 159.012 86.8327 158.94 86.1625C158.883 85.7174 158.76 85.2833 158.574 84.8747C158.066 83.7921 157.007 82.8893 156.818 81.7461C156.807 81.6929 156.8 81.6391 156.796 81.5851C156.698 80.5632 157.345 79.6114 157.572 78.6058C158.026 76.5831 156.499 74.3667 154.253 73.7858C153.55 73.6038 152.796 73.5688 152.095 73.3612C151.983 73.3279 151.873 73.289 151.765 73.2446C153.461 70.9909 156.368 69.5117 159.668 69.5117C164.899 69.5117 169.141 73.2446 169.141 77.8523C169.141 80.4652 167.775 82.7959 165.641 84.3264C165.655 84.3917 165.672 84.4594 165.69 84.5247C166.241 86.6454 167.948 88.8664 167.948 88.8664L173.251 90.5462L173.842 90.7329C178.222 93.5302 176.896 102.799 176.896 102.799Z" fill="#333333"/>
<path opacity="0.1" d="M179.775 109.5C179.723 109.5 179.674 109.489 179.625 109.479C179.676 109.474 179.727 109.481 179.775 109.5Z" fill="#333333"/>
<path d="M161.664 65.3523C160.198 65.0132 158.699 64.8387 157.195 64.832C156.705 64.832 156.18 64.8577 155.789 65.126C155.272 65.4876 155.206 66.1409 155.051 66.7054C154.772 67.6482 154.182 68.47 153.377 69.0385C152.821 69.4421 152.168 69.7384 151.636 70.163C151.105 70.5876 150.699 71.2175 150.833 71.8381C150.966 72.4587 151.667 72.9369 152.369 73.1352C153.072 73.3335 153.819 73.3685 154.527 73.5599C156.773 74.1408 158.298 76.3595 157.843 78.3775C157.609 79.3831 156.97 80.3349 157.068 81.3568C157.183 82.577 158.314 83.5172 158.846 84.6487C159.331 85.6799 159.298 86.8371 159.261 87.9522L159.118 92.0444C159.08 93.1222 159.174 94.4194 160.242 94.9466C160.814 95.2266 161.526 95.1963 162.116 95.4436C163.273 95.9242 163.578 97.233 163.671 98.3575C163.805 99.951 163.811 101.553 163.69 103.147C163.636 103.847 163.599 104.629 164.158 105.119C164.436 105.333 164.755 105.487 165.095 105.571C166.267 105.934 167.481 106.142 168.707 106.187C169.691 106.224 170.731 106.168 171.595 106.584C172.268 106.908 172.736 107.477 173.258 107.97C174.756 109.334 176.665 110.167 178.688 110.338C179.121 110.375 179.613 110.366 179.915 110.088C180.217 109.81 180.039 109.211 179.608 109.246C179.975 109.307 180.351 109.27 180.697 109.138C181.044 109.005 181.349 108.783 181.581 108.494C181.778 108.215 181.884 107.883 181.884 107.541C181.884 107.2 181.778 106.867 181.581 106.588C181.091 105.888 180.051 105.422 179.995 104.591C179.965 104.125 180.276 103.702 180.52 103.287C181.107 102.253 181.341 101.057 181.188 99.8793C181.034 98.7012 180.5 97.6047 179.667 96.7547C178.568 95.6232 176.922 94.7647 176.538 93.3135C176.282 92.343 176.669 91.3234 176.521 90.3366C176.287 88.7035 174.664 87.537 173.771 86.0812C172.879 84.6254 172.722 82.8639 172.949 81.2075C173.176 79.551 173.753 77.9413 174.221 76.3315C174.57 75.13 174.858 73.8538 174.469 72.6616C174.191 71.8148 173.591 71.0799 172.968 70.3869C171.476 68.7282 169.759 67.1744 167.637 66.1875C165.515 65.2006 162.929 64.818 160.675 65.5483" fill="#474157"/>
<path opacity="0.1" d="M161.664 65.3523C160.198 65.0132 158.699 64.8387 157.195 64.832C156.705 64.832 156.18 64.8577 155.789 65.126C155.272 65.4876 155.206 66.1409 155.051 66.7054C154.772 67.6482 154.182 68.47 153.377 69.0385C152.821 69.4421 152.168 69.7384 151.636 70.163C151.105 70.5876 150.699 71.2175 150.833 71.8381C150.966 72.4587 151.667 72.9369 152.369 73.1352C153.072 73.3335 153.819 73.3685 154.527 73.5599C156.773 74.1408 158.298 76.3595 157.843 78.3775C157.609 79.3831 156.97 80.3349 157.068 81.3568C157.183 82.577 158.314 83.5172 158.846 84.6487C159.331 85.6799 159.298 86.8371 159.261 87.9522L159.118 92.0444C159.08 93.1222 159.174 94.4194 160.242 94.9466C160.814 95.2266 161.526 95.1963 162.116 95.4436C163.273 95.9242 163.578 97.233 163.671 98.3575C163.805 99.951 163.811 101.553 163.69 103.147C163.636 103.847 163.599 104.629 164.158 105.119C164.436 105.333 164.755 105.487 165.095 105.571C166.267 105.934 167.481 106.142 168.707 106.187C169.691 106.224 170.731 106.168 171.595 106.584C172.268 106.908 172.736 107.477 173.258 107.97C174.756 109.334 176.665 110.167 178.688 110.338C179.121 110.375 179.613 110.366 179.915 110.088C180.217 109.81 180.039 109.211 179.608 109.246C179.975 109.307 180.351 109.27 180.697 109.138C181.044 109.005 181.349 108.783 181.581 108.494C181.778 108.215 181.884 107.883 181.884 107.541C181.884 107.2 181.778 106.867 181.581 106.588C181.091 105.888 180.051 105.422 179.995 104.591C179.965 104.125 180.276 103.702 180.52 103.287C181.107 102.253 181.341 101.057 181.188 99.8793C181.034 98.7012 180.5 97.6047 179.667 96.7547C178.568 95.6232 176.922 94.7647 176.538 93.3135C176.282 92.343 176.669 91.3234 176.521 90.3366C176.287 88.7035 174.664 87.537 173.771 86.0812C172.879 84.6254 172.722 82.8639 172.949 81.2075C173.176 79.551 173.753 77.9413 174.221 76.3315C174.57 75.13 174.858 73.8538 174.469 72.6616C174.191 71.8148 173.591 71.0799 172.968 70.3869C171.476 68.7282 169.759 67.1744 167.637 66.1875C165.515 65.2006 162.929 64.818 160.675 65.5483" fill="#333333"/>
<path opacity="0.1" d="M149.132 117.328C149.132 117.328 151.123 118.086 153.231 115.987C155.339 113.887 149.132 117.328 149.132 117.328Z" fill="#333333"/>
<g opacity="0.1">
<path opacity="0.1" d="M162.545 65.3187C162.931 65.2418 163.322 65.1923 163.716 65.1709C163.169 65.1374 162.62 65.1547 162.076 65.2225L162.545 65.3187Z" fill="#333333"/>
<path opacity="0.1" d="M174.289 107.97C173.764 107.478 173.298 106.909 172.624 106.584C171.762 106.169 170.719 106.225 169.735 106.188C168.509 106.143 167.295 105.936 166.124 105.572C165.783 105.488 165.464 105.334 165.187 105.119C164.629 104.629 164.669 103.841 164.718 103.148C164.84 101.553 164.833 99.9517 164.699 98.3582C164.603 97.2337 164.301 95.9248 163.142 95.4442C162.549 95.1969 161.839 95.2273 161.268 94.9473C160.2 94.42 160.097 93.1229 160.141 92.045C160.19 90.681 160.237 89.3177 160.284 87.9552C160.324 86.8377 160.354 85.6806 159.87 84.6494C159.338 83.5178 158.206 82.58 158.092 81.3575C157.996 80.3379 158.642 79.3837 158.869 78.3782C159.324 76.3555 157.797 74.1414 155.55 73.5605C154.848 73.3785 154.093 73.3412 153.393 73.1359C152.693 72.9306 152.013 72.4873 151.868 71.8527C151.723 71.2182 152.137 70.6022 152.669 70.1753C153.201 69.7484 153.854 69.4544 154.412 69.0508C155.217 68.4828 155.806 67.6608 156.084 66.7178C156.241 66.1532 156.319 65.5023 156.822 65.1383C157.111 64.96 157.443 64.8632 157.782 64.8583C157.574 64.8583 157.366 64.8467 157.159 64.8467C156.67 64.8467 156.145 64.8723 155.754 65.1383C155.236 65.5023 155.171 66.1532 155.016 66.7178C154.737 67.6606 154.147 68.4823 153.341 69.0508C152.786 69.4544 152.133 69.7507 151.601 70.1753C151.069 70.5999 150.664 71.2298 150.798 71.8527C150.931 72.4757 151.624 72.9283 152.325 73.1359C153.025 73.3435 153.775 73.3692 154.482 73.5605C156.728 74.1414 158.253 76.3601 157.799 78.3782C157.565 79.3837 156.925 80.3379 157.024 81.3575C157.138 82.58 158.27 83.5178 158.801 84.6494C159.286 85.6806 159.256 86.8377 159.216 87.9552C159.168 89.3177 159.12 90.681 159.073 92.045C159.036 93.1229 159.129 94.42 160.197 94.9473C160.769 95.2273 161.481 95.1969 162.071 95.4442C163.228 95.9248 163.533 97.2337 163.627 98.3582C163.761 99.9517 163.767 101.553 163.645 103.148C163.592 103.848 163.554 104.629 164.114 105.119C164.391 105.334 164.71 105.488 165.051 105.572C166.222 105.936 167.437 106.143 168.663 106.188C169.646 106.225 170.686 106.169 171.551 106.584C172.223 106.909 172.692 107.478 173.216 107.97C174.713 109.336 176.621 110.168 178.643 110.338C178.905 110.369 179.17 110.359 179.428 110.308C177.511 110.087 175.712 109.269 174.289 107.97Z" fill="#333333"/>
</g>
<path opacity="0.1" d="M137.948 100.934C137.948 100.934 136.074 102.646 136.348 103.346C136.622 104.046 137.948 100.934 137.948 100.934Z" fill="#333333"/>
<path d="M139.686 122.945C138.334 122.616 134.607 122.313 132.834 128.237C132.421 129.613 131.896 130.952 131.263 132.242C129.562 135.721 127.365 142.874 137.027 144.449L160.216 149.698C160.216 149.698 172.631 151.215 173.45 150.631C174.27 150.048 174.153 148.765 174.153 148.765C174.153 148.765 160.45 148.765 157.757 144.565C155.063 140.366 154.946 134.65 154.946 134.65C154.946 134.65 155.283 125.824 141.126 123.26C140.658 123.172 140.166 123.062 139.686 122.945Z" fill="#474157"/>
<path opacity="0.1" d="M139.686 122.985C138.334 122.656 134.607 122.353 132.834 128.279C132.421 129.655 131.896 130.995 131.263 132.285C129.562 135.761 127.365 142.914 137.027 144.489L160.216 149.738C160.216 149.738 172.631 151.255 173.45 150.671C174.27 150.088 174.153 148.805 174.153 148.805C174.153 148.805 160.45 148.805 157.757 144.605C155.063 140.406 154.946 134.69 154.946 134.69C154.946 134.69 155.283 125.864 141.126 123.3C140.658 123.212 140.166 123.097 139.686 122.985Z" fill="#333333"/>
<path d="M188.296 116.91C188.162 116.056 187.721 115.28 187.055 114.725C186.39 114.171 185.545 113.876 184.677 113.895C181.342 113.956 171.075 114.399 166.306 117.502C166.306 117.502 162.676 119.835 161.622 119.835C160.568 119.835 146.279 131.967 167.477 142.816C167.477 142.816 178.838 146.035 183.288 138.476C183.288 138.476 186.45 130.357 186.216 127.546C185.982 124.735 188.324 117.152 188.324 117.152C188.324 117.152 188.32 117.061 188.296 116.91Z" fill="#474157"/>
<path opacity="0.1" d="M188.296 118.954C188.029 117.321 186.469 116.14 184.677 116.17C181.342 116.226 171.075 116.637 166.306 119.5C166.306 119.5 162.676 121.653 161.622 121.653C160.568 121.653 146.279 132.852 167.477 142.867C167.477 142.867 178.838 145.84 183.288 138.861C183.288 138.861 186.45 131.365 186.216 128.771C185.982 126.177 188.324 119.178 188.324 119.178C188.324 119.178 188.32 119.094 188.296 118.954Z" fill="#333333"/>
<path d="M176.964 142.813H173.216V150.762H176.964V142.813Z" fill="#5F5D7E"/>
<path opacity="0.1" d="M39.876 110.492C45.7026 110.492 50.4259 110.19 50.4259 109.818C50.4259 109.445 45.7026 109.144 39.876 109.144C34.0495 109.144 29.3261 109.445 29.3261 109.818C29.3261 110.19 34.0495 110.492 39.876 110.492Z" fill="#333333"/>
<path d="M48.7301 83.814C48.5054 84.1207 48.3256 84.4577 48.196 84.8149C48.1633 84.9035 48.1305 85.0015 48.0977 85.0972C48.0386 85.0693 47.9765 85.0481 47.9126 85.0342C47.6395 84.9661 47.3572 84.9417 47.0764 84.9619C47.0764 84.8545 47.0905 84.7285 47.0928 84.6212C47.1279 83.3917 46.9827 81.677 45.8045 82.4025C44.6755 83.1024 45.4813 84.2689 46.2097 85.0178L46.3971 85.1998C45.7319 85.6664 45.6054 86.7699 45.4953 87.9155C45.3852 89.061 44.4085 90.3161 43.7597 91.0277C43.6941 91.1 43.6355 91.1653 43.5769 91.226C43.315 91.017 43.0114 90.8659 42.6863 90.7826C42.3612 90.6993 42.0221 90.6859 41.6914 90.7431C41.6656 90.6428 41.6351 90.5378 41.6047 90.4258C41.08 88.5407 39.9908 85.2721 38.6018 84.5559L38.7845 84.3226C39.3748 83.5527 40.04 82.4119 39.0586 82.1179C38.0771 81.8239 37.9881 83.1094 38.042 84.0706C38.042 84.192 38.0607 84.3039 38.0701 84.4113C37.874 84.4207 37.6819 84.4699 37.5055 84.5557C37.3291 84.6415 37.1722 84.7623 37.0442 84.9105L36.8919 84.7332C36.0955 83.8 34.6362 82.3139 34.1935 83.4361C33.7813 84.4813 35.0672 85.8367 35.9714 86.623L36.0276 86.672C35.4209 89.1286 38.0631 91.135 39.4966 92.0029L39.6816 92.1149C37.7141 94.4246 36.4984 98.7523 36.4984 98.7523L42.0076 99.7322C42.0076 99.7322 45.6616 96.5943 45.1932 93.6453H45.2306C48.8823 92.9174 49.7115 89.04 49.1423 86.7373L49.2079 86.7116C49.8728 86.4398 50.4555 86.0009 50.8991 85.4378C51.9204 84.0216 49.7748 82.4259 48.7301 83.814Z" fill="#0069CA"/>
<path opacity="0.1" d="M48.7301 83.814C48.5054 84.1207 48.3256 84.4577 48.196 84.8149C48.1633 84.9035 48.1305 85.0015 48.0977 85.0972C48.0386 85.0693 47.9765 85.0481 47.9126 85.0342C47.6395 84.9661 47.3572 84.9417 47.0764 84.9619C47.0764 84.8545 47.0905 84.7285 47.0928 84.6212C47.1279 83.3917 46.9827 81.677 45.8045 82.4025C44.6755 83.1024 45.4813 84.2689 46.2097 85.0178L46.3971 85.1998C45.7319 85.6664 45.6054 86.7699 45.4953 87.9155C45.3852 89.061 44.4085 90.3161 43.7597 91.0277C43.6941 91.1 43.6355 91.1653 43.5769 91.226C43.315 91.017 43.0114 90.8659 42.6863 90.7826C42.3612 90.6993 42.0221 90.6859 41.6914 90.7431C41.6656 90.6428 41.6351 90.5378 41.6047 90.4258C41.08 88.5407 39.9908 85.2721 38.6018 84.5559L38.7845 84.3226C39.3748 83.5527 40.04 82.4119 39.0586 82.1179C38.0771 81.8239 37.9881 83.1094 38.042 84.0706C38.042 84.192 38.0607 84.3039 38.0701 84.4113C37.874 84.4207 37.6819 84.4699 37.5055 84.5557C37.3291 84.6415 37.1722 84.7623 37.0442 84.9105L36.8919 84.7332C36.0955 83.8 34.6362 82.3139 34.1935 83.4361C33.7813 84.4813 35.0672 85.8367 35.9714 86.623L36.0276 86.672C35.4209 89.1286 38.0631 91.135 39.4966 92.0029L39.6816 92.1149C37.7141 94.4246 36.4984 98.7523 36.4984 98.7523L42.0076 99.7322C42.0076 99.7322 45.6616 96.5943 45.1932 93.6453H45.2306C48.8823 92.9174 49.7115 89.04 49.1423 86.7373L49.2079 86.7116C49.8728 86.4398 50.4555 86.0009 50.8991 85.4378C51.9204 84.0216 49.7748 82.4259 48.7301 83.814Z" fill="#333333"/>
<path d="M37.7632 85.3963L37.1261 87.2744C37.1261 87.2744 36.7678 87.0224 36.3157 86.6258C35.4115 85.8396 34.1256 84.4841 34.5379 83.4389C34.9806 82.3167 36.4398 83.7982 37.2362 84.736C37.5501 85.107 37.7632 85.3963 37.7632 85.3963Z" fill="#0069CA"/>
<path d="M39.1218 84.3243C38.9258 84.5802 38.7163 84.8255 38.4941 85.0592C38.4392 84.7324 38.4009 84.403 38.3793 84.0723C38.3254 83.1111 38.4285 81.835 39.3959 82.1196C40.3633 82.4042 39.7027 83.5544 39.1218 84.3243Z" fill="#0069CA"/>
<path d="M47.4324 84.6212C47.4137 85.2394 47.3528 85.7317 47.3528 85.7317C47.0691 85.512 46.8007 85.2735 46.5494 85.0178C45.8209 84.2642 45.0151 83.1024 46.1441 82.4025C47.32 81.6769 47.4652 83.3917 47.4324 84.6212Z" fill="#0069CA"/>
<path d="M51.2364 85.4302C50.7912 85.9932 50.2068 86.4313 49.5406 86.7017C49.3561 86.7813 49.1668 86.8491 48.9737 86.9047L48.2148 85.8432C48.2951 85.4926 48.4 85.148 48.5287 84.812C48.6582 84.4549 48.838 84.1179 49.0627 83.8111C50.1168 82.4253 52.2577 84.0211 51.2364 85.4302Z" fill="#0069CA"/>
<path opacity="0.1" d="M37.2292 84.7354C37.5501 85.1063 37.7633 85.3956 37.7633 85.3956L37.1261 87.2737C37.1261 87.2737 36.7678 87.0217 36.3157 86.6251C36.4166 86.0238 36.6662 85.457 37.0418 84.9757C37.098 84.8893 37.166 84.8077 37.2292 84.7354Z" fill="#333333"/>
<path opacity="0.1" d="M39.1218 84.3252C38.9258 84.5811 38.7163 84.8264 38.4941 85.0601C38.4392 84.7333 38.4009 84.4039 38.3793 84.0732C38.6472 84.0777 38.9069 84.1658 39.1218 84.3252Z" fill="#333333"/>
<path d="M42.2793 91.7802L40.6771 92.4801C40.6771 92.4801 40.3281 92.3121 39.8245 91.9995C38.1404 90.966 34.7557 88.3693 37.0254 85.3084C39.2951 82.2475 41.1878 87.7394 41.9326 90.4224C42.1692 91.2273 42.2793 91.7802 42.2793 91.7802Z" fill="#0069CA"/>
<path opacity="0.1" d="M46.547 85.0177C46.7794 84.7775 47.0955 84.6355 47.4301 84.6211C47.4113 85.2393 47.3504 85.7316 47.3504 85.7316C47.0668 85.512 46.7984 85.2735 46.547 85.0177Z" fill="#333333"/>
<path opacity="0.1" d="M49.5406 86.7022C49.3561 86.7818 49.1668 86.8496 48.9737 86.9052L48.2148 85.8437C48.2951 85.4931 48.4 85.1485 48.5287 84.8125C49.0229 85.1018 49.3836 85.8087 49.5406 86.7022Z" fill="#333333"/>
<path d="M45.5585 93.6381L45.2892 93.6848C39.9182 94.499 43.5184 91.613 43.5184 91.613C43.5184 91.613 43.7526 91.3914 44.0875 91.0275C44.7364 90.3159 45.7108 89.0677 45.8232 87.9152C45.9919 86.1818 46.1863 84.5557 48.2405 85.0339C50.2666 85.5029 50.6531 92.6232 45.5585 93.6381Z" fill="#0069CA"/>
<path d="M45.4672 106.955H35.2054V109.643H45.4672V106.955Z" fill="#474157"/>
<path d="M46.9827 98.2197H33.5751V107.598H46.9827V98.2197Z" fill="#474157"/>
<path opacity="0.1" d="M45.3689 106.955H35.1071V109.643H45.3689V106.955Z" fill="#333333"/>
<path opacity="0.1" d="M46.9405 98.2227H33.533V107.601H46.9405V98.2227Z" fill="#333333"/>
<path d="M46.1418 106.955H35.88V109.643H46.1418V106.955Z" fill="#474157"/>
<path opacity="0.1" d="M41.942 90.4346C42.1762 91.2371 42.2887 91.79 42.2887 91.79L40.6865 92.4899C40.6865 92.4899 40.3375 92.322 39.8339 92.0093C40.4616 91.2091 41.169 90.6095 41.942 90.4346Z" fill="#333333"/>
<path opacity="0.1" d="M45.5585 93.638L45.2892 93.6846C39.9182 94.4989 43.5184 91.6129 43.5184 91.6129C43.5184 91.6129 43.7526 91.3913 44.0876 91.0273C45.0901 91.8346 45.514 92.7281 45.5585 93.638Z" fill="#333333"/>
<path d="M36.8357 98.7521C36.8357 98.7521 39.8433 88.0202 44.0618 91.3331C48.2804 94.646 42.3449 99.7319 42.3449 99.7319L36.8357 98.7521Z" fill="#0069CA"/>
<path opacity="0.1" d="M38.3535 87.3272C38.5398 87.3272 38.6908 87.1768 38.6908 86.9912C38.6908 86.8057 38.5398 86.6553 38.3535 86.6553C38.1672 86.6553 38.0162 86.8057 38.0162 86.9912C38.0162 87.1768 38.1672 87.3272 38.3535 87.3272Z" fill="#333333"/>
<path opacity="0.1" d="M38.3254 88.8975C38.5117 88.8975 38.6627 88.7471 38.6627 88.5615C38.6627 88.376 38.5117 88.2256 38.3254 88.2256C38.1391 88.2256 37.9881 88.376 37.9881 88.5615C37.9881 88.7471 38.1391 88.8975 38.3254 88.8975Z" fill="#333333"/>
<path opacity="0.1" d="M48.1094 87.6358C48.2956 87.6358 48.4467 87.4854 48.4467 87.2998C48.4467 87.1143 48.2956 86.9639 48.1094 86.9639C47.9231 86.9639 47.7721 87.1143 47.7721 87.2998C47.7721 87.4854 47.9231 87.6358 48.1094 87.6358Z" fill="#333333"/>
<path opacity="0.1" d="M40.2368 95.6729C40.4231 95.6729 40.5741 95.5225 40.5741 95.3369C40.5741 95.1514 40.4231 95.001 40.2368 95.001C40.0505 95.001 39.8995 95.1514 39.8995 95.3369C39.8995 95.5225 40.0505 95.6729 40.2368 95.6729Z" fill="#333333"/>
<path opacity="0.1" d="M47.4067 90.2412C47.593 90.2412 47.744 90.0908 47.744 89.9053C47.744 89.7197 47.593 89.5693 47.4067 89.5693C47.2204 89.5693 47.0694 89.7197 47.0694 89.9053C47.0694 90.0908 47.2204 90.2412 47.4067 90.2412Z" fill="#333333"/>
<path opacity="0.1" d="M43.9212 93.7129C44.1075 93.7129 44.2585 93.5625 44.2585 93.377C44.2585 93.1914 44.1075 93.041 43.9212 93.041C43.735 93.041 43.584 93.1914 43.584 93.377C43.584 93.5625 43.735 93.7129 43.9212 93.7129Z" fill="#333333"/>
<path opacity="0.1" d="M39.5059 87.9991C39.6922 87.9991 39.8432 87.8487 39.8432 87.6631C39.8432 87.4776 39.6922 87.3271 39.5059 87.3271C39.3197 87.3271 39.1686 87.4776 39.1686 87.6631C39.1686 87.8487 39.3197 87.9991 39.5059 87.9991Z" fill="#333333"/>
<path opacity="0.1" d="M47.1818 88.6455C47.3681 88.6455 47.5191 88.4951 47.5191 88.3096C47.5191 88.124 47.3681 87.9736 47.1818 87.9736C46.9956 87.9736 46.8445 88.124 46.8445 88.3096C46.8445 88.4951 46.9956 88.6455 47.1818 88.6455Z" fill="#333333"/>
<path opacity="0.1" d="M46.0294 91.2491C46.2157 91.2491 46.3667 91.0986 46.3667 90.9131C46.3667 90.7276 46.2157 90.5771 46.0294 90.5771C45.8431 90.5771 45.6921 90.7276 45.6921 90.9131C45.6921 91.0986 45.8431 91.2491 46.0294 91.2491Z" fill="#333333"/>
<path opacity="0.1" d="M42.4854 95.4199C42.6717 95.4199 42.8227 95.2695 42.8227 95.084C42.8227 94.8985 42.6717 94.748 42.4854 94.748C42.2991 94.748 42.1481 94.8985 42.1481 95.084C42.1481 95.2695 42.2991 95.4199 42.4854 95.4199Z" fill="#333333"/>
<path opacity="0.1" d="M41.7546 93.7686C41.9409 93.7686 42.0919 93.6182 42.0919 93.4326C42.0919 93.2471 41.9409 93.0967 41.7546 93.0967C41.5683 93.0967 41.4173 93.2471 41.4173 93.4326C41.4173 93.6182 41.5683 93.7686 41.7546 93.7686Z" fill="#333333"/>
<path opacity="0.1" d="M40.0119 90.045C40.1981 90.045 40.3492 89.8945 40.3492 89.709C40.3492 89.5235 40.1981 89.373 40.0119 89.373C39.8256 89.373 39.6746 89.5235 39.6746 89.709C39.6746 89.8945 39.8256 90.045 40.0119 90.045Z" fill="#333333"/>
<path opacity="0.1" d="M46.1418 106.955H35.88V107.937H46.1418V106.955Z" fill="#333333"/>
<path d="M47.6573 98.2197H34.2497V107.598H47.6573V98.2197Z" fill="#474157"/>
<path opacity="0.1" d="M42.9352 96.9327C43.1215 96.9327 43.2725 96.7823 43.2725 96.5967C43.2725 96.4112 43.1215 96.2607 42.9352 96.2607C42.7489 96.2607 42.5979 96.4112 42.5979 96.5967C42.5979 96.7823 42.7489 96.9327 42.9352 96.9327Z" fill="#333333"/>
<path opacity="0.1" d="M40.9114 97.3526C41.0977 97.3526 41.2487 97.2022 41.2487 97.0166C41.2487 96.8311 41.0977 96.6807 40.9114 96.6807C40.7251 96.6807 40.5741 96.8311 40.5741 97.0166C40.5741 97.2022 40.7251 97.3526 40.9114 97.3526Z" fill="#333333"/>
<path d="M73.0553 134.062C73.0553 134.062 74.7254 136.239 72.2847 139.524C69.8439 142.809 67.8342 145.59 68.64 147.634C68.64 147.634 72.3268 141.53 75.3274 141.447C78.3279 141.363 76.3557 137.735 73.0553 134.062Z" fill="#0069CA"/>
<path opacity="0.1" d="M73.0553 134.062C73.2013 134.272 73.3164 134.502 73.3973 134.744C76.3229 138.169 77.8829 141.365 75.0697 141.447C72.4486 141.528 69.3052 146.194 68.551 147.361C68.5767 147.452 68.6072 147.543 68.64 147.629C68.64 147.629 72.3268 141.526 75.3274 141.442C78.3279 141.358 76.3557 137.735 73.0553 134.062Z" fill="#333333"/>
<path d="M76.1613 136.839C76.1613 137.604 76.0746 138.225 75.9692 138.225C75.8638 138.225 75.7772 137.604 75.7772 136.839C75.7772 136.073 75.8849 136.433 75.9903 136.433C76.0957 136.433 76.1613 136.071 76.1613 136.839Z" fill="#FFD037"/>
<path d="M77.227 137.753C76.5524 138.12 75.9645 138.341 75.913 138.248C75.8614 138.155 76.3674 137.781 77.0443 137.415C77.7213 137.049 77.4519 137.315 77.5128 137.415C77.5737 137.515 77.904 137.387 77.227 137.753Z" fill="#FFD037"/>
<path d="M64.227 134.062C64.227 134.062 62.557 136.239 64.9977 139.524C67.4384 142.809 69.4481 145.59 68.64 147.634C68.64 147.634 64.9555 141.53 61.955 141.447C58.9544 141.363 60.9267 137.735 64.227 134.062Z" fill="#0069CA"/>
<path opacity="0.1" d="M64.227 134.062C64.0811 134.272 63.9659 134.502 63.8851 134.744C60.9595 138.169 59.3995 141.365 62.2126 141.447C64.8337 141.528 67.9771 146.194 68.7314 147.361C68.7058 147.452 68.6754 147.541 68.64 147.629C68.64 147.629 64.9555 141.528 61.955 141.449C58.9544 141.37 60.9267 137.735 64.227 134.062Z" fill="#333333"/>
<path d="M61.121 136.839C61.121 137.604 61.2077 138.225 61.3131 138.225C61.4185 138.225 61.5052 137.604 61.5052 136.839C61.5052 136.073 61.3974 136.433 61.292 136.433C61.1866 136.433 61.121 136.071 61.121 136.839Z" fill="#FFD037"/>
<path d="M60.0553 137.753C60.7299 138.12 61.3178 138.341 61.3694 138.248C61.4209 138.155 60.915 137.781 60.238 137.415C59.5611 137.049 59.8305 137.315 59.7696 137.415C59.7087 137.515 59.3784 137.387 60.0553 137.753Z" fill="#FFD037"/>
<path opacity="0.1" d="M68.64 164.289C78.2905 164.289 86.1139 163.093 86.1139 161.618C86.1139 160.142 78.2905 158.946 68.64 158.946C58.9894 158.946 51.1661 160.142 51.1661 161.618C51.1661 163.093 58.9894 164.289 68.64 164.289Z" fill="#0069CA"/>
<path d="M77.6346 144.704L77.5503 145.383L77.4332 146.344L77.3863 146.743L77.2669 147.704L77.2177 148.105L77.1006 149.064L75.7748 159.983C75.6553 160.958 74.0555 161.716 72.1278 161.716H65.1663C63.2362 161.716 61.6528 160.958 61.5216 159.983L60.1818 149.064L60.0647 148.105L60.0155 147.704L59.896 146.743L59.8492 146.344L59.7321 145.383L59.6478 144.704C59.5798 144.153 60.4442 143.687 61.538 143.687H75.7467C76.8359 143.687 77.7025 144.153 77.6346 144.704Z" fill="#65617D"/>
<path d="M77.5503 145.383L77.4332 146.342H59.8492L59.7321 145.383H77.5503Z" fill="#9D9CB5"/>
<path d="M77.3863 146.742L77.2692 147.703H60.0155L59.896 146.742H77.3863Z" fill="#9D9CB5"/>
<path d="M77.2177 148.103L77.1006 149.064H60.1818L60.0647 148.103H77.2177Z" fill="#9D9CB5"/>
</g>
<defs>
<linearGradient id="paint0_linear" x1="158.851" y1="185.237" x2="158.851" y2="64.8324" gradientUnits="userSpaceOnUse">
<stop stop-color="#808080" stop-opacity="0.25"/>
<stop offset="0.54" stop-color="#808080" stop-opacity="0.12"/>
<stop offset="1" stop-color="#808080" stop-opacity="0.1"/>
</linearGradient>
<clipPath id="clip0">
<rect width="234" height="186" fill="white"/>
</clipPath>
</defs>
</svg>
